<?xml version="1.0" standalone="no"?>
<svg width="1279.96093125" height="719.9709375000001" xmlns="http://www.w3.org/2000/svg" id="svgvm0"><g transform="translate(5,5)" style="font-family: sans-serif;"><g><g><g transform="translate(0,5)"><rect class="header-box" width="1269.96093125" height="39.13187500000001" stroke="black" fill="white" rx="5"/><rect class="label-cover" x="8" y="-9.833333015441895" width="34.861968994140625" height="17.333333015441895" fill="white" rx="5"/><text class="header-box-label" x="10" font-size="12" y="3">about</text><g class="header-box-content" transform="translate(5, 0)"><g transform="translate(0, 0.9544359756097549)"><text font-size="14.507426829268296"><tspan x="4" y="13.567141768292684">Enterprise</tspan></text><line x1="0" x2="1259.96093125" y1="18.134283536585368" y2="18.134283536585368" stroke="#dddddd"/></g><g transform="translate(0, 20.04315548780488)"><text font-size="14.507426829268296"><tspan x="4" y="13.567141768292684">Enterpise TTPs used in 2015 Ukraine Power Grid attack</tspan></text></g></g></g></g></g><g transform="translate(0,50.13187500000001)"><g><g class="tactic reconnaissance" transform="translate(0, 0)"><g class="techniques"><g class="technique T1589" transform="translate(0, 44.055937500000006)"><rect class="cell" height="44.055937500000006" width="82.22768619604317" fill="#3182bd" stroke="#6B7279"/><polygon class="sidebar" transform="translate(0, 44.055937500000006)" points="0,0 12,0 12,12" fill="#6B7279" visibility="visible"/><text font-size="8.8111875" fill="black"><tspan x="4" y="8.3819921875">Gather</tspan><tspan x="4" y="19.145976562500003">Victim</tspan><tspan x="4" y="29.909960937500003">Identity</tspan><tspan x="4" y="40.6739453125">Information</tspan></text></g><g class="technique T1590" transform="translate(0, 176.22375000000002)"><rect class="cell" height="44.055937500000006" width="82.22768619604317" fill="#3182bd" stroke="#6B7279"/><polygon class="sidebar" transform="translate(0, 44.055937500000006)" points="0,0 12,0 12,12" fill="#6B7279" visibility="visible"/><text font-size="8.8111875" fill="black"><tspan x="4" y="8.3819921875">Gather</tspan><tspan x="4" y="19.145976562500003">Victim</tspan><tspan x="4" y="29.909960937500003">Network</tspan><tspan x="4" y="40.6739453125">Information</tspan></text></g><g class="technique T1591" transform="translate(0, 352.44750000000005)"><rect class="cell" height="44.055937500000006" width="82.22768619604317" fill="#3182bd" stroke="#6B7279"/><polygon class="sidebar" transform="translate(0, 44.055937500000006)" points="0,0 12,0 12,12" fill="#6B7279" visibility="visible"/><text font-size="9.784558634932964" fill="black"><tspan x="4" y="10.175989583333333">Gather</tspan><tspan x="4" y="24.527968750000003">Victim Org</tspan><tspan x="4" y="38.87994791666667">Information</tspan></text></g><g class="technique T1593" transform="translate(0, 528.6712500000001)"><rect class="cell" height="44.055937500000006" width="82.22768619604317" fill="#3182bd" stroke="#6B7279"/><polygon class="sidebar" transform="translate(0, 44.055937500000006)" points="0,0 12,0 12,12" fill="#6B7279" visibility="visible"/><text font-size="6.726884061516412" fill="black"><tspan x="4" y="17.277968750000003">Search Open</tspan><tspan x="4" y="31.777968750000003">Websites/Domains</tspan></text></g></g><g class="subtechniques"><g class="subtechnique T1589.002" transform="translate(15, 88.11187500000001)"><rect class="cell" height="44.055937500000006" width="67.22768619604317" fill="#3182bd" stroke="#6B7279"/><rect class="cell" height="44.055937500000006" width="3" transform="translate(-3, 0)" fill="#6B7279" stroke="#6B7279"/><text font-size="9.542238331584732" fill="black"><tspan x="4" y="17.277968750000003">Email</tspan><tspan x="4" y="31.777968750000003">Addresses</tspan></text></g><g class="subtechnique T1589.003" transform="translate(15, 132.16781250000003)"><rect class="cell" height="44.055937500000006" width="67.22768619604317" fill="#3182bd" stroke="#6B7279"/><rect class="cell" height="44.055937500000006" width="3" transform="translate(-3, 0)" fill="#6B7279" stroke="#6B7279"/><text font-size="10.735018123032823" fill="black"><tspan x="4" y="18.277968750000003">Employee</tspan><tspan x="4" y="32.77796875">Names</tspan></text></g><g class="subtechnique T1590.001" transform="translate(15, 220.27968750000002)"><rect class="cell" height="44.055937500000006" width="67.22768619604317" fill="#3182bd" stroke="#6B7279"/><rect class="cell" height="44.055937500000006" width="3" transform="translate(-3, 0)" fill="#6B7279" stroke="#6B7279"/><text font-size="8.58801449842626" fill="black"><tspan x="4" y="17.277968750000003">Domain</tspan><tspan x="4" y="31.777968750000003">Properties</tspan></text></g><g class="subtechnique T1590.004" transform="translate(15, 264.33562500000005)"><rect class="cell" height="44.055937500000006" width="67.22768619604317" fill="#3182bd" stroke="#6B7279"/><rect class="cell" height="44.055937500000006" width="3" transform="translate(-3, 0)" fill="#6B7279" stroke="#6B7279"/><text font-size="10.735018123032823" fill="black"><tspan x="4" y="18.277968750000003">Network</tspan><tspan x="4" y="32.77796875">Topology</tspan></text></g><g class="subtechnique T1590.005" transform="translate(15, 308.3915625)"><rect class="cell" height="44.055937500000006" width="67.22768619604317" fill="#3182bd" stroke="#6B7279"/><rect class="cell" height="44.055937500000006" width="3" transform="translate(-3, 0)" fill="#6B7279" stroke="#6B7279"/><text font-size="9.542238331584732" fill="black"><tspan x="4" y="17.277968750000003">IP</tspan><tspan x="4" y="31.777968750000003">Addresses</tspan></text></g><g class="subtechnique T1591.002" transform="translate(15, 396.5034375)"><rect class="cell" height="44.055937500000006" width="67.22768619604317" fill="#3182bd" stroke="#6B7279"/><rect class="cell" height="44.055937500000006" width="3" transform="translate(-3, 0)" fill="#6B7279" stroke="#6B7279"/><text font-size="6.6061649987894295" fill="black"><tspan x="4" y="16.277968750000003">Business</tspan><tspan x="4" y="30.777968750000003">Relationships</tspan></text></g><g class="subtechnique T1591.001" transform="translate(15, 440.55937500000005)"><rect class="cell" height="44.055937500000006" width="67.22768619604317" fill="#3182bd" stroke="#6B7279"/><rect class="cell" height="44.055937500000006" width="3" transform="translate(-3, 0)" fill="#6B7279" stroke="#6B7279"/><text font-size="9.542238331584732" fill="black"><tspan x="4" y="10.175989583333333">Determine</tspan><tspan x="4" y="24.527968750000003">Physical</tspan><tspan x="4" y="38.87994791666667">Locations</tspan></text></g><g class="subtechnique T1591.004" transform="translate(15, 484.6153125)"><rect class="cell" height="44.055937500000006" width="67.22768619604317" fill="#3182bd" stroke="#6B7279"/><rect class="cell" height="44.055937500000006" width="3" transform="translate(-3, 0)" fill="#6B7279" stroke="#6B7279"/><text font-size="10.735018123032823" fill="black"><tspan x="4" y="18.277968750000003">Identify</tspan><tspan x="4" y="32.77796875">Roles</tspan></text></g><g class="subtechnique T1593.001" transform="translate(15, 572.7271875000001)"><rect class="cell" height="44.055937500000006" width="67.22768619604317" fill="#3182bd" stroke="#6B7279"/><rect class="cell" height="44.055937500000006" width="3" transform="translate(-3, 0)" fill="#6B7279" stroke="#6B7279"/><text font-size="12" fill="black"><tspan x="4" y="18.277968750000003">Social</tspan><tspan x="4" y="32.77796875">Media</tspan></text></g><g class="subtechnique T1593.002" transform="translate(15, 616.783125)"><rect class="cell" height="44.055937500000006" width="67.22768619604317" fill="#3182bd" stroke="#6B7279"/><rect class="cell" height="44.055937500000006" width="3" transform="translate(-3, 0)" fill="#6B7279" stroke="#6B7279"/><text font-size="12" fill="black"><tspan x="4" y="18.277968750000003">Search</tspan><tspan x="4" y="32.77796875">Engines</tspan></text></g></g><g class="tactic-label"><text font-size="7.6878674988758995" fill="black" font-weight="bold"><tspan text-anchor="middle" x="41.11384309802158" y="24.527968750000003">Reconnaissance</tspan></text></g></g><g class="tactic resource-development" transform="translate(91.3640957733813, 0)"><g class="techniques"><g class="technique T1587" transform="translate(0, 44.055937500000006)"><rect class="cell" height="44.055937500000006" width="82.22768619604317" fill="#3182bd" stroke="#6B7279"/><polygon class="sidebar" transform="translate(0, 44.055937500000006)" points="0,0 12,0 12,12" fill="#6B7279" visibility="visible"/><text font-size="8.969178748688549" fill="black"><tspan x="4" y="17.277968750000003">Develop</tspan><tspan x="4" y="31.777968750000003">Capabilities</tspan></text></g><g class="technique T1588" transform="translate(0, 132.16781250000003)"><rect class="cell" height="44.055937500000006" width="82.22768619604317" fill="#3182bd" stroke="#6B7279"/><polygon class="sidebar" transform="translate(0, 44.055937500000006)" points="0,0 12,0 12,12" fill="#6B7279" visibility="visible"/><text font-size="8.969178748688549" fill="black"><tspan x="4" y="17.277968750000003">Obtain</tspan><tspan x="4" y="31.777968750000003">Capabilities</tspan></text></g></g><g class="subtechniques"><g class="subtechnique T1587.001" transform="translate(15, 88.11187500000001)"><rect class="cell" height="44.055937500000006" width="67.22768619604317" fill="#3182bd" stroke="#6B7279"/><rect class="cell" height="44.055937500000006" width="3" transform="translate(-3, 0)" fill="#6B7279" stroke="#6B7279"/><text font-size="12" fill="black"><tspan x="4" y="25.527968750000003">Malware</tspan></text></g><g class="subtechnique T1588.001" transform="translate(15, 176.22375000000002)"><rect class="cell" height="44.055937500000006" width="67.22768619604317" fill="#3182bd" stroke="#6B7279"/><rect class="cell" height="44.055937500000006" width="3" transform="translate(-3, 0)" fill="#6B7279" stroke="#6B7279"/><text font-size="12" fill="black"><tspan x="4" y="25.527968750000003">Malware</tspan></text></g></g><g class="tactic-label"><text font-size="9.784558634932964" fill="black" font-weight="bold"><tspan text-anchor="middle" x="41.11384309802158" y="17.277968750000003">Resource</tspan><tspan text-anchor="middle" x="41.11384309802158" y="31.777968750000003">Development</tspan></text></g></g><g class="tactic initial-access" transform="translate(182.7281915467626, 0)"><g class="techniques"><g class="technique T1566" transform="translate(0, 44.055937500000006)"><rect class="cell" height="44.055937500000006" width="82.22768619604317" fill="#e6d60d" stroke="#6B7279"/><polygon class="sidebar" transform="translate(0, 44.055937500000006)" points="0,0 12,0 12,12" fill="#6B7279" visibility="visible"/><text font-size="12" fill="black"><tspan x="4" y="25.527968750000003">Phishing</tspan></text></g></g><g class="subtechniques"><g class="subtechnique T1566.001" transform="translate(15, 88.11187500000001)"><rect class="cell" height="44.055937500000006" width="67.22768619604317" fill="#e6d60d" stroke="#6B7279"/><rect class="cell" height="44.055937500000006" width="3" transform="translate(-3, 0)" fill="#6B7279" stroke="#6B7279"/><text font-size="6.6061649987894295" fill="black"><tspan x="4" y="16.277968750000003">Spearphishing</tspan><tspan x="4" y="30.777968750000003">Attachment</tspan></text></g></g><g class="tactic-label"><text font-size="12" fill="black" font-weight="bold"><tspan text-anchor="middle" x="41.11384309802158" y="18.277968750000003">Initial</tspan><tspan text-anchor="middle" x="41.11384309802158" y="32.77796875">Access</tspan></text></g></g><g class="tactic execution" transform="translate(274.0922873201439, 0)"><g class="techniques"><g class="technique T1059" transform="translate(0, 44.055937500000006)"><rect class="cell" height="44.055937500000006" width="82.22768619604317" fill="#e6550d" stroke="#6B7279"/><polygon class="sidebar" transform="translate(0, 44.055937500000006)" points="0,0 12,0 12,12" fill="#6B7279" visibility="visible"/><text font-size="9.784558634932964" fill="black"><tspan x="4" y="10.175989583333333">Command and</tspan><tspan x="4" y="24.527968750000003">Scripting</tspan><tspan x="4" y="38.87994791666667">Interpreter</tspan></text></g><g class="technique T1204" transform="translate(0, 132.16781250000003)"><rect class="cell" height="44.055937500000006" width="82.22768619604317" fill="#e6550d" stroke="#6B7279"/><polygon class="sidebar" transform="translate(0, 44.055937500000006)" points="0,0 12,0 12,12" fill="#6B7279" visibility="visible"/><text font-size="11.958904998251398" fill="black"><tspan x="4" y="18.277968750000003">User</tspan><tspan x="4" y="32.77796875">Execution</tspan></text></g></g><g class="subtechniques"><g class="subtechnique T1059.005" transform="translate(15, 88.11187500000001)"><rect class="cell" height="44.055937500000006" width="67.22768619604317" fill="#e6550d" stroke="#6B7279"/><rect class="cell" height="44.055937500000006" width="3" transform="translate(-3, 0)" fill="#6B7279" stroke="#6B7279"/><text font-size="12" fill="black"><tspan x="4" y="18.277968750000003">Visual</tspan><tspan x="4" y="32.77796875">Basic</tspan></text></g><g class="subtechnique T1204.002" transform="translate(15, 176.22375000000002)"><rect class="cell" height="44.055937500000006" width="67.22768619604317" fill="#e6550d" stroke="#6B7279"/><rect class="cell" height="44.055937500000006" width="3" transform="translate(-3, 0)" fill="#6B7279" stroke="#6B7279"/><text font-size="9.542238331584732" fill="black"><tspan x="4" y="17.277968750000003">Malicious</tspan><tspan x="4" y="31.777968750000003">File</tspan></text></g></g><g class="tactic-label"><text font-size="11.958904998251398" fill="black" font-weight="bold"><tspan text-anchor="middle" x="41.11384309802158" y="25.527968750000003">Execution</tspan></text></g></g><g class="tactic persistence" transform="translate(365.4563830935252, 0)"><g class="techniques"><g class="technique T1136" transform="translate(0, 44.055937500000006)"><rect class="cell" height="44.055937500000006" width="82.22768619604317" fill="#e6550d" stroke="#6B7279"/><polygon class="sidebar" transform="translate(0, 44.055937500000006)" points="0,0 12,0 12,12" fill="#6B7279" visibility="visible"/><text font-size="12" fill="black"><tspan x="4" y="18.277968750000003">Create</tspan><tspan x="4" y="32.77796875">Account</tspan></text></g><g class="technique T1543" transform="translate(0, 132.16781250000003)"><rect class="cell" height="44.055937500000006" width="82.22768619604317" fill="#e6550d" stroke="#6B7279"/><polygon class="sidebar" transform="translate(0, 44.055937500000006)" points="0,0 12,0 12,12" fill="#6B7279" visibility="visible"/><text font-size="8.8111875" fill="black"><tspan x="4" y="8.3819921875">Create</tspan><tspan x="4" y="19.145976562500003">or Modify</tspan><tspan x="4" y="29.909960937500003">System</tspan><tspan x="4" y="40.6739453125">Process</tspan></text></g><g class="technique T1133" transform="translate(0, 220.27968750000002)"><rect class="cell" height="44.055937500000006" width="82.22768619604317" fill="#e6550d" stroke="#6B7279"/><polygon class="sidebar" transform="translate(0, 44.055937500000006)" points="0,0 12,0 12,0" fill="#6B7279" visibility="hidden"/><text font-size="11.748250000000002" fill="black"><tspan x="4" y="11.175989583333333">External</tspan><tspan x="4" y="25.527968750000003">Remote</tspan><tspan x="4" y="39.87994791666667">Services</tspan></text></g><g class="technique T1137" transform="translate(0, 264.33562500000005)"><rect class="cell" height="44.055937500000006" width="82.22768619604317" fill="#e6550d" stroke="#6B7279"/><polygon class="sidebar" transform="translate(0, 44.055937500000006)" points="0,0 12,0 12,12" fill="#6B7279" visibility="visible"/><text font-size="9.784558634932964" fill="black"><tspan x="4" y="10.175989583333333">Office</tspan><tspan x="4" y="24.527968750000003">Application</tspan><tspan x="4" y="38.87994791666667">Startup</tspan></text></g></g><g class="subtechniques"><g class="subtechnique T1136.002" transform="translate(15, 88.11187500000001)"><rect class="cell" height="44.055937500000006" width="67.22768619604317" fill="#e6550d" stroke="#6B7279"/><rect class="cell" height="44.055937500000006" width="3" transform="translate(-3, 0)" fill="#6B7279" stroke="#6B7279"/><text font-size="12" fill="black"><tspan x="4" y="18.277968750000003">Domain</tspan><tspan x="4" y="32.77796875">Account</tspan></text></g><g class="subtechnique T1543.003" transform="translate(15, 176.22375000000002)"><rect class="cell" height="44.055937500000006" width="67.22768619604317" fill="#e6550d" stroke="#6B7279"/><rect class="cell" height="44.055937500000006" width="3" transform="translate(-3, 0)" fill="#6B7279" stroke="#6B7279"/><text font-size="12" fill="black"><tspan x="4" y="18.277968750000003">Windows</tspan><tspan x="4" y="32.77796875">Service</tspan></text></g><g class="subtechnique T1137.001" transform="translate(15, 308.3915625)"><rect class="cell" height="44.055937500000006" width="67.22768619604317" fill="#e6550d" stroke="#6B7279"/><rect class="cell" height="44.055937500000006" width="3" transform="translate(-3, 0)" fill="#6B7279" stroke="#6B7279"/><text font-size="10.735018123032823" fill="black"><tspan x="4" y="11.175989583333333">Office</tspan><tspan x="4" y="25.527968750000003">Template</tspan><tspan x="4" y="39.87994791666667">Macros</tspan></text></g></g><g class="tactic-label"><text font-size="9.784558634932964" fill="black" font-weight="bold"><tspan text-anchor="middle" x="41.11384309802158" y="24.527968750000003">Persistence</tspan></text></g></g><g class="tactic privilege-escalation" transform="translate(456.82047886690646, 0)"><g class="techniques"><g class="technique T1078" transform="translate(0, 44.055937500000006)"><rect class="cell" height="44.055937500000006" width="82.22768619604317" fill="#e60d0d" stroke="#6B7279"/><polygon class="sidebar" transform="translate(0, 44.055937500000006)" points="0,0 12,0 12,12" fill="#6B7279" visibility="visible"/><text font-size="12" fill="white"><tspan x="4" y="18.277968750000003">Valid</tspan><tspan x="4" y="32.77796875">Accounts</tspan></text></g></g><g class="subtechniques"><g class="subtechnique T1078.002" transform="translate(15, 88.11187500000001)"><rect class="cell" height="44.055937500000006" width="67.22768619604317" fill="#e60d0d" stroke="#6B7279"/><rect class="cell" height="44.055937500000006" width="3" transform="translate(-3, 0)" fill="#6B7279" stroke="#6B7279"/><text font-size="10.735018123032823" fill="white"><tspan x="4" y="18.277968750000003">Domain</tspan><tspan x="4" y="32.77796875">Accounts</tspan></text></g><g class="subtechnique T1078.003" transform="translate(15, 132.16781250000003)"><rect class="cell" height="44.055937500000006" width="67.22768619604317" fill="#e60d0d" stroke="#6B7279"/><rect class="cell" height="44.055937500000006" width="3" transform="translate(-3, 0)" fill="#6B7279" stroke="#6B7279"/><text font-size="10.735018123032823" fill="white"><tspan x="4" y="18.277968750000003">Local</tspan><tspan x="4" y="32.77796875">Accounts</tspan></text></g></g><g class="tactic-label"><text font-size="10.763014498426259" fill="black" font-weight="bold"><tspan text-anchor="middle" x="41.11384309802158" y="18.277968750000003">Privilege</tspan><tspan text-anchor="middle" x="41.11384309802158" y="32.77796875">Escalation</tspan></text></g></g><g class="tactic defense-evasion" transform="translate(548.1845746402878, 0)"><g class="techniques"><g class="technique T1112" transform="translate(0, 44.055937500000006)"><rect class="cell" height="44.055937500000006" width="82.22768619604317" fill="#e60d0d" stroke="#6B7279"/><polygon class="sidebar" transform="translate(0, 44.055937500000006)" points="0,0 12,0 12,0" fill="#6B7279" visibility="hidden"/><text font-size="12" fill="white"><tspan x="4" y="18.277968750000003">Modify</tspan><tspan x="4" y="32.77796875">Registry</tspan></text></g><g class="technique T1078" transform="translate(0, 88.11187500000001)"><rect class="cell" height="44.055937500000006" width="82.22768619604317" fill="#e6550d" stroke="#6B7279"/><polygon class="sidebar" transform="translate(0, 44.055937500000006)" points="0,0 12,0 12,12" fill="#6B7279" visibility="visible"/><text font-size="12" fill="black"><tspan x="4" y="18.277968750000003">Valid</tspan><tspan x="4" y="32.77796875">Accounts</tspan></text></g></g><g class="subtechniques"><g class="subtechnique T1078.002" transform="translate(15, 132.16781250000003)"><rect class="cell" height="44.055937500000006" width="67.22768619604317" fill="#e6550d" stroke="#6B7279"/><rect class="cell" height="44.055937500000006" width="3" transform="translate(-3, 0)" fill="#6B7279" stroke="#6B7279"/><text font-size="10.735018123032823" fill="black"><tspan x="4" y="18.277968750000003">Domain</tspan><tspan x="4" y="32.77796875">Accounts</tspan></text></g><g class="subtechnique T1078.003" transform="translate(15, 176.22375000000002)"><rect class="cell" height="44.055937500000006" width="67.22768619604317" fill="#e6550d" stroke="#6B7279"/><rect class="cell" height="44.055937500000006" width="3" transform="translate(-3, 0)" fill="#6B7279" stroke="#6B7279"/><text font-size="10.735018123032823" fill="black"><tspan x="4" y="18.277968750000003">Local</tspan><tspan x="4" y="32.77796875">Accounts</tspan></text></g></g><g class="tactic-label"><text font-size="12" fill="black" font-weight="bold"><tspan text-anchor="middle" x="41.11384309802158" y="18.277968750000003">Defense</tspan><tspan text-anchor="middle" x="41.11384309802158" y="32.77796875">Evasion</tspan></text></g></g><g class="tactic credential-access" transform="translate(639.548670413669, 0)"><g class="techniques"><g class="technique T1555" transform="translate(0, 44.055937500000006)"><rect class="cell" height="44.055937500000006" width="82.22768619604317" fill="#e60d0d" stroke="#6B7279"/><polygon class="sidebar" transform="translate(0, 44.055937500000006)" points="0,0 12,0 12,12" fill="#6B7279" visibility="hidden"/><text font-size="8.8111875" fill="white"><tspan x="4" y="8.3819921875">Credentials</tspan><tspan x="4" y="19.145976562500003">from</tspan><tspan x="4" y="29.909960937500003">Password</tspan><tspan x="4" y="40.6739453125">Stores</tspan></text></g><g class="technique T1056" transform="translate(0, 88.11187500000001)"><rect class="cell" height="44.055937500000006" width="82.22768619604317" fill="#e60d0d" stroke="#6B7279"/><polygon class="sidebar" transform="translate(0, 44.055937500000006)" points="0,0 12,0 12,12" fill="#6B7279" visibility="visible"/><text font-size="12" fill="white"><tspan x="4" y="18.277968750000003">Input</tspan><tspan x="4" y="32.77796875">Capture</tspan></text></g></g><g class="subtechniques"><g class="subtechnique T1056.001" transform="translate(15, 132.16781250000003)"><rect class="cell" height="44.055937500000006" width="67.22768619604317" fill="#e60d0d" stroke="#6B7279"/><rect class="cell" height="44.055937500000006" width="3" transform="translate(-3, 0)" fill="#6B7279" stroke="#6B7279"/><text font-size="8.58801449842626" fill="white"><tspan x="4" y="24.527968750000003">Keylogging</tspan></text></g></g><g class="tactic-label"><text font-size="10.763014498426259" fill="black" font-weight="bold"><tspan text-anchor="middle" x="41.11384309802158" y="18.277968750000003">Credential</tspan><tspan text-anchor="middle" x="41.11384309802158" y="32.77796875">Access</tspan></text></g></g><g class="tactic discovery" transform="translate(730.9127661870504, 0)"><g class="techniques"><g class="technique T1046" transform="translate(0, 44.055937500000006)"><rect class="cell" height="44.055937500000006" width="82.22768619604317" fill="#3182bd" stroke="#6B7279"/><polygon class="sidebar" transform="translate(0, 44.055937500000006)" points="0,0 12,0 12,0" fill="#6B7279" visibility="hidden"/><text font-size="11.748250000000002" fill="black"><tspan x="4" y="11.175989583333333">Network</tspan><tspan x="4" y="25.527968750000003">Service</tspan><tspan x="4" y="39.87994791666667">Scanning</tspan></text></g><g class="technique T1135" transform="translate(0, 88.11187500000001)"><rect class="cell" height="44.055937500000006" width="82.22768619604317" fill="#3182bd" stroke="#6B7279"/><polygon class="sidebar" transform="translate(0, 44.055937500000006)" points="0,0 12,0 12,0" fill="#6B7279" visibility="hidden"/><text font-size="11.748250000000002" fill="black"><tspan x="4" y="11.175989583333333">Network</tspan><tspan x="4" y="25.527968750000003">Share</tspan><tspan x="4" y="39.87994791666667">Discovery</tspan></text></g><g class="technique T1018" transform="translate(0, 132.16781250000003)"><rect class="cell" height="44.055937500000006" width="82.22768619604317" fill="#3182bd" stroke="#6B7279"/><polygon class="sidebar" transform="translate(0, 44.055937500000006)" points="0,0 12,0 12,0" fill="#6B7279" visibility="hidden"/><text font-size="11.748250000000002" fill="black"><tspan x="4" y="11.175989583333333">Remote</tspan><tspan x="4" y="25.527968750000003">System</tspan><tspan x="4" y="39.87994791666667">Discovery</tspan></text></g><g class="technique T1016" transform="translate(0, 176.22375000000002)"><rect class="cell" height="44.055937500000006" width="82.22768619604317" fill="#3182bd" stroke="#6B7279"/><polygon class="sidebar" transform="translate(0, 44.055937500000006)" points="0,0 12,0 12,12" fill="#6B7279" visibility="visible"/><text font-size="8.279241921866353" fill="black"><tspan x="4" y="8.3819921875">System</tspan><tspan x="4" y="19.145976562500003">Network</tspan><tspan x="4" y="29.909960937500003">Configuration</tspan><tspan x="4" y="40.6739453125">Discovery</tspan></text></g><g class="technique T1049" transform="translate(0, 264.33562500000005)"><rect class="cell" height="44.055937500000006" width="82.22768619604317" fill="#3182bd" stroke="#6B7279"/><polygon class="sidebar" transform="translate(0, 44.055937500000006)" points="0,0 12,0 12,0" fill="#6B7279" visibility="hidden"/><text font-size="8.8111875" fill="black"><tspan x="4" y="8.3819921875">System</tspan><tspan x="4" y="19.145976562500003">Network</tspan><tspan x="4" y="29.909960937500003">Connections</tspan><tspan x="4" y="40.6739453125">Discovery</tspan></text></g></g><g class="subtechniques"><g class="subtechnique T1016.001" transform="translate(15, 220.27968750000002)"><rect class="cell" height="44.055937500000006" width="67.22768619604317" fill="#3182bd" stroke="#6B7279"/><rect class="cell" height="44.055937500000006" width="3" transform="translate(-3, 0)" fill="#6B7279" stroke="#6B7279"/><text font-size="8.58801449842626" fill="black"><tspan x="4" y="10.175989583333333">Internet</tspan><tspan x="4" y="24.527968750000003">Connection</tspan><tspan x="4" y="38.87994791666667">Discovery</tspan></text></g></g><g class="tactic-label"><text font-size="11.958904998251398" fill="black" font-weight="bold"><tspan text-anchor="middle" x="41.11384309802158" y="25.527968750000003">Discovery</tspan></text></g></g><g class="tactic lateral-movement" transform="translate(822.2768619604317, 0)"><g class="techniques"><g class="technique T1570" transform="translate(0, 44.055937500000006)"><rect class="cell" height="44.055937500000006" width="82.22768619604317" fill="#e6550d" stroke="#6B7279"/><polygon class="sidebar" transform="translate(0, 44.055937500000006)" points="0,0 12,0 12,0" fill="#6B7279" visibility="hidden"/><text font-size="11.748250000000002" fill="black"><tspan x="4" y="11.175989583333333">Lateral</tspan><tspan x="4" y="25.527968750000003">Tool</tspan><tspan x="4" y="39.87994791666667">Transfer</tspan></text></g><g class="technique T1021" transform="translate(0, 88.11187500000001)"><rect class="cell" height="44.055937500000006" width="82.22768619604317" fill="#e60d0d" stroke="#6B7279"/><polygon class="sidebar" transform="translate(0, 44.055937500000006)" points="0,0 12,0 12,12" fill="#6B7279" visibility="visible"/><text font-size="12" fill="white"><tspan x="4" y="18.277968750000003">Remote</tspan><tspan x="4" y="32.77796875">Services</tspan></text></g></g><g class="subtechniques"><g class="subtechnique T1021.006" transform="translate(15, 132.16781250000003)"><rect class="cell" height="44.055937500000006" width="67.22768619604317" fill="#e60d0d" stroke="#6B7279"/><rect class="cell" height="44.055937500000006" width="3" transform="translate(-3, 0)" fill="#6B7279" stroke="#6B7279"/><text font-size="8.58801449842626" fill="white"><tspan x="4" y="10.175989583333333">Windows</tspan><tspan x="4" y="24.527968750000003">Remote</tspan><tspan x="4" y="38.87994791666667">Management</tspan></text></g></g><g class="tactic-label"><text font-size="12" fill="black" font-weight="bold"><tspan text-anchor="middle" x="41.11384309802158" y="18.277968750000003">Lateral</tspan><tspan text-anchor="middle" x="41.11384309802158" y="32.77796875">Movement</tspan></text></g></g><g class="tactic collection" transform="translate(913.6409577338129, 0)"><g class="techniques"><g class="technique T1056" transform="translate(0, 44.055937500000006)"><rect class="cell" height="44.055937500000006" width="82.22768619604317" fill="#e60d0d" stroke="#6B7279"/><polygon class="sidebar" transform="translate(0, 44.055937500000006)" points="0,0 12,0 12,12" fill="#6B7279" visibility="visible"/><text font-size="12" fill="white"><tspan x="4" y="18.277968750000003">Input</tspan><tspan x="4" y="32.77796875">Capture</tspan></text></g></g><g class="subtechniques"><g class="subtechnique T1056.001" transform="translate(15, 88.11187500000001)"><rect class="cell" height="44.055937500000006" width="67.22768619604317" fill="#e60d0d" stroke="#6B7279"/><rect class="cell" height="44.055937500000006" width="3" transform="translate(-3, 0)" fill="#6B7279" stroke="#6B7279"/><text font-size="8.58801449842626" fill="white"><tspan x="4" y="24.527968750000003">Keylogging</tspan></text></g></g><g class="tactic-label"><text font-size="10.763014498426259" fill="black" font-weight="bold"><tspan text-anchor="middle" x="41.11384309802158" y="25.527968750000003">Collection</tspan></text></g></g><g class="tactic command-and-control" transform="translate(1005.0050535071942, 0)"><g class="techniques"><g class="technique T1071" transform="translate(0, 44.055937500000006)"><rect class="cell" height="44.055937500000006" width="82.22768619604317" fill="#fc6b6b" stroke="#6B7279"/><polygon class="sidebar" transform="translate(0, 44.055937500000006)" points="0,0 12,0 12,12" fill="#6B7279" visibility="visible"/><text font-size="9.784558634932964" fill="black"><tspan x="4" y="10.175989583333333">Application</tspan><tspan x="4" y="24.527968750000003">Layer</tspan><tspan x="4" y="38.87994791666667">Protocol</tspan></text></g><g class="technique T1105" transform="translate(0, 132.16781250000003)"><rect class="cell" height="44.055937500000006" width="82.22768619604317" fill="#fc6b6b" stroke="#6B7279"/><polygon class="sidebar" transform="translate(0, 44.055937500000006)" points="0,0 12,0 12,0" fill="#6B7279" visibility="hidden"/><text font-size="11.748250000000002" fill="black"><tspan x="4" y="11.175989583333333">Ingress</tspan><tspan x="4" y="25.527968750000003">Tool</tspan><tspan x="4" y="39.87994791666667">Transfer</tspan></text></g></g><g class="subtechniques"><g class="subtechnique T1071.001" transform="translate(15, 88.11187500000001)"><rect class="cell" height="44.055937500000006" width="67.22768619604317" fill="#fc6b6b" stroke="#6B7279"/><rect class="cell" height="44.055937500000006" width="3" transform="translate(-3, 0)" fill="#6B7279" stroke="#6B7279"/><text font-size="9.542238331584732" fill="black"><tspan x="4" y="17.277968750000003">Web</tspan><tspan x="4" y="31.777968750000003">Protocols</tspan></text></g></g><g class="tactic-label"><text font-size="11.748250000000002" fill="black" font-weight="bold"><tspan text-anchor="middle" x="41.11384309802158" y="11.175989583333333">Command</tspan><tspan text-anchor="middle" x="41.11384309802158" y="25.527968750000003">and</tspan><tspan text-anchor="middle" x="41.11384309802158" y="39.87994791666667">Control</tspan></text></g></g><g class="tactic exfiltration" transform="translate(1096.3691492805756, 0)"><g class="techniques"><g class="technique T1041" transform="translate(0, 44.055937500000006)"><rect class="cell" height="44.055937500000006" width="82.22768619604317" fill="#fc6b6b" stroke="#6B7279"/><polygon class="sidebar" transform="translate(0, 44.055937500000006)" points="0,0 12,0 12,0" fill="#6B7279" visibility="hidden"/><text font-size="8.969178748688549" fill="black"><tspan x="4" y="10.175989583333333">Exfiltration</tspan><tspan x="4" y="24.527968750000003">Over</tspan><tspan x="4" y="38.87994791666667">C2 Channel</tspan></text></g></g><g class="subtechniques"/><g class="tactic-label"><text font-size="8.969178748688549" fill="black" font-weight="bold"><tspan text-anchor="middle" x="41.11384309802158" y="24.527968750000003">Exfiltration</tspan></text></g></g><g class="tactic impact" transform="translate(1187.7332450539568, 0)"><g class="techniques"><g class="technique T1485" transform="translate(0, 44.055937500000006)"><rect class="cell" height="44.055937500000006" width="82.22768619604317" fill="#e60d0d" stroke="#6B7279"/><polygon class="sidebar" transform="translate(0, 44.055937500000006)" points="0,0 12,0 12,0" fill="#6B7279" visibility="hidden"/><text font-size="9.784558634932964" fill="white"><tspan x="4" y="17.277968750000003">Data</tspan><tspan x="4" y="31.777968750000003">Destruction</tspan></text></g><g class="technique T1561" transform="translate(0, 88.11187500000001)"><rect class="cell" height="44.055937500000006" width="82.22768619604317" fill="#e60d0d" stroke="#6B7279"/><polygon class="sidebar" transform="translate(0, 44.055937500000006)" points="0,0 12,0 12,12" fill="#6B7279" visibility="visible"/><text font-size="12" fill="white"><tspan x="4" y="18.277968750000003">Disk</tspan><tspan x="4" y="32.77796875">Wipe</tspan></text></g><g class="technique T1499" transform="translate(0, 176.22375000000002)"><rect class="cell" height="44.055937500000006" width="82.22768619604317" fill="#e60d0d" stroke="#6B7279"/><polygon class="sidebar" transform="translate(0, 44.055937500000006)" points="0,0 12,0 12,12" fill="#6B7279" visibility="visible"/><text font-size="11.748250000000002" fill="white"><tspan x="4" y="11.175989583333333">Endpoint</tspan><tspan x="4" y="25.527968750000003">Denial of</tspan><tspan x="4" y="39.87994791666667">Service</tspan></text></g><g class="technique T1529" transform="translate(0, 264.33562500000005)"><rect class="cell" height="44.055937500000006" width="82.22768619604317" fill="#e60d0d" stroke="#6B7279"/><polygon class="sidebar" transform="translate(0, 44.055937500000006)" points="0,0 12,0 12,0" fill="#6B7279" visibility="hidden"/><text font-size="7.17534299895084" fill="white"><tspan x="4" y="17.277968750000003">System</tspan><tspan x="4" y="31.777968750000003">Shutdown/Reboot</tspan></text></g></g><g class="subtechniques"><g class="subtechnique T1561.002" transform="translate(15, 132.16781250000003)"><rect class="cell" height="44.055937500000006" width="67.22768619604317" fill="#e60d0d" stroke="#6B7279"/><rect class="cell" height="44.055937500000006" width="3" transform="translate(-3, 0)" fill="#6B7279" stroke="#6B7279"/><text font-size="9.542238331584732" fill="white"><tspan x="4" y="10.175989583333333">Disk</tspan><tspan x="4" y="24.527968750000003">Structure</tspan><tspan x="4" y="38.87994791666667">Wipe</tspan></text></g><g class="subtechnique T1499.002" transform="translate(15, 220.27968750000002)"><rect class="cell" height="44.055937500000006" width="67.22768619604317" fill="#e60d0d" stroke="#6B7279"/><rect class="cell" height="44.055937500000006" width="3" transform="translate(-3, 0)" fill="#6B7279" stroke="#6B7279"/><text font-size="8.58801449842626" fill="white"><tspan x="4" y="10.175989583333333">Service</tspan><tspan x="4" y="24.527968750000003">Exhaustion</tspan><tspan x="4" y="38.87994791666667">Flood</tspan></text></g></g><g class="tactic-label"><text font-size="12" fill="black" font-weight="bold"><tspan text-anchor="middle" x="41.11384309802158" y="25.527968750000003">Impact</tspan></text></g></g></g><g transform="translate(113.38125000000001, 377.9375)"><g transform="translate(0,5)"><rect class="header-box" width="1133.8125" height="39.13187500000001" stroke="black" fill="white" rx="5"/><rect class="label-cover" x="8" y="-9.833333015441895" width="40.041664123535156" height="17.333333015441895" fill="white" rx="5"/><text class="header-box-label" x="10" font-size="12" y="3">legend</text><g class="header-box-content" transform="translate(5, 0)"><g transform="translate(0, 1.8634226190476184)"><g transform="translate(0, 5)"><g class="legendCells"><g class="cell" transform="translate(0,0)"><rect class="swatch" height="15" width="224.7625" style="fill: rgb(49, 130, 189);"/><text class="label" transform="translate(112.38124084472656,&#10;          24.999999046325684)" style="text-anchor: middle;">Pre-attack/recoinnassance</text></g><g class="cell" transform="translate(224.76248168945312,0)"><rect class="swatch" height="15" width="224.7625" style="fill: rgb(252, 233, 59);"/><text class="label" transform="translate(112.38124084472656,&#10;          24.999999046325684)" style="text-anchor: middle;">Initial Foothold</text></g><g class="cell" transform="translate(449.52496337890625,0)"><rect class="swatch" height="15" width="224.7625" style="fill: rgb(230, 85, 13);"/><text class="label" transform="translate(112.38124084472656,&#10;          24.999999046325684)" style="text-anchor: middle;">Persistence</text></g><g class="cell" transform="translate(674.2874450683594,0)"><rect class="swatch" height="15" width="224.7625" style="fill: rgb(252, 107, 107);"/><text class="label" transform="translate(112.38124084472656,&#10;          24.999999046325684)" style="text-anchor: middle;">C2 actions</text></g><g class="cell" transform="translate(899.0499267578125,0)"><rect class="swatch" height="15" width="224.7625" style="fill: rgb(230, 13, 13);"/><text class="label" transform="translate(112.38124084472656,&#10;          24.999999046325684)" style="text-anchor: middle;">Exploit/asset compromise</text></g></g></g></g></g></g></g></g></g></svg>