<?xml version="1.0" standalone="no"?>
<svg width="1511.75" height="1020.4312500000001" xmlns="http://www.w3.org/2000/svg" id="svgvm6"><g transform="translate(5,5)" style="font-family: sans-serif;"><g><g><g transform="translate(0,5)"><rect class="header-box" width="1501.75" height="39.13187500000001" stroke="black" fill="white" rx="5"/><rect class="label-cover" x="8" y="-9.666666984558105" width="34.6953125" height="17.33333396911621" fill="white" rx="5"/><text class="header-box-label" x="10" font-size="12" y="3">about</text><g class="header-box-content" transform="translate(5, 0)"><g transform="translate(0, 0.9544359756097549)"><text font-size="14.507426829268296"><tspan x="4" y="13.567141768292684">Enterprise</tspan></text><line x1="0" x2="1491.75" y1="18.134283536585368" y2="18.134283536585368" stroke="#dddddd"/></g><g transform="translate(0, 20.04315548780488)"><text font-size="14.507426829268296"><tspan x="4" y="13.567141768292684">Enterpise TTPs used in 2015 Ukraine Power Grid attack</tspan></text></g></g></g></g></g><g transform="translate(0,50.13187500000001)"><g><g class="tactic reconnaissance" transform="translate(0, 0)"><g class="techniques"><g class="technique T1589" transform="translate(0, 64.086625)"><rect class="cell" height="64.086625" width="97.23561151079137" fill="#6baed6" stroke="#6B7279"/><polygon class="sidebar" transform="translate(0, 64.086625)" points="0,0 12,0 12,12" fill="#6B7279" visibility="visible"/><text font-size="11.762876062786136" fill="black"><tspan x="4" y="13.418312499999999">Gather</tspan><tspan x="4" y="28.1683125">Victim</tspan><tspan x="4" y="42.9183125">Identity</tspan><tspan x="4" y="57.6683125">Information</tspan></text></g><g class="technique T1590" transform="translate(0, 256.3465)"><rect class="cell" height="64.086625" width="97.23561151079137" fill="#6baed6" stroke="#6B7279"/><polygon class="sidebar" transform="translate(0, 64.086625)" points="0,0 12,0 12,12" fill="#6B7279" visibility="visible"/><text font-size="11.762876062786136" fill="black"><tspan x="4" y="13.418312499999999">Gather</tspan><tspan x="4" y="28.1683125">Victim</tspan><tspan x="4" y="42.9183125">Network</tspan><tspan x="4" y="57.6683125">Information</tspan></text></g><g class="technique T1591" transform="translate(0, 512.693)"><rect class="cell" height="64.086625" width="97.23561151079137" fill="#6baed6" stroke="#6B7279"/><polygon class="sidebar" transform="translate(0, 64.086625)" points="0,0 12,0 12,12" fill="#6B7279" visibility="visible"/><text font-size="11.762876062786136" fill="black"><tspan x="4" y="20.87664583333333">Gather</tspan><tspan x="4" y="35.5433125">Victim Org</tspan><tspan x="4" y="50.20997916666666">Information</tspan></text></g><g class="technique T1593" transform="translate(0, 769.0395000000001)"><rect class="cell" height="64.086625" width="97.23561151079137" fill="#6baed6" stroke="#6B7279"/><polygon class="sidebar" transform="translate(0, 64.086625)" points="0,0 12,0 12,12" fill="#6B7279" visibility="visible"/><text font-size="8.086977293165468" fill="black"><tspan x="4" y="27.2933125">Search Open</tspan><tspan x="4" y="41.7933125">Websites/Domains</tspan></text></g></g><g class="subtechniques"><g class="subtechnique T1589.002" transform="translate(15, 128.17325)"><rect class="cell" height="64.086625" width="82.23561151079137" fill="#6baed6" stroke="#6B7279"/><rect class="cell" height="64.086625" width="3" transform="translate(-3, 0)" fill="#6B7279" stroke="#6B7279"/><text font-size="11.960181854516389" fill="black"><tspan x="4" y="28.2933125">Email</tspan><tspan x="4" y="42.7933125">Addresses</tspan></text></g><g class="subtechnique T1589.003" transform="translate(15, 192.25987500000002)"><rect class="cell" height="64.086625" width="82.23561151079137" fill="#6baed6" stroke="#6B7279"/><rect class="cell" height="64.086625" width="3" transform="translate(-3, 0)" fill="#6B7279" stroke="#6B7279"/><text font-size="12" fill="black"><tspan x="4" y="28.2933125">Employee</tspan><tspan x="4" y="42.7933125">Names</tspan></text></g><g class="subtechnique T1590.001" transform="translate(15, 320.433125)"><rect class="cell" height="64.086625" width="82.23561151079137" fill="#6baed6" stroke="#6B7279"/><rect class="cell" height="64.086625" width="3" transform="translate(-3, 0)" fill="#6B7279" stroke="#6B7279"/><text font-size="10.764163669064748" fill="black"><tspan x="4" y="28.2933125">Domain</tspan><tspan x="4" y="42.7933125">Properties</tspan></text></g><g class="subtechnique T1590.004" transform="translate(15, 384.51975000000004)"><rect class="cell" height="64.086625" width="82.23561151079137" fill="#6baed6" stroke="#6B7279"/><rect class="cell" height="64.086625" width="3" transform="translate(-3, 0)" fill="#6B7279" stroke="#6B7279"/><text font-size="12" fill="black"><tspan x="4" y="28.2933125">Network</tspan><tspan x="4" y="42.7933125">Topology</tspan></text></g><g class="subtechnique T1590.005" transform="translate(15, 448.606375)"><rect class="cell" height="64.086625" width="82.23561151079137" fill="#6baed6" stroke="#6B7279"/><rect class="cell" height="64.086625" width="3" transform="translate(-3, 0)" fill="#6B7279" stroke="#6B7279"/><text font-size="11.960181854516389" fill="black"><tspan x="4" y="28.2933125">IP</tspan><tspan x="4" y="42.7933125">Addresses</tspan></text></g><g class="subtechnique T1591.002" transform="translate(15, 576.779625)"><rect class="cell" height="64.086625" width="82.23561151079137" fill="#6baed6" stroke="#6B7279"/><rect class="cell" height="64.086625" width="3" transform="translate(-3, 0)" fill="#6B7279" stroke="#6B7279"/><text font-size="8.280125899280577" fill="black"><tspan x="4" y="27.2933125">Business</tspan><tspan x="4" y="41.7933125">Relationships</tspan></text></g><g class="subtechnique T1591.001" transform="translate(15, 640.86625)"><rect class="cell" height="64.086625" width="82.23561151079137" fill="#6baed6" stroke="#6B7279"/><rect class="cell" height="64.086625" width="3" transform="translate(-3, 0)" fill="#6B7279" stroke="#6B7279"/><text font-size="11.960181854516389" fill="black"><tspan x="4" y="20.87664583333333">Determine</tspan><tspan x="4" y="35.5433125">Physical</tspan><tspan x="4" y="50.20997916666666">Locations</tspan></text></g><g class="subtechnique T1591.004" transform="translate(15, 704.952875)"><rect class="cell" height="64.086625" width="82.23561151079137" fill="#6baed6" stroke="#6B7279"/><rect class="cell" height="64.086625" width="3" transform="translate(-3, 0)" fill="#6B7279" stroke="#6B7279"/><text font-size="12" fill="black"><tspan x="4" y="28.2933125">Identify</tspan><tspan x="4" y="42.7933125">Roles</tspan></text></g><g class="subtechnique T1593.001" transform="translate(15, 833.1261250000001)"><rect class="cell" height="64.086625" width="82.23561151079137" fill="#6baed6" stroke="#6B7279"/><rect class="cell" height="64.086625" width="3" transform="translate(-3, 0)" fill="#6B7279" stroke="#6B7279"/><text font-size="12" fill="black"><tspan x="4" y="28.2933125">Social</tspan><tspan x="4" y="42.7933125">Media</tspan></text></g><g class="subtechnique T1593.002" transform="translate(15, 897.21275)"><rect class="cell" height="64.086625" width="82.23561151079137" fill="#6baed6" stroke="#6B7279"/><rect class="cell" height="64.086625" width="3" transform="translate(-3, 0)" fill="#6B7279" stroke="#6B7279"/><text font-size="12" fill="black"><tspan x="4" y="28.2933125">Search</tspan><tspan x="4" y="42.7933125">Engines</tspan></text></g></g><g class="tactic-label"><text font-size="9.242259763617678" fill="black" font-weight="bold"><tspan text-anchor="middle" x="48.617805755395686" y="34.5433125">Reconnaissance</tspan></text></g></g><g class="tactic resource-development" transform="translate(108.03956834532374, 0)"><g class="techniques"><g class="technique T1587" transform="translate(0, 64.086625)"><rect class="cell" height="64.086625" width="97.23561151079137" fill="#6baed6" stroke="#6B7279"/><polygon class="sidebar" transform="translate(0, 64.086625)" points="0,0 12,0 12,12" fill="#6B7279" visibility="visible"/><text font-size="10.78263639088729" fill="black"><tspan x="4" y="28.2933125">Develop</tspan><tspan x="4" y="42.7933125">Capabilities</tspan></text></g><g class="technique T1588" transform="translate(0, 192.25987500000002)"><rect class="cell" height="64.086625" width="97.23561151079137" fill="#6baed6" stroke="#6B7279"/><polygon class="sidebar" transform="translate(0, 64.086625)" points="0,0 12,0 12,12" fill="#6B7279" visibility="visible"/><text font-size="10.78263639088729" fill="black"><tspan x="4" y="28.2933125">Obtain</tspan><tspan x="4" y="42.7933125">Capabilities</tspan></text></g></g><g class="subtechniques"><g class="subtechnique T1587.001" transform="translate(15, 128.17325)"><rect class="cell" height="64.086625" width="82.23561151079137" fill="#6baed6" stroke="#6B7279"/><rect class="cell" height="64.086625" width="3" transform="translate(-3, 0)" fill="#6B7279" stroke="#6B7279"/><text font-size="12" fill="black"><tspan x="4" y="35.5433125">Malware</tspan></text></g><g class="subtechnique T1588.001" transform="translate(15, 256.3465)"><rect class="cell" height="64.086625" width="82.23561151079137" fill="#6baed6" stroke="#6B7279"/><rect class="cell" height="64.086625" width="3" transform="translate(-3, 0)" fill="#6B7279" stroke="#6B7279"/><text font-size="12" fill="black"><tspan x="4" y="35.5433125">Malware</tspan></text></g></g><g class="tactic-label"><text font-size="11.762876062786136" fill="black" font-weight="bold"><tspan text-anchor="middle" x="48.617805755395686" y="28.2933125">Resource</tspan><tspan text-anchor="middle" x="48.617805755395686" y="42.7933125">Development</tspan></text></g></g><g class="tactic initial-access" transform="translate(216.0791366906475, 0)"><g class="techniques"><g class="technique T1566" transform="translate(0, 64.086625)"><rect class="cell" height="64.086625" width="97.23561151079137" fill="#e6d60d" stroke="#6B7279"/><polygon class="sidebar" transform="translate(0, 64.086625)" points="0,0 12,0 12,12" fill="#6B7279" visibility="visible"/><text font-size="12" fill="black"><tspan x="4" y="35.5433125">Phishing</tspan></text></g></g><g class="subtechniques"><g class="subtechnique T1566.001" transform="translate(15, 128.17325)"><rect class="cell" height="64.086625" width="82.23561151079137" fill="#e6d60d" stroke="#6B7279"/><rect class="cell" height="64.086625" width="3" transform="translate(-3, 0)" fill="#6B7279" stroke="#6B7279"/><text font-size="8.280125899280577" fill="black"><tspan x="4" y="27.2933125">Spearphishing</tspan><tspan x="4" y="41.7933125">Attachment</tspan></text></g></g><g class="tactic-label"><text font-size="12" fill="black" font-weight="bold"><tspan text-anchor="middle" x="48.617805755395686" y="28.2933125">Initial</tspan><tspan text-anchor="middle" x="48.617805755395686" y="42.7933125">Access</tspan></text></g></g><g class="tactic execution" transform="translate(324.11870503597123, 0)"><g class="techniques"><g class="technique T1059" transform="translate(0, 64.086625)"><rect class="cell" height="64.086625" width="97.23561151079137" fill="#fd8d3c" stroke="#6B7279"/><polygon class="sidebar" transform="translate(0, 64.086625)" points="0,0 12,0 12,12" fill="#6B7279" visibility="visible"/><text font-size="11.762876062786136" fill="black"><tspan x="4" y="20.87664583333333">Command and</tspan><tspan x="4" y="35.5433125">Scripting</tspan><tspan x="4" y="50.20997916666666">Interpreter</tspan></text></g><g class="technique T1204" transform="translate(0, 192.25987500000002)"><rect class="cell" height="64.086625" width="97.23561151079137" fill="#fd8d3c" stroke="#6B7279"/><polygon class="sidebar" transform="translate(0, 64.086625)" points="0,0 12,0 12,12" fill="#6B7279" visibility="visible"/><text font-size="12" fill="black"><tspan x="4" y="28.2933125">User</tspan><tspan x="4" y="42.7933125">Execution</tspan></text></g></g><g class="subtechniques"><g class="subtechnique T1059.005" transform="translate(15, 128.17325)"><rect class="cell" height="64.086625" width="82.23561151079137" fill="#fd8d3c" stroke="#6B7279"/><rect class="cell" height="64.086625" width="3" transform="translate(-3, 0)" fill="#6B7279" stroke="#6B7279"/><text font-size="12" fill="black"><tspan x="4" y="28.2933125">Visual</tspan><tspan x="4" y="42.7933125">Basic</tspan></text></g><g class="subtechnique T1204.002" transform="translate(15, 256.3465)"><rect class="cell" height="64.086625" width="82.23561151079137" fill="#fd8d3c" stroke="#6B7279"/><rect class="cell" height="64.086625" width="3" transform="translate(-3, 0)" fill="#6B7279" stroke="#6B7279"/><text font-size="11.960181854516389" fill="black"><tspan x="4" y="28.2933125">Malicious</tspan><tspan x="4" y="42.7933125">File</tspan></text></g></g><g class="tactic-label"><text font-size="12" fill="black" font-weight="bold"><tspan text-anchor="middle" x="48.617805755395686" y="35.5433125">Execution</tspan></text></g></g><g class="tactic persistence" transform="translate(432.158273381295, 0)"><g class="techniques"><g class="technique T1136" transform="translate(0, 64.086625)"><rect class="cell" height="64.086625" width="97.23561151079137" fill="#fd8d3c" stroke="#6B7279"/><polygon class="sidebar" transform="translate(0, 64.086625)" points="0,0 12,0 12,12" fill="#6B7279" visibility="visible"/><text font-size="12" fill="black"><tspan x="4" y="28.2933125">Create</tspan><tspan x="4" y="42.7933125">Account</tspan></text></g><g class="technique T1543" transform="translate(0, 192.25987500000002)"><rect class="cell" height="64.086625" width="97.23561151079137" fill="#fd8d3c" stroke="#6B7279"/><polygon class="sidebar" transform="translate(0, 64.086625)" points="0,0 12,0 12,12" fill="#6B7279" visibility="visible"/><text font-size="12" fill="black"><tspan x="4" y="13.418312499999999">Create</tspan><tspan x="4" y="28.1683125">or Modify</tspan><tspan x="4" y="42.9183125">System</tspan><tspan x="4" y="57.6683125">Process</tspan></text></g><g class="technique T1133" transform="translate(0, 320.433125)"><rect class="cell" height="64.086625" width="97.23561151079137" fill="#fd8d3c" stroke="#6B7279"/><polygon class="sidebar" transform="translate(0, 64.086625)" points="0,0 12,0 12,0" fill="#6B7279" visibility="hidden"/><text font-size="12" fill="black"><tspan x="4" y="20.87664583333333">External</tspan><tspan x="4" y="35.5433125">Remote</tspan><tspan x="4" y="50.20997916666666">Services</tspan></text></g><g class="technique T1137" transform="translate(0, 384.51975000000004)"><rect class="cell" height="64.086625" width="97.23561151079137" fill="#fd8d3c" stroke="#6B7279"/><polygon class="sidebar" transform="translate(0, 64.086625)" points="0,0 12,0 12,12" fill="#6B7279" visibility="visible"/><text font-size="11.762876062786136" fill="black"><tspan x="4" y="20.87664583333333">Office</tspan><tspan x="4" y="35.5433125">Application</tspan><tspan x="4" y="50.20997916666666">Startup</tspan></text></g></g><g class="subtechniques"><g class="subtechnique T1136.002" transform="translate(15, 128.17325)"><rect class="cell" height="64.086625" width="82.23561151079137" fill="#fd8d3c" stroke="#6B7279"/><rect class="cell" height="64.086625" width="3" transform="translate(-3, 0)" fill="#6B7279" stroke="#6B7279"/><text font-size="12" fill="black"><tspan x="4" y="28.2933125">Domain</tspan><tspan x="4" y="42.7933125">Account</tspan></text></g><g class="subtechnique T1543.003" transform="translate(15, 256.3465)"><rect class="cell" height="64.086625" width="82.23561151079137" fill="#fd8d3c" stroke="#6B7279"/><rect class="cell" height="64.086625" width="3" transform="translate(-3, 0)" fill="#6B7279" stroke="#6B7279"/><text font-size="12" fill="black"><tspan x="4" y="28.2933125">Windows</tspan><tspan x="4" y="42.7933125">Service</tspan></text></g><g class="subtechnique T1137.001" transform="translate(15, 448.606375)"><rect class="cell" height="64.086625" width="82.23561151079137" fill="#fd8d3c" stroke="#6B7279"/><rect class="cell" height="64.086625" width="3" transform="translate(-3, 0)" fill="#6B7279" stroke="#6B7279"/><text font-size="12" fill="black"><tspan x="4" y="20.87664583333333">Office</tspan><tspan x="4" y="35.5433125">Template</tspan><tspan x="4" y="50.20997916666666">Macros</tspan></text></g></g><g class="tactic-label"><text font-size="11.762876062786136" fill="black" font-weight="bold"><tspan text-anchor="middle" x="48.617805755395686" y="35.5433125">Persistence</tspan></text></g></g><g class="tactic privilege-escalation" transform="translate(540.1978417266187, 0)"><g class="techniques"><g class="technique T1078" transform="translate(0, 64.086625)"><rect class="cell" height="64.086625" width="97.23561151079137" fill="#fc6b6b" stroke="#6B7279"/><polygon class="sidebar" transform="translate(0, 64.086625)" points="0,0 12,0 12,12" fill="#6B7279" visibility="visible"/><text font-size="12" fill="black"><tspan x="4" y="28.2933125">Valid</tspan><tspan x="4" y="42.7933125">Accounts</tspan></text></g></g><g class="subtechniques"><g class="subtechnique T1078.002" transform="translate(15, 128.17325)"><rect class="cell" height="64.086625" width="82.23561151079137" fill="#fc6b6b" stroke="#6B7279"/><rect class="cell" height="64.086625" width="3" transform="translate(-3, 0)" fill="#6B7279" stroke="#6B7279"/><text font-size="12" fill="black"><tspan x="4" y="28.2933125">Domain</tspan><tspan x="4" y="42.7933125">Accounts</tspan></text></g><g class="subtechnique T1078.003" transform="translate(15, 192.25987500000002)"><rect class="cell" height="64.086625" width="82.23561151079137" fill="#fc6b6b" stroke="#6B7279"/><rect class="cell" height="64.086625" width="3" transform="translate(-3, 0)" fill="#6B7279" stroke="#6B7279"/><text font-size="12" fill="black"><tspan x="4" y="28.2933125">Local</tspan><tspan x="4" y="42.7933125">Accounts</tspan></text></g></g><g class="tactic-label"><text font-size="12" fill="black" font-weight="bold"><tspan text-anchor="middle" x="48.617805755395686" y="28.2933125">Privilege</tspan><tspan text-anchor="middle" x="48.617805755395686" y="42.7933125">Escalation</tspan></text></g></g><g class="tactic defense-evasion" transform="translate(648.2374100719425, 0)"><g class="techniques"><g class="technique T1112" transform="translate(0, 64.086625)"><rect class="cell" height="64.086625" width="97.23561151079137" fill="#fc6b6b" stroke="#6B7279"/><polygon class="sidebar" transform="translate(0, 64.086625)" points="0,0 12,0 12,0" fill="#6B7279" visibility="hidden"/><text font-size="12" fill="black"><tspan x="4" y="28.2933125">Modify</tspan><tspan x="4" y="42.7933125">Registry</tspan></text></g><g class="technique T1078" transform="translate(0, 128.17325)"><rect class="cell" height="64.086625" width="97.23561151079137" fill="#fd8d3c" stroke="#6B7279"/><polygon class="sidebar" transform="translate(0, 64.086625)" points="0,0 12,0 12,12" fill="#6B7279" visibility="visible"/><text font-size="12" fill="black"><tspan x="4" y="28.2933125">Valid</tspan><tspan x="4" y="42.7933125">Accounts</tspan></text></g></g><g class="subtechniques"><g class="subtechnique T1078.002" transform="translate(15, 192.25987500000002)"><rect class="cell" height="64.086625" width="82.23561151079137" fill="#fd8d3c" stroke="#6B7279"/><rect class="cell" height="64.086625" width="3" transform="translate(-3, 0)" fill="#6B7279" stroke="#6B7279"/><text font-size="12" fill="black"><tspan x="4" y="28.2933125">Domain</tspan><tspan x="4" y="42.7933125">Accounts</tspan></text></g><g class="subtechnique T1078.003" transform="translate(15, 256.3465)"><rect class="cell" height="64.086625" width="82.23561151079137" fill="#fd8d3c" stroke="#6B7279"/><rect class="cell" height="64.086625" width="3" transform="translate(-3, 0)" fill="#6B7279" stroke="#6B7279"/><text font-size="12" fill="black"><tspan x="4" y="28.2933125">Local</tspan><tspan x="4" y="42.7933125">Accounts</tspan></text></g></g><g class="tactic-label"><text font-size="12" fill="black" font-weight="bold"><tspan text-anchor="middle" x="48.617805755395686" y="28.2933125">Defense</tspan><tspan text-anchor="middle" x="48.617805755395686" y="42.7933125">Evasion</tspan></text></g></g><g class="tactic credential-access" transform="translate(756.2769784172663, 0)"><g class="techniques"><g class="technique T1555" transform="translate(0, 64.086625)"><rect class="cell" height="64.086625" width="97.23561151079137" fill="#fc6b6b" stroke="#6B7279"/><polygon class="sidebar" transform="translate(0, 64.086625)" points="0,0 12,0 12,12" fill="#6B7279" visibility="hidden"/><text font-size="11.762876062786136" fill="black"><tspan x="4" y="13.418312499999999">Credentials</tspan><tspan x="4" y="28.1683125">from</tspan><tspan x="4" y="42.9183125">Password</tspan><tspan x="4" y="57.6683125">Stores</tspan></text></g><g class="technique T1056" transform="translate(0, 128.17325)"><rect class="cell" height="64.086625" width="97.23561151079137" fill="#fc6b6b" stroke="#6B7279"/><polygon class="sidebar" transform="translate(0, 64.086625)" points="0,0 12,0 12,12" fill="#6B7279" visibility="visible"/><text font-size="12" fill="black"><tspan x="4" y="28.2933125">Input</tspan><tspan x="4" y="42.7933125">Capture</tspan></text></g></g><g class="subtechniques"><g class="subtechnique T1056.001" transform="translate(15, 192.25987500000002)"><rect class="cell" height="64.086625" width="82.23561151079137" fill="#fc6b6b" stroke="#6B7279"/><rect class="cell" height="64.086625" width="3" transform="translate(-3, 0)" fill="#6B7279" stroke="#6B7279"/><text font-size="10.764163669064748" fill="black"><tspan x="4" y="35.5433125">Keylogging</tspan></text></g></g><g class="tactic-label"><text font-size="12" fill="black" font-weight="bold"><tspan text-anchor="middle" x="48.617805755395686" y="28.2933125">Credential</tspan><tspan text-anchor="middle" x="48.617805755395686" y="42.7933125">Access</tspan></text></g></g><g class="tactic discovery" transform="translate(864.31654676259, 0)"><g class="techniques"><g class="technique T1046" transform="translate(0, 64.086625)"><rect class="cell" height="64.086625" width="97.23561151079137" fill="#6baed6" stroke="#6B7279"/><polygon class="sidebar" transform="translate(0, 64.086625)" points="0,0 12,0 12,0" fill="#6B7279" visibility="hidden"/><text font-size="12" fill="black"><tspan x="4" y="20.87664583333333">Network</tspan><tspan x="4" y="35.5433125">Service</tspan><tspan x="4" y="50.20997916666666">Scanning</tspan></text></g><g class="technique T1135" transform="translate(0, 128.17325)"><rect class="cell" height="64.086625" width="97.23561151079137" fill="#6baed6" stroke="#6B7279"/><polygon class="sidebar" transform="translate(0, 64.086625)" points="0,0 12,0 12,0" fill="#6B7279" visibility="hidden"/><text font-size="12" fill="black"><tspan x="4" y="20.87664583333333">Network</tspan><tspan x="4" y="35.5433125">Share</tspan><tspan x="4" y="50.20997916666666">Discovery</tspan></text></g><g class="technique T1018" transform="translate(0, 192.25987500000002)"><rect class="cell" height="64.086625" width="97.23561151079137" fill="#6baed6" stroke="#6B7279"/><polygon class="sidebar" transform="translate(0, 64.086625)" points="0,0 12,0 12,0" fill="#6B7279" visibility="hidden"/><text font-size="12" fill="black"><tspan x="4" y="20.87664583333333">Remote</tspan><tspan x="4" y="35.5433125">System</tspan><tspan x="4" y="50.20997916666666">Discovery</tspan></text></g><g class="technique T1016" transform="translate(0, 256.3465)"><rect class="cell" height="64.086625" width="97.23561151079137" fill="#6baed6" stroke="#6B7279"/><polygon class="sidebar" transform="translate(0, 64.086625)" points="0,0 12,0 12,12" fill="#6B7279" visibility="visible"/><text font-size="9.953202822357499" fill="black"><tspan x="4" y="12.418312499999999">System</tspan><tspan x="4" y="27.1683125">Network</tspan><tspan x="4" y="41.9183125">Configuration</tspan><tspan x="4" y="56.6683125">Discovery</tspan></text></g><g class="technique T1049" transform="translate(0, 384.51975000000004)"><rect class="cell" height="64.086625" width="97.23561151079137" fill="#6baed6" stroke="#6B7279"/><polygon class="sidebar" transform="translate(0, 64.086625)" points="0,0 12,0 12,0" fill="#6B7279" visibility="hidden"/><text font-size="11.762876062786136" fill="black"><tspan x="4" y="13.418312499999999">System</tspan><tspan x="4" y="28.1683125">Network</tspan><tspan x="4" y="42.9183125">Connections</tspan><tspan x="4" y="57.6683125">Discovery</tspan></text></g></g><g class="subtechniques"><g class="subtechnique T1016.001" transform="translate(15, 320.433125)"><rect class="cell" height="64.086625" width="82.23561151079137" fill="#6baed6" stroke="#6B7279"/><rect class="cell" height="64.086625" width="3" transform="translate(-3, 0)" fill="#6B7279" stroke="#6B7279"/><text font-size="10.764163669064748" fill="black"><tspan x="4" y="20.87664583333333">Internet</tspan><tspan x="4" y="35.5433125">Connection</tspan><tspan x="4" y="50.20997916666666">Discovery</tspan></text></g></g><g class="tactic-label"><text font-size="12" fill="black" font-weight="bold"><tspan text-anchor="middle" x="48.617805755395686" y="35.5433125">Discovery</tspan></text></g></g><g class="tactic lateral-movement" transform="translate(972.3561151079136, 0)"><g class="techniques"><g class="technique T1570" transform="translate(0, 64.086625)"><rect class="cell" height="64.086625" width="97.23561151079137" fill="#fd8d3c" stroke="#6B7279"/><polygon class="sidebar" transform="translate(0, 64.086625)" points="0,0 12,0 12,0" fill="#6B7279" visibility="hidden"/><text font-size="12" fill="black"><tspan x="4" y="20.87664583333333">Lateral</tspan><tspan x="4" y="35.5433125">Tool</tspan><tspan x="4" y="50.20997916666666">Transfer</tspan></text></g><g class="technique T1021" transform="translate(0, 128.17325)"><rect class="cell" height="64.086625" width="97.23561151079137" fill="#fc6b6b" stroke="#6B7279"/><polygon class="sidebar" transform="translate(0, 64.086625)" points="0,0 12,0 12,12" fill="#6B7279" visibility="visible"/><text font-size="12" fill="black"><tspan x="4" y="28.2933125">Remote</tspan><tspan x="4" y="42.7933125">Services</tspan></text></g></g><g class="subtechniques"><g class="subtechnique T1021.006" transform="translate(15, 192.25987500000002)"><rect class="cell" height="64.086625" width="82.23561151079137" fill="#fc6b6b" stroke="#6B7279"/><rect class="cell" height="64.086625" width="3" transform="translate(-3, 0)" fill="#6B7279" stroke="#6B7279"/><text font-size="10.764163669064748" fill="black"><tspan x="4" y="20.87664583333333">Windows</tspan><tspan x="4" y="35.5433125">Remote</tspan><tspan x="4" y="50.20997916666666">Management</tspan></text></g></g><g class="tactic-label"><text font-size="12" fill="black" font-weight="bold"><tspan text-anchor="middle" x="48.617805755395686" y="28.2933125">Lateral</tspan><tspan text-anchor="middle" x="48.617805755395686" y="42.7933125">Movement</tspan></text></g></g><g class="tactic collection" transform="translate(1080.3956834532373, 0)"><g class="techniques"><g class="technique T1056" transform="translate(0, 64.086625)"><rect class="cell" height="64.086625" width="97.23561151079137" fill="#fc6b6b" stroke="#6B7279"/><polygon class="sidebar" transform="translate(0, 64.086625)" points="0,0 12,0 12,12" fill="#6B7279" visibility="visible"/><text font-size="12" fill="black"><tspan x="4" y="28.2933125">Input</tspan><tspan x="4" y="42.7933125">Capture</tspan></text></g></g><g class="subtechniques"><g class="subtechnique T1056.001" transform="translate(15, 128.17325)"><rect class="cell" height="64.086625" width="82.23561151079137" fill="#fc6b6b" stroke="#6B7279"/><rect class="cell" height="64.086625" width="3" transform="translate(-3, 0)" fill="#6B7279" stroke="#6B7279"/><text font-size="10.764163669064748" fill="black"><tspan x="4" y="35.5433125">Keylogging</tspan></text></g></g><g class="tactic-label"><text font-size="12" fill="black" font-weight="bold"><tspan text-anchor="middle" x="48.617805755395686" y="35.5433125">Collection</tspan></text></g></g><g class="tactic command-and-control" transform="translate(1188.4352517985612, 0)"><g class="techniques"><g class="technique T1071" transform="translate(0, 64.086625)"><rect class="cell" height="64.086625" width="97.23561151079137" fill="#fc6b6b" stroke="#6B7279"/><polygon class="sidebar" transform="translate(0, 64.086625)" points="0,0 12,0 12,12" fill="#6B7279" visibility="visible"/><text font-size="11.762876062786136" fill="black"><tspan x="4" y="20.87664583333333">Application</tspan><tspan x="4" y="35.5433125">Layer</tspan><tspan x="4" y="50.20997916666666">Protocol</tspan></text></g><g class="technique T1105" transform="translate(0, 192.25987500000002)"><rect class="cell" height="64.086625" width="97.23561151079137" fill="#9e9ac8" stroke="#6B7279"/><polygon class="sidebar" transform="translate(0, 64.086625)" points="0,0 12,0 12,0" fill="#6B7279" visibility="hidden"/><text font-size="12" fill="black"><tspan x="4" y="20.87664583333333">Ingress</tspan><tspan x="4" y="35.5433125">Tool</tspan><tspan x="4" y="50.20997916666666">Transfer</tspan></text></g></g><g class="subtechniques"><g class="subtechnique T1071.001" transform="translate(15, 128.17325)"><rect class="cell" height="64.086625" width="82.23561151079137" fill="#fc6b6b" stroke="#6B7279"/><rect class="cell" height="64.086625" width="3" transform="translate(-3, 0)" fill="#6B7279" stroke="#6B7279"/><text font-size="11.960181854516389" fill="black"><tspan x="4" y="28.2933125">Web</tspan><tspan x="4" y="42.7933125">Protocols</tspan></text></g></g><g class="tactic-label"><text font-size="12" fill="black" font-weight="bold"><tspan text-anchor="middle" x="48.617805755395686" y="20.87664583333333">Command</tspan><tspan text-anchor="middle" x="48.617805755395686" y="35.5433125">and</tspan><tspan text-anchor="middle" x="48.617805755395686" y="50.20997916666666">Control</tspan></text></g></g><g class="tactic exfiltration" transform="translate(1296.474820143885, 0)"><g class="techniques"><g class="technique T1041" transform="translate(0, 64.086625)"><rect class="cell" height="64.086625" width="97.23561151079137" fill="#9e9ac8" stroke="#6B7279"/><polygon class="sidebar" transform="translate(0, 64.086625)" points="0,0 12,0 12,0" fill="#6B7279" visibility="hidden"/><text font-size="10.78263639088729" fill="black"><tspan x="4" y="20.87664583333333">Exfiltration</tspan><tspan x="4" y="35.5433125">Over</tspan><tspan x="4" y="50.20997916666666">C2 Channel</tspan></text></g></g><g class="subtechniques"/><g class="tactic-label"><text font-size="10.78263639088729" fill="black" font-weight="bold"><tspan text-anchor="middle" x="48.617805755395686" y="35.5433125">Exfiltration</tspan></text></g></g><g class="tactic impact" transform="translate(1404.5143884892086, 0)"><g class="techniques"><g class="technique T1485" transform="translate(0, 64.086625)"><rect class="cell" height="64.086625" width="97.23561151079137" fill="#fc6b6b" stroke="#6B7279"/><polygon class="sidebar" transform="translate(0, 64.086625)" points="0,0 12,0 12,0" fill="#6B7279" visibility="hidden"/><text font-size="11.762876062786136" fill="black"><tspan x="4" y="28.2933125">Data</tspan><tspan x="4" y="42.7933125">Destruction</tspan></text></g><g class="technique T1561" transform="translate(0, 128.17325)"><rect class="cell" height="64.086625" width="97.23561151079137" fill="#fc6b6b" stroke="#6B7279"/><polygon class="sidebar" transform="translate(0, 64.086625)" points="0,0 12,0 12,12" fill="#6B7279" visibility="visible"/><text font-size="12" fill="black"><tspan x="4" y="35.5433125">Disk Wipe</tspan></text></g><g class="technique T1499" transform="translate(0, 256.3465)"><rect class="cell" height="64.086625" width="97.23561151079137" fill="#fc6b6b" stroke="#6B7279"/><polygon class="sidebar" transform="translate(0, 64.086625)" points="0,0 12,0 12,12" fill="#6B7279" visibility="visible"/><text font-size="12" fill="black"><tspan x="4" y="20.87664583333333">Endpoint</tspan><tspan x="4" y="35.5433125">Denial</tspan><tspan x="4" y="50.20997916666666">of Service</tspan></text></g><g class="technique T1529" transform="translate(0, 384.51975000000004)"><rect class="cell" height="64.086625" width="97.23561151079137" fill="#fc6b6b" stroke="#6B7279"/><polygon class="sidebar" transform="translate(0, 64.086625)" points="0,0 12,0 12,0" fill="#6B7279" visibility="hidden"/><text font-size="8.626109112709832" fill="black"><tspan x="4" y="27.2933125">System</tspan><tspan x="4" y="41.7933125">Shutdown/Reboot</tspan></text></g></g><g class="subtechniques"><g class="subtechnique T1561.002" transform="translate(15, 192.25987500000002)"><rect class="cell" height="64.086625" width="82.23561151079137" fill="#fc6b6b" stroke="#6B7279"/><rect class="cell" height="64.086625" width="3" transform="translate(-3, 0)" fill="#6B7279" stroke="#6B7279"/><text font-size="11.960181854516389" fill="black"><tspan x="4" y="20.87664583333333">Disk</tspan><tspan x="4" y="35.5433125">Structure</tspan><tspan x="4" y="50.20997916666666">Wipe</tspan></text></g><g class="subtechnique T1499.002" transform="translate(15, 320.433125)"><rect class="cell" height="64.086625" width="82.23561151079137" fill="#fc6b6b" stroke="#6B7279"/><rect class="cell" height="64.086625" width="3" transform="translate(-3, 0)" fill="#6B7279" stroke="#6B7279"/><text font-size="10.764163669064748" fill="black"><tspan x="4" y="20.87664583333333">Service</tspan><tspan x="4" y="35.5433125">Exhaustion</tspan><tspan x="4" y="50.20997916666666">Flood</tspan></text></g></g><g class="tactic-label"><text font-size="12" fill="black" font-weight="bold"><tspan text-anchor="middle" x="48.617805755395686" y="35.5433125">Impact</tspan></text></g></g></g><g transform="translate(113.38125000000001, 642.4937500000001)"><g transform="translate(0,5)"><rect class="header-box" width="1133.8125" height="39.13187500000001" stroke="black" fill="white" rx="5"/><rect class="label-cover" x="8" y="-9.666666984558105" width="40.04166793823242" height="17.33333396911621" fill="white" rx="5"/><text class="header-box-label" x="10" font-size="12" y="3">legend</text><g class="header-box-content" transform="translate(5, 0)"><g transform="translate(0, 1.8634226190476184)"><g transform="translate(0, 5)"><g class="legendCells"><g class="cell" transform="translate(0,0)"><rect class="swatch" height="15" width="224.7625" style="fill: rgb(107, 174, 214);"/><text class="label" transform="translate(112.3812484741211,&#10;          25)" style="text-anchor: middle;">Pre-attack/inf. gath.</text></g><g class="cell" transform="translate(224.7624969482422,0)"><rect class="swatch" height="15" width="224.7625" style="fill: rgb(252, 242, 107);"/><text class="label" transform="translate(112.3812484741211,&#10;          25)" style="text-anchor: middle;">Initial Foothold</text></g><g class="cell" transform="translate(449.5249938964844,0)"><rect class="swatch" height="15" width="224.7625" style="fill: rgb(253, 141, 60);"/><text class="label" transform="translate(112.3812484741211,&#10;          25)" style="text-anchor: middle;">Persistence</text></g><g class="cell" transform="translate(674.2874908447266,0)"><rect class="swatch" height="15" width="224.7625" style="fill: rgb(158, 154, 200);"/><text class="label" transform="translate(112.3812484741211,&#10;          25)" style="text-anchor: middle;">C2 actions</text></g><g class="cell" transform="translate(899.0499877929688,0)"><rect class="swatch" height="15" width="224.7625" style="fill: rgb(252, 107, 107);"/><text class="label" transform="translate(112.3812484741211,&#10;          25)" style="text-anchor: middle;">Exploitation</text></g></g></g></g></g></g></g></g></g></svg>