<?xml version="1.0" standalone="no"?>
<svg width="1279.96093125" height="719.9709375000001" xmlns="http://www.w3.org/2000/svg" id="svgvm1"><g transform="translate(5,5)" style="font-family: sans-serif;"><g><g><g transform="translate(0,5)"><rect class="header-box" width="1269.96093125" height="39.13187500000001" stroke="black" fill="white" rx="5"/><rect class="label-cover" x="8" y="-9.666666984558105" width="34.6953125" height="17.33333396911621" fill="white" rx="5"/><text class="header-box-label" x="10" font-size="12" y="3">about</text><g class="header-box-content" transform="translate(5, 0)"><g transform="translate(0, 0.9544359756097549)"><text font-size="14.507426829268296"><tspan x="4" y="13.567141768292684">ICS</tspan></text><line x1="0" x2="1259.96093125" y1="18.134283536585368" y2="18.134283536585368" stroke="#dddddd"/></g><g transform="translate(0, 20.04315548780488)"><text font-size="14.507426829268296"><tspan x="4" y="13.567141768292684">ICS TTPs used in 2015 Ukraine Power Grid attack</tspan></text></g></g></g></g></g><g transform="translate(0,50.13187500000001)"><g><g class="tactic initial-access-ics" transform="translate(0, 0)"><g class="techniques"><g class="technique T0817" transform="translate(0, 47.20279017857143)"><rect class="cell" height="47.20279017857143" width="96.04746538865545" fill="white" stroke="#6B7279"/><polygon class="sidebar" transform="translate(0, 47.20279017857143)" points="0,0 12,0 12,0" fill="#6B7279" visibility="hidden"/><text font-size="12" fill="#aaaaaa"><tspan x="4" y="19.851395089285717">Drive-by</tspan><tspan x="4" y="34.35139508928572">Compromise</tspan></text></g><g class="technique T0819" transform="translate(0, 94.40558035714287)"><rect class="cell" height="47.20279017857143" width="96.04746538865545" fill="white" stroke="#6B7279"/><polygon class="sidebar" transform="translate(0, 47.20279017857143)" points="0,0 12,0 12,0" fill="#6B7279" visibility="hidden"/><text font-size="9.82067883181157" fill="#aaaaaa"><tspan x="4" y="11.434728422619049">Exploit</tspan><tspan x="4" y="26.101395089285717">Public-Facing</tspan><tspan x="4" y="40.76806175595238">Application</tspan></text></g><g class="technique T0866" transform="translate(0, 141.6083705357143)"><rect class="cell" height="47.20279017857143" width="96.04746538865545" fill="white" stroke="#6B7279"/><polygon class="sidebar" transform="translate(0, 47.20279017857143)" points="0,0 12,0 12,0" fill="#6B7279" visibility="hidden"/><text font-size="10.639068734462533" fill="#aaaaaa"><tspan x="4" y="12.434728422619049">Exploitation</tspan><tspan x="4" y="27.101395089285717">of Remote</tspan><tspan x="4" y="41.76806175595238">Services</tspan></text></g><g class="technique T0822" transform="translate(0, 188.81116071428573)"><rect class="cell" height="47.20279017857143" width="96.04746538865545" fill="#e6d60d" stroke="#6B7279"/><polygon class="sidebar" transform="translate(0, 47.20279017857143)" points="0,0 12,0 12,0" fill="#6B7279" visibility="hidden"/><text font-size="12" fill="black"><tspan x="4" y="12.434728422619049">External</tspan><tspan x="4" y="27.101395089285717">Remote</tspan><tspan x="4" y="41.76806175595238">Services</tspan></text></g><g class="technique T0883" transform="translate(0, 236.01395089285717)"><rect class="cell" height="47.20279017857143" width="96.04746538865545" fill="white" stroke="#6B7279"/><polygon class="sidebar" transform="translate(0, 47.20279017857143)" points="0,0 12,0 12,0" fill="#6B7279" visibility="hidden"/><text font-size="12" fill="#aaaaaa"><tspan x="4" y="12.434728422619049">Internet</tspan><tspan x="4" y="27.101395089285717">Accessible</tspan><tspan x="4" y="41.76806175595238">Device</tspan></text></g><g class="technique T0886" transform="translate(0, 283.2167410714286)"><rect class="cell" height="47.20279017857143" width="96.04746538865545" fill="#e6d60d" stroke="#6B7279"/><polygon class="sidebar" transform="translate(0, 47.20279017857143)" points="0,0 12,0 12,0" fill="#6B7279" visibility="hidden"/><text font-size="12" fill="black"><tspan x="4" y="19.851395089285717">Remote</tspan><tspan x="4" y="34.35139508928572">Services</tspan></text></g><g class="technique T0847" transform="translate(0, 330.41953125000003)"><rect class="cell" height="47.20279017857143" width="96.04746538865545" fill="white" stroke="#6B7279"/><polygon class="sidebar" transform="translate(0, 47.20279017857143)" points="0,0 12,0 12,0" fill="#6B7279" visibility="hidden"/><text font-size="9.440558035714288" fill="#aaaaaa"><tspan x="4" y="8.77534877232143">Replication</tspan><tspan x="4" y="20.326046316964288">Through</tspan><tspan x="4" y="31.876743861607146">Removable</tspan><tspan x="4" y="43.427441406250004">Media</tspan></text></g><g class="technique T0848" transform="translate(0, 377.62232142857147)"><rect class="cell" height="47.20279017857143" width="96.04746538865545" fill="white" stroke="#6B7279"/><polygon class="sidebar" transform="translate(0, 47.20279017857143)" points="0,0 12,0 12,0" fill="#6B7279" visibility="hidden"/><text font-size="12" fill="#aaaaaa"><tspan x="4" y="19.851395089285717">Rogue</tspan><tspan x="4" y="34.35139508928572">Master</tspan></text></g><g class="technique T0865" transform="translate(0, 424.82511160714296)"><rect class="cell" height="47.20279017857143" width="96.04746538865545" fill="white" stroke="#6B7279"/><polygon class="sidebar" transform="translate(0, 47.20279017857143)" points="0,0 12,0 12,0" fill="#6B7279" visibility="hidden"/><text font-size="9.82067883181157" fill="#aaaaaa"><tspan x="4" y="18.851395089285717">Spearphishing</tspan><tspan x="4" y="33.35139508928572">Attachment</tspan></text></g><g class="technique T0862" transform="translate(0, 472.02790178571433)"><rect class="cell" height="47.20279017857143" width="96.04746538865545" fill="white" stroke="#6B7279"/><polygon class="sidebar" transform="translate(0, 47.20279017857143)" points="0,0 12,0 12,0" fill="#6B7279" visibility="hidden"/><text font-size="12" fill="#aaaaaa"><tspan x="4" y="12.434728422619049">Supply</tspan><tspan x="4" y="27.101395089285717">Chain</tspan><tspan x="4" y="41.76806175595238">Compromise</tspan></text></g><g class="technique T0864" transform="translate(0, 519.2306919642857)"><rect class="cell" height="47.20279017857143" width="96.04746538865545" fill="white" stroke="#6B7279"/><polygon class="sidebar" transform="translate(0, 47.20279017857143)" points="0,0 12,0 12,0" fill="#6B7279" visibility="hidden"/><text font-size="12" fill="#aaaaaa"><tspan x="4" y="12.434728422619049">Transient</tspan><tspan x="4" y="27.101395089285717">Cyber</tspan><tspan x="4" y="41.76806175595238">Asset</tspan></text></g><g class="technique T0860" transform="translate(0, 566.4334821428572)"><rect class="cell" height="47.20279017857143" width="96.04746538865545" fill="white" stroke="#6B7279"/><polygon class="sidebar" transform="translate(0, 47.20279017857143)" points="0,0 12,0 12,0" fill="#6B7279" visibility="hidden"/><text font-size="12" fill="#aaaaaa"><tspan x="4" y="19.851395089285717">Wireless</tspan><tspan x="4" y="34.35139508928572">Compromise</tspan></text></g></g><g class="subtechniques"/><g class="tactic-label"><text font-size="12" fill="black" font-weight="bold"><tspan text-anchor="middle" x="48.02373269432773" y="19.851395089285717">Initial</tspan><tspan text-anchor="middle" x="48.02373269432773" y="34.35139508928572">Access</tspan></text></g></g><g class="tactic execution-ics" transform="translate(106.71940598739495, 0)"><g class="techniques"><g class="technique T0858" transform="translate(0, 47.20279017857143)"><rect class="cell" height="47.20279017857143" width="96.04746538865545" fill="white" stroke="#6B7279"/><polygon class="sidebar" transform="translate(0, 47.20279017857143)" points="0,0 12,0 12,0" fill="#6B7279" visibility="hidden"/><text font-size="12" fill="#aaaaaa"><tspan x="4" y="12.434728422619049">Change</tspan><tspan x="4" y="27.101395089285717">Operating</tspan><tspan x="4" y="41.76806175595238">Mode</tspan></text></g><g class="technique T0807" transform="translate(0, 94.40558035714287)"><rect class="cell" height="47.20279017857143" width="96.04746538865545" fill="#fc6b6b" stroke="#6B7279"/><polygon class="sidebar" transform="translate(0, 47.20279017857143)" points="0,0 12,0 12,0" fill="#6B7279" visibility="hidden"/><text font-size="10.639068734462533" fill="black"><tspan x="4" y="19.851395089285717">Command-Line</tspan><tspan x="4" y="34.35139508928572">Interface</tspan></text></g><g class="technique T0871" transform="translate(0, 141.6083705357143)"><rect class="cell" height="47.20279017857143" width="96.04746538865545" fill="white" stroke="#6B7279"/><polygon class="sidebar" transform="translate(0, 47.20279017857143)" points="0,0 12,0 12,0" fill="#6B7279" visibility="hidden"/><text font-size="12" fill="#aaaaaa"><tspan x="4" y="12.434728422619049">Execution</tspan><tspan x="4" y="27.101395089285717">through</tspan><tspan x="4" y="41.76806175595238">API</tspan></text></g><g class="technique T0823" transform="translate(0, 188.81116071428573)"><rect class="cell" height="47.20279017857143" width="96.04746538865545" fill="#fc6b6b" stroke="#6B7279"/><polygon class="sidebar" transform="translate(0, 47.20279017857143)" points="0,0 12,0 12,0" fill="#6B7279" visibility="hidden"/><text font-size="12" fill="black"><tspan x="4" y="12.434728422619049">Graphical</tspan><tspan x="4" y="27.101395089285717">User</tspan><tspan x="4" y="41.76806175595238">Interface</tspan></text></g><g class="technique T0874" transform="translate(0, 236.01395089285717)"><rect class="cell" height="47.20279017857143" width="96.04746538865545" fill="white" stroke="#6B7279"/><polygon class="sidebar" transform="translate(0, 47.20279017857143)" points="0,0 12,0 12,0" fill="#6B7279" visibility="hidden"/><text font-size="12" fill="#aaaaaa"><tspan x="4" y="27.101395089285717">Hooking</tspan></text></g><g class="technique T0821" transform="translate(0, 283.2167410714286)"><rect class="cell" height="47.20279017857143" width="96.04746538865545" fill="white" stroke="#6B7279"/><polygon class="sidebar" transform="translate(0, 47.20279017857143)" points="0,0 12,0 12,0" fill="#6B7279" visibility="hidden"/><text font-size="12" fill="#aaaaaa"><tspan x="4" y="12.434728422619049">Modify</tspan><tspan x="4" y="27.101395089285717">Controller</tspan><tspan x="4" y="41.76806175595238">Tasking</tspan></text></g><g class="technique T0834" transform="translate(0, 330.41953125000003)"><rect class="cell" height="47.20279017857143" width="96.04746538865545" fill="white" stroke="#6B7279"/><polygon class="sidebar" transform="translate(0, 47.20279017857143)" points="0,0 12,0 12,0" fill="#6B7279" visibility="hidden"/><text font-size="12" fill="#aaaaaa"><tspan x="4" y="27.101395089285717">Native API</tspan></text></g><g class="technique T0853" transform="translate(0, 377.62232142857147)"><rect class="cell" height="47.20279017857143" width="96.04746538865545" fill="white" stroke="#6B7279"/><polygon class="sidebar" transform="translate(0, 47.20279017857143)" points="0,0 12,0 12,0" fill="#6B7279" visibility="hidden"/><text font-size="12" fill="#aaaaaa"><tspan x="4" y="27.101395089285717">Scripting</tspan></text></g><g class="technique T0863" transform="translate(0, 424.82511160714296)"><rect class="cell" height="47.20279017857143" width="96.04746538865545" fill="white" stroke="#6B7279"/><polygon class="sidebar" transform="translate(0, 47.20279017857143)" points="0,0 12,0 12,0" fill="#6B7279" visibility="hidden"/><text font-size="12" fill="#aaaaaa"><tspan x="4" y="19.851395089285717">User</tspan><tspan x="4" y="34.35139508928572">Execution</tspan></text></g></g><g class="subtechniques"/><g class="tactic-label"><text font-size="12" fill="black" font-weight="bold"><tspan text-anchor="middle" x="48.02373269432773" y="27.101395089285717">Execution</tspan></text></g></g><g class="tactic persistence-ics" transform="translate(213.4388119747899, 0)"><g class="techniques"><g class="technique T0889" transform="translate(0, 47.20279017857143)"><rect class="cell" height="47.20279017857143" width="96.04746538865545" fill="white" stroke="#6B7279"/><polygon class="sidebar" transform="translate(0, 47.20279017857143)" points="0,0 12,0 12,0" fill="#6B7279" visibility="hidden"/><text font-size="12" fill="#aaaaaa"><tspan x="4" y="19.851395089285717">Modify</tspan><tspan x="4" y="34.35139508928572">Program</tspan></text></g><g class="technique T0839" transform="translate(0, 94.40558035714287)"><rect class="cell" height="47.20279017857143" width="96.04746538865545" fill="white" stroke="#6B7279"/><polygon class="sidebar" transform="translate(0, 47.20279017857143)" points="0,0 12,0 12,0" fill="#6B7279" visibility="hidden"/><text font-size="12" fill="#aaaaaa"><tspan x="4" y="19.851395089285717">Module</tspan><tspan x="4" y="34.35139508928572">Firmware</tspan></text></g><g class="technique T0873" transform="translate(0, 141.6083705357143)"><rect class="cell" height="47.20279017857143" width="96.04746538865545" fill="white" stroke="#6B7279"/><polygon class="sidebar" transform="translate(0, 47.20279017857143)" points="0,0 12,0 12,0" fill="#6B7279" visibility="hidden"/><text font-size="12" fill="#aaaaaa"><tspan x="4" y="12.434728422619049">Project</tspan><tspan x="4" y="27.101395089285717">File</tspan><tspan x="4" y="41.76806175595238">Infection</tspan></text></g><g class="technique T0857" transform="translate(0, 188.81116071428573)"><rect class="cell" height="47.20279017857143" width="96.04746538865545" fill="#fd8d3c" stroke="#6B7279"/><polygon class="sidebar" transform="translate(0, 47.20279017857143)" points="0,0 12,0 12,0" fill="#6B7279" visibility="hidden"/><text font-size="12" fill="black"><tspan x="4" y="19.851395089285717">System</tspan><tspan x="4" y="34.35139508928572">Firmware</tspan></text></g><g class="technique T0859" transform="translate(0, 236.01395089285717)"><rect class="cell" height="47.20279017857143" width="96.04746538865545" fill="white" stroke="#6B7279"/><polygon class="sidebar" transform="translate(0, 47.20279017857143)" points="0,0 12,0 12,0" fill="#6B7279" visibility="hidden"/><text font-size="12" fill="#aaaaaa"><tspan x="4" y="19.851395089285717">Valid</tspan><tspan x="4" y="34.35139508928572">Accounts</tspan></text></g></g><g class="subtechniques"/><g class="tactic-label"><text font-size="11.606256801231854" fill="black" font-weight="bold"><tspan text-anchor="middle" x="48.02373269432773" y="27.101395089285717">Persistence</tspan></text></g></g><g class="tactic privilege-escalation-ics" transform="translate(320.15821796218484, 0)"><g class="techniques"><g class="technique T0890" transform="translate(0, 47.20279017857143)"><rect class="cell" height="47.20279017857143" width="96.04746538865545" fill="white" stroke="#6B7279"/><polygon class="sidebar" transform="translate(0, 47.20279017857143)" points="0,0 12,0 12,0" fill="#6B7279" visibility="hidden"/><text font-size="9.82067883181157" fill="#aaaaaa"><tspan x="4" y="11.434728422619049">Exploitation</tspan><tspan x="4" y="26.101395089285717">for Privilege</tspan><tspan x="4" y="40.76806175595238">Escalation</tspan></text></g><g class="technique T0874" transform="translate(0, 94.40558035714287)"><rect class="cell" height="47.20279017857143" width="96.04746538865545" fill="white" stroke="#6B7279"/><polygon class="sidebar" transform="translate(0, 47.20279017857143)" points="0,0 12,0 12,0" fill="#6B7279" visibility="hidden"/><text font-size="12" fill="#aaaaaa"><tspan x="4" y="27.101395089285717">Hooking</tspan></text></g></g><g class="subtechniques"/><g class="tactic-label"><text font-size="12" fill="black" font-weight="bold"><tspan text-anchor="middle" x="48.02373269432773" y="19.851395089285717">Privilege</tspan><tspan text-anchor="middle" x="48.02373269432773" y="34.35139508928572">Escalation</tspan></text></g></g><g class="tactic evasion-ics" transform="translate(426.8776239495798, 0)"><g class="techniques"><g class="technique T0858" transform="translate(0, 47.20279017857143)"><rect class="cell" height="47.20279017857143" width="96.04746538865545" fill="white" stroke="#6B7279"/><polygon class="sidebar" transform="translate(0, 47.20279017857143)" points="0,0 12,0 12,0" fill="#6B7279" visibility="hidden"/><text font-size="12" fill="#aaaaaa"><tspan x="4" y="12.434728422619049">Change</tspan><tspan x="4" y="27.101395089285717">Operating</tspan><tspan x="4" y="41.76806175595238">Mode</tspan></text></g><g class="technique T0820" transform="translate(0, 94.40558035714287)"><rect class="cell" height="47.20279017857143" width="96.04746538865545" fill="white" stroke="#6B7279"/><polygon class="sidebar" transform="translate(0, 47.20279017857143)" points="0,0 12,0 12,0" fill="#6B7279" visibility="hidden"/><text font-size="10.639068734462533" fill="#aaaaaa"><tspan x="4" y="19.851395089285717">Exploitation</tspan><tspan x="4" y="34.35139508928572">for Evasion</tspan></text></g><g class="technique T0872" transform="translate(0, 141.6083705357143)"><rect class="cell" height="47.20279017857143" width="96.04746538865545" fill="white" stroke="#6B7279"/><polygon class="sidebar" transform="translate(0, 47.20279017857143)" points="0,0 12,0 12,0" fill="#6B7279" visibility="hidden"/><text font-size="12" fill="#aaaaaa"><tspan x="4" y="12.434728422619049">Indicator</tspan><tspan x="4" y="27.101395089285717">Removal</tspan><tspan x="4" y="41.76806175595238">on Host</tspan></text></g><g class="technique T0849" transform="translate(0, 188.81116071428573)"><rect class="cell" height="47.20279017857143" width="96.04746538865545" fill="white" stroke="#6B7279"/><polygon class="sidebar" transform="translate(0, 47.20279017857143)" points="0,0 12,0 12,0" fill="#6B7279" visibility="hidden"/><text font-size="10.639068734462533" fill="#aaaaaa"><tspan x="4" y="27.101395089285717">Masquerading</tspan></text></g><g class="technique T0851" transform="translate(0, 236.01395089285717)"><rect class="cell" height="47.20279017857143" width="96.04746538865545" fill="white" stroke="#6B7279"/><polygon class="sidebar" transform="translate(0, 47.20279017857143)" points="0,0 12,0 12,0" fill="#6B7279" visibility="hidden"/><text font-size="12" fill="#aaaaaa"><tspan x="4" y="27.101395089285717">Rootkit</tspan></text></g><g class="technique T0856" transform="translate(0, 283.2167410714286)"><rect class="cell" height="47.20279017857143" width="96.04746538865545" fill="white" stroke="#6B7279"/><polygon class="sidebar" transform="translate(0, 47.20279017857143)" points="0,0 12,0 12,0" fill="#6B7279" visibility="hidden"/><text font-size="12" fill="#aaaaaa"><tspan x="4" y="12.434728422619049">Spoof</tspan><tspan x="4" y="27.101395089285717">Reporting</tspan><tspan x="4" y="41.76806175595238">Message</tspan></text></g></g><g class="subtechniques"/><g class="tactic-label"><text font-size="12" fill="black" font-weight="bold"><tspan text-anchor="middle" x="48.02373269432773" y="27.101395089285717">Evasion</tspan></text></g></g><g class="tactic discovery-ics" transform="translate(533.5970299369748, 0)"><g class="techniques"><g class="technique T0840" transform="translate(0, 47.20279017857143)"><rect class="cell" height="47.20279017857143" width="96.04746538865545" fill="white" stroke="#6B7279"/><polygon class="sidebar" transform="translate(0, 47.20279017857143)" points="0,0 12,0 12,0" fill="#6B7279" visibility="hidden"/><text font-size="11.606256801231854" fill="#aaaaaa"><tspan x="4" y="12.434728422619049">Network</tspan><tspan x="4" y="27.101395089285717">Connection</tspan><tspan x="4" y="41.76806175595238">Enumeration</tspan></text></g><g class="technique T0842" transform="translate(0, 94.40558035714287)"><rect class="cell" height="47.20279017857143" width="96.04746538865545" fill="white" stroke="#6B7279"/><polygon class="sidebar" transform="translate(0, 47.20279017857143)" points="0,0 12,0 12,0" fill="#6B7279" visibility="hidden"/><text font-size="12" fill="#aaaaaa"><tspan x="4" y="19.851395089285717">Network</tspan><tspan x="4" y="34.35139508928572">Sniffing</tspan></text></g><g class="technique T0846" transform="translate(0, 141.6083705357143)"><rect class="cell" height="47.20279017857143" width="96.04746538865545" fill="#6baed6" stroke="#6B7279"/><polygon class="sidebar" transform="translate(0, 47.20279017857143)" points="0,0 12,0 12,0" fill="#6B7279" visibility="hidden"/><text font-size="12" fill="black"><tspan x="4" y="12.434728422619049">Remote</tspan><tspan x="4" y="27.101395089285717">System</tspan><tspan x="4" y="41.76806175595238">Discovery</tspan></text></g><g class="technique T0888" transform="translate(0, 188.81116071428573)"><rect class="cell" height="47.20279017857143" width="96.04746538865545" fill="#6baed6" stroke="#6B7279"/><polygon class="sidebar" transform="translate(0, 47.20279017857143)" points="0,0 12,0 12,0" fill="#6B7279" visibility="hidden"/><text font-size="9.82067883181157" fill="black"><tspan x="4" y="11.434728422619049">Remote System</tspan><tspan x="4" y="26.101395089285717">Information</tspan><tspan x="4" y="40.76806175595238">Discovery</tspan></text></g><g class="technique T0887" transform="translate(0, 236.01395089285717)"><rect class="cell" height="47.20279017857143" width="96.04746538865545" fill="white" stroke="#6B7279"/><polygon class="sidebar" transform="translate(0, 47.20279017857143)" points="0,0 12,0 12,0" fill="#6B7279" visibility="hidden"/><text font-size="12" fill="#aaaaaa"><tspan x="4" y="19.851395089285717">Wireless</tspan><tspan x="4" y="34.35139508928572">Sniffing</tspan></text></g></g><g class="subtechniques"/><g class="tactic-label"><text font-size="12" fill="black" font-weight="bold"><tspan text-anchor="middle" x="48.02373269432773" y="27.101395089285717">Discovery</tspan></text></g></g><g class="tactic lateral-movement-ics" transform="translate(640.3164359243697, 0)"><g class="techniques"><g class="technique T0812" transform="translate(0, 47.20279017857143)"><rect class="cell" height="47.20279017857143" width="96.04746538865545" fill="white" stroke="#6B7279"/><polygon class="sidebar" transform="translate(0, 47.20279017857143)" points="0,0 12,0 12,0" fill="#6B7279" visibility="hidden"/><text font-size="11.606256801231854" fill="#aaaaaa"><tspan x="4" y="19.851395089285717">Default</tspan><tspan x="4" y="34.35139508928572">Credentials</tspan></text></g><g class="technique T0866" transform="translate(0, 94.40558035714287)"><rect class="cell" height="47.20279017857143" width="96.04746538865545" fill="white" stroke="#6B7279"/><polygon class="sidebar" transform="translate(0, 47.20279017857143)" points="0,0 12,0 12,0" fill="#6B7279" visibility="hidden"/><text font-size="10.639068734462533" fill="#aaaaaa"><tspan x="4" y="12.434728422619049">Exploitation</tspan><tspan x="4" y="27.101395089285717">of Remote</tspan><tspan x="4" y="41.76806175595238">Services</tspan></text></g><g class="technique T0867" transform="translate(0, 141.6083705357143)"><rect class="cell" height="47.20279017857143" width="96.04746538865545" fill="white" stroke="#6B7279"/><polygon class="sidebar" transform="translate(0, 47.20279017857143)" points="0,0 12,0 12,0" fill="#6B7279" visibility="hidden"/><text font-size="12" fill="#aaaaaa"><tspan x="4" y="12.434728422619049">Lateral</tspan><tspan x="4" y="27.101395089285717">Tool</tspan><tspan x="4" y="41.76806175595238">Transfer</tspan></text></g><g class="technique T0843" transform="translate(0, 188.81116071428573)"><rect class="cell" height="47.20279017857143" width="96.04746538865545" fill="white" stroke="#6B7279"/><polygon class="sidebar" transform="translate(0, 47.20279017857143)" points="0,0 12,0 12,0" fill="#6B7279" visibility="hidden"/><text font-size="12" fill="#aaaaaa"><tspan x="4" y="19.851395089285717">Program</tspan><tspan x="4" y="34.35139508928572">Download</tspan></text></g><g class="technique T0886" transform="translate(0, 236.01395089285717)"><rect class="cell" height="47.20279017857143" width="96.04746538865545" fill="#e6d60d" stroke="#6B7279"/><polygon class="sidebar" transform="translate(0, 47.20279017857143)" points="0,0 12,0 12,0" fill="#6B7279" visibility="hidden"/><text font-size="12" fill="black"><tspan x="4" y="19.851395089285717">Remote</tspan><tspan x="4" y="34.35139508928572">Services</tspan></text></g><g class="technique T0859" transform="translate(0, 283.2167410714286)"><rect class="cell" height="47.20279017857143" width="96.04746538865545" fill="white" stroke="#6B7279"/><polygon class="sidebar" transform="translate(0, 47.20279017857143)" points="0,0 12,0 12,0" fill="#6B7279" visibility="hidden"/><text font-size="12" fill="#aaaaaa"><tspan x="4" y="19.851395089285717">Valid</tspan><tspan x="4" y="34.35139508928572">Accounts</tspan></text></g></g><g class="subtechniques"/><g class="tactic-label"><text font-size="12" fill="black" font-weight="bold"><tspan text-anchor="middle" x="48.02373269432773" y="19.851395089285717">Lateral</tspan><tspan text-anchor="middle" x="48.02373269432773" y="34.35139508928572">Movement</tspan></text></g></g><g class="tactic collection-ics" transform="translate(747.0358419117647, 0)"><g class="techniques"><g class="technique T0802" transform="translate(0, 47.20279017857143)"><rect class="cell" height="47.20279017857143" width="96.04746538865545" fill="white" stroke="#6B7279"/><polygon class="sidebar" transform="translate(0, 47.20279017857143)" points="0,0 12,0 12,0" fill="#6B7279" visibility="hidden"/><text font-size="12" fill="#aaaaaa"><tspan x="4" y="19.851395089285717">Automated</tspan><tspan x="4" y="34.35139508928572">Collection</tspan></text></g><g class="technique T0811" transform="translate(0, 94.40558035714287)"><rect class="cell" height="47.20279017857143" width="96.04746538865545" fill="white" stroke="#6B7279"/><polygon class="sidebar" transform="translate(0, 47.20279017857143)" points="0,0 12,0 12,0" fill="#6B7279" visibility="hidden"/><text font-size="10.639068734462533" fill="#aaaaaa"><tspan x="4" y="12.434728422619049">Data from</tspan><tspan x="4" y="27.101395089285717">Information</tspan><tspan x="4" y="41.76806175595238">Repositories</tspan></text></g><g class="technique T0868" transform="translate(0, 141.6083705357143)"><rect class="cell" height="47.20279017857143" width="96.04746538865545" fill="white" stroke="#6B7279"/><polygon class="sidebar" transform="translate(0, 47.20279017857143)" points="0,0 12,0 12,0" fill="#6B7279" visibility="hidden"/><text font-size="12" fill="#aaaaaa"><tspan x="4" y="12.434728422619049">Detect</tspan><tspan x="4" y="27.101395089285717">Operating</tspan><tspan x="4" y="41.76806175595238">Mode</tspan></text></g><g class="technique T0877" transform="translate(0, 188.81116071428573)"><rect class="cell" height="47.20279017857143" width="96.04746538865545" fill="white" stroke="#6B7279"/><polygon class="sidebar" transform="translate(0, 47.20279017857143)" points="0,0 12,0 12,0" fill="#6B7279" visibility="hidden"/><text font-size="12" fill="#aaaaaa"><tspan x="4" y="27.101395089285717">I/O Image</tspan></text></g><g class="technique T0830" transform="translate(0, 236.01395089285717)"><rect class="cell" height="47.20279017857143" width="96.04746538865545" fill="white" stroke="#6B7279"/><polygon class="sidebar" transform="translate(0, 47.20279017857143)" points="0,0 12,0 12,0" fill="#6B7279" visibility="hidden"/><text font-size="12" fill="#aaaaaa"><tspan x="4" y="19.851395089285717">Man in</tspan><tspan x="4" y="34.35139508928572">the Middle</tspan></text></g><g class="technique T0801" transform="translate(0, 283.2167410714286)"><rect class="cell" height="47.20279017857143" width="96.04746538865545" fill="white" stroke="#6B7279"/><polygon class="sidebar" transform="translate(0, 47.20279017857143)" points="0,0 12,0 12,0" fill="#6B7279" visibility="hidden"/><text font-size="12" fill="#aaaaaa"><tspan x="4" y="12.434728422619049">Monitor</tspan><tspan x="4" y="27.101395089285717">Process</tspan><tspan x="4" y="41.76806175595238">State</tspan></text></g><g class="technique T0861" transform="translate(0, 330.41953125000003)"><rect class="cell" height="47.20279017857143" width="96.04746538865545" fill="white" stroke="#6B7279"/><polygon class="sidebar" transform="translate(0, 47.20279017857143)" points="0,0 12,0 12,0" fill="#6B7279" visibility="hidden"/><text font-size="9.119201772396456" fill="#aaaaaa"><tspan x="4" y="18.851395089285717">Point &amp; Tag</tspan><tspan x="4" y="33.35139508928572">Identification</tspan></text></g><g class="technique T0845" transform="translate(0, 377.62232142857147)"><rect class="cell" height="47.20279017857143" width="96.04746538865545" fill="white" stroke="#6B7279"/><polygon class="sidebar" transform="translate(0, 47.20279017857143)" points="0,0 12,0 12,0" fill="#6B7279" visibility="hidden"/><text font-size="12" fill="#aaaaaa"><tspan x="4" y="19.851395089285717">Program</tspan><tspan x="4" y="34.35139508928572">Upload</tspan></text></g><g class="technique T0852" transform="translate(0, 424.82511160714296)"><rect class="cell" height="47.20279017857143" width="96.04746538865545" fill="white" stroke="#6B7279"/><polygon class="sidebar" transform="translate(0, 47.20279017857143)" points="0,0 12,0 12,0" fill="#6B7279" visibility="hidden"/><text font-size="12" fill="#aaaaaa"><tspan x="4" y="19.851395089285717">Screen</tspan><tspan x="4" y="34.35139508928572">Capture</tspan></text></g><g class="technique T0887" transform="translate(0, 472.02790178571433)"><rect class="cell" height="47.20279017857143" width="96.04746538865545" fill="white" stroke="#6B7279"/><polygon class="sidebar" transform="translate(0, 47.20279017857143)" points="0,0 12,0 12,0" fill="#6B7279" visibility="hidden"/><text font-size="12" fill="#aaaaaa"><tspan x="4" y="19.851395089285717">Wireless</tspan><tspan x="4" y="34.35139508928572">Sniffing</tspan></text></g></g><g class="subtechniques"/><g class="tactic-label"><text font-size="12" fill="black" font-weight="bold"><tspan text-anchor="middle" x="48.02373269432773" y="27.101395089285717">Collection</tspan></text></g></g><g class="tactic command-and-control-ics" transform="translate(853.7552478991596, 0)"><g class="techniques"><g class="technique T0885" transform="translate(0, 47.20279017857143)"><rect class="cell" height="47.20279017857143" width="96.04746538865545" fill="white" stroke="#6B7279"/><polygon class="sidebar" transform="translate(0, 47.20279017857143)" points="0,0 12,0 12,0" fill="#6B7279" visibility="hidden"/><text font-size="12" fill="#aaaaaa"><tspan x="4" y="19.851395089285717">Commonly</tspan><tspan x="4" y="34.35139508928572">Used Port</tspan></text></g><g class="technique T0884" transform="translate(0, 94.40558035714287)"><rect class="cell" height="47.20279017857143" width="96.04746538865545" fill="white" stroke="#6B7279"/><polygon class="sidebar" transform="translate(0, 47.20279017857143)" points="0,0 12,0 12,0" fill="#6B7279" visibility="hidden"/><text font-size="12" fill="#aaaaaa"><tspan x="4" y="19.851395089285717">Connection</tspan><tspan x="4" y="34.35139508928572">Proxy</tspan></text></g><g class="technique T0869" transform="translate(0, 141.6083705357143)"><rect class="cell" height="47.20279017857143" width="96.04746538865545" fill="white" stroke="#6B7279"/><polygon class="sidebar" transform="translate(0, 47.20279017857143)" points="0,0 12,0 12,0" fill="#6B7279" visibility="hidden"/><text font-size="9.440558035714288" fill="#aaaaaa"><tspan x="4" y="8.77534877232143">Standard</tspan><tspan x="4" y="20.326046316964288">Application</tspan><tspan x="4" y="31.876743861607146">Layer</tspan><tspan x="4" y="43.427441406250004">Protocol</tspan></text></g></g><g class="subtechniques"/><g class="tactic-label"><text font-size="12" fill="black" font-weight="bold"><tspan text-anchor="middle" x="48.02373269432773" y="12.434728422619049">Command</tspan><tspan text-anchor="middle" x="48.02373269432773" y="27.101395089285717">and</tspan><tspan text-anchor="middle" x="48.02373269432773" y="41.76806175595238">Control</tspan></text></g></g><g class="tactic inhibit-response-function" transform="translate(960.4746538865545, 0)"><g class="techniques"><g class="technique T0800" transform="translate(0, 47.20279017857143)"><rect class="cell" height="47.20279017857143" width="96.04746538865545" fill="white" stroke="#6B7279"/><polygon class="sidebar" transform="translate(0, 47.20279017857143)" points="0,0 12,0 12,0" fill="#6B7279" visibility="hidden"/><text font-size="11.606256801231854" fill="#aaaaaa"><tspan x="4" y="12.434728422619049">Activate</tspan><tspan x="4" y="27.101395089285717">Firmware</tspan><tspan x="4" y="41.76806175595238">Update Mode</tspan></text></g><g class="technique T0878" transform="translate(0, 94.40558035714287)"><rect class="cell" height="47.20279017857143" width="96.04746538865545" fill="white" stroke="#6B7279"/><polygon class="sidebar" transform="translate(0, 47.20279017857143)" points="0,0 12,0 12,0" fill="#6B7279" visibility="hidden"/><text font-size="11.606256801231854" fill="#aaaaaa"><tspan x="4" y="19.851395089285717">Alarm</tspan><tspan x="4" y="34.35139508928572">Suppression</tspan></text></g><g class="technique T0803" transform="translate(0, 141.6083705357143)"><rect class="cell" height="47.20279017857143" width="96.04746538865545" fill="#fc6b6b" stroke="#6B7279"/><polygon class="sidebar" transform="translate(0, 47.20279017857143)" points="0,0 12,0 12,0" fill="#6B7279" visibility="hidden"/><text font-size="12" fill="black"><tspan x="4" y="12.434728422619049">Block</tspan><tspan x="4" y="27.101395089285717">Command</tspan><tspan x="4" y="41.76806175595238">Message</tspan></text></g><g class="technique T0804" transform="translate(0, 188.81116071428573)"><rect class="cell" height="47.20279017857143" width="96.04746538865545" fill="white" stroke="#6B7279"/><polygon class="sidebar" transform="translate(0, 47.20279017857143)" points="0,0 12,0 12,0" fill="#6B7279" visibility="hidden"/><text font-size="12" fill="#aaaaaa"><tspan x="4" y="12.434728422619049">Block</tspan><tspan x="4" y="27.101395089285717">Reporting</tspan><tspan x="4" y="41.76806175595238">Message</tspan></text></g><g class="technique T0805" transform="translate(0, 236.01395089285717)"><rect class="cell" height="47.20279017857143" width="96.04746538865545" fill="white" stroke="#6B7279"/><polygon class="sidebar" transform="translate(0, 47.20279017857143)" points="0,0 12,0 12,0" fill="#6B7279" visibility="hidden"/><text font-size="12" fill="#aaaaaa"><tspan x="4" y="19.851395089285717">Block</tspan><tspan x="4" y="34.35139508928572">Serial COM</tspan></text></g><g class="technique T0809" transform="translate(0, 283.2167410714286)"><rect class="cell" height="47.20279017857143" width="96.04746538865545" fill="white" stroke="#6B7279"/><polygon class="sidebar" transform="translate(0, 47.20279017857143)" points="0,0 12,0 12,0" fill="#6B7279" visibility="hidden"/><text font-size="11.606256801231854" fill="#aaaaaa"><tspan x="4" y="19.851395089285717">Data</tspan><tspan x="4" y="34.35139508928572">Destruction</tspan></text></g><g class="technique T0814" transform="translate(0, 330.41953125000003)"><rect class="cell" height="47.20279017857143" width="96.04746538865545" fill="white" stroke="#6B7279"/><polygon class="sidebar" transform="translate(0, 47.20279017857143)" points="0,0 12,0 12,0" fill="#6B7279" visibility="hidden"/><text font-size="12" fill="#aaaaaa"><tspan x="4" y="19.851395089285717">Denial</tspan><tspan x="4" y="34.35139508928572">of Service</tspan></text></g><g class="technique T0816" transform="translate(0, 377.62232142857147)"><rect class="cell" height="47.20279017857143" width="96.04746538865545" fill="#fc6b6b" stroke="#6B7279"/><polygon class="sidebar" transform="translate(0, 47.20279017857143)" points="0,0 12,0 12,0" fill="#6B7279" visibility="hidden"/><text font-size="7.9793015508469" fill="black"><tspan x="4" y="18.851395089285717">Device</tspan><tspan x="4" y="33.35139508928572">Restart/Shutdown</tspan></text></g><g class="technique T0835" transform="translate(0, 424.82511160714296)"><rect class="cell" height="47.20279017857143" width="96.04746538865545" fill="white" stroke="#6B7279"/><polygon class="sidebar" transform="translate(0, 47.20279017857143)" points="0,0 12,0 12,0" fill="#6B7279" visibility="hidden"/><text font-size="12" fill="#aaaaaa"><tspan x="4" y="19.851395089285717">Manipulate</tspan><tspan x="4" y="34.35139508928572">I/O Image</tspan></text></g><g class="technique T0838" transform="translate(0, 472.02790178571433)"><rect class="cell" height="47.20279017857143" width="96.04746538865545" fill="white" stroke="#6B7279"/><polygon class="sidebar" transform="translate(0, 47.20279017857143)" points="0,0 12,0 12,0" fill="#6B7279" visibility="hidden"/><text font-size="12" fill="#aaaaaa"><tspan x="4" y="12.434728422619049">Modify</tspan><tspan x="4" y="27.101395089285717">Alarm</tspan><tspan x="4" y="41.76806175595238">Settings</tspan></text></g><g class="technique T0851" transform="translate(0, 519.2306919642857)"><rect class="cell" height="47.20279017857143" width="96.04746538865545" fill="white" stroke="#6B7279"/><polygon class="sidebar" transform="translate(0, 47.20279017857143)" points="0,0 12,0 12,0" fill="#6B7279" visibility="hidden"/><text font-size="12" fill="#aaaaaa"><tspan x="4" y="27.101395089285717">Rootkit</tspan></text></g><g class="technique T0881" transform="translate(0, 566.4334821428572)"><rect class="cell" height="47.20279017857143" width="96.04746538865545" fill="white" stroke="#6B7279"/><polygon class="sidebar" transform="translate(0, 47.20279017857143)" points="0,0 12,0 12,0" fill="#6B7279" visibility="hidden"/><text font-size="12" fill="#aaaaaa"><tspan x="4" y="19.851395089285717">Service</tspan><tspan x="4" y="34.35139508928572">Stop</tspan></text></g><g class="technique T0857" transform="translate(0, 613.6362723214287)"><rect class="cell" height="47.20279017857143" width="96.04746538865545" fill="#fd8d3c" stroke="#6B7279"/><polygon class="sidebar" transform="translate(0, 47.20279017857143)" points="0,0 12,0 12,0" fill="#6B7279" visibility="hidden"/><text font-size="12" fill="black"><tspan x="4" y="19.851395089285717">System</tspan><tspan x="4" y="34.35139508928572">Firmware</tspan></text></g></g><g class="subtechniques"/><g class="tactic-label"><text font-size="12" fill="black" font-weight="bold"><tspan text-anchor="middle" x="48.02373269432773" y="12.434728422619049">Inhibit</tspan><tspan text-anchor="middle" x="48.02373269432773" y="27.101395089285717">Response</tspan><tspan text-anchor="middle" x="48.02373269432773" y="41.76806175595238">Function</tspan></text></g></g><g class="tactic impair-process-control" transform="translate(1067.1940598739495, 0)"><g class="techniques"><g class="technique T0806" transform="translate(0, 47.20279017857143)"><rect class="cell" height="47.20279017857143" width="96.04746538865545" fill="white" stroke="#6B7279"/><polygon class="sidebar" transform="translate(0, 47.20279017857143)" points="0,0 12,0 12,0" fill="#6B7279" visibility="hidden"/><text font-size="12" fill="#aaaaaa"><tspan x="4" y="19.851395089285717">Brute</tspan><tspan x="4" y="34.35139508928572">Force I/O</tspan></text></g><g class="technique T0836" transform="translate(0, 94.40558035714287)"><rect class="cell" height="47.20279017857143" width="96.04746538865545" fill="white" stroke="#6B7279"/><polygon class="sidebar" transform="translate(0, 47.20279017857143)" points="0,0 12,0 12,0" fill="#6B7279" visibility="hidden"/><text font-size="12" fill="#aaaaaa"><tspan x="4" y="19.851395089285717">Modify</tspan><tspan x="4" y="34.35139508928572">Parameter</tspan></text></g><g class="technique T0839" transform="translate(0, 141.6083705357143)"><rect class="cell" height="47.20279017857143" width="96.04746538865545" fill="white" stroke="#6B7279"/><polygon class="sidebar" transform="translate(0, 47.20279017857143)" points="0,0 12,0 12,0" fill="#6B7279" visibility="hidden"/><text font-size="12" fill="#aaaaaa"><tspan x="4" y="19.851395089285717">Module</tspan><tspan x="4" y="34.35139508928572">Firmware</tspan></text></g><g class="technique T0856" transform="translate(0, 188.81116071428573)"><rect class="cell" height="47.20279017857143" width="96.04746538865545" fill="white" stroke="#6B7279"/><polygon class="sidebar" transform="translate(0, 47.20279017857143)" points="0,0 12,0 12,0" fill="#6B7279" visibility="hidden"/><text font-size="12" fill="#aaaaaa"><tspan x="4" y="12.434728422619049">Spoof</tspan><tspan x="4" y="27.101395089285717">Reporting</tspan><tspan x="4" y="41.76806175595238">Message</tspan></text></g><g class="technique T0855" transform="translate(0, 236.01395089285717)"><rect class="cell" height="47.20279017857143" width="96.04746538865545" fill="#fc6b6b" stroke="#6B7279"/><polygon class="sidebar" transform="translate(0, 47.20279017857143)" points="0,0 12,0 12,0" fill="#6B7279" visibility="hidden"/><text font-size="10.639068734462533" fill="black"><tspan x="4" y="12.434728422619049">Unauthorized</tspan><tspan x="4" y="27.101395089285717">Command</tspan><tspan x="4" y="41.76806175595238">Message</tspan></text></g></g><g class="subtechniques"/><g class="tactic-label"><text font-size="12" fill="black" font-weight="bold"><tspan text-anchor="middle" x="48.02373269432773" y="12.434728422619049">Impair</tspan><tspan text-anchor="middle" x="48.02373269432773" y="27.101395089285717">Process</tspan><tspan text-anchor="middle" x="48.02373269432773" y="41.76806175595238">Control</tspan></text></g></g><g class="tactic impact-ics" transform="translate(1173.9134658613445, 0)"><g class="techniques"><g class="technique T0879" transform="translate(0, 47.20279017857143)"><rect class="cell" height="47.20279017857143" width="96.04746538865545" fill="white" stroke="#6B7279"/><polygon class="sidebar" transform="translate(0, 47.20279017857143)" points="0,0 12,0 12,0" fill="#6B7279" visibility="hidden"/><text font-size="12" fill="#aaaaaa"><tspan x="4" y="19.851395089285717">Damage to</tspan><tspan x="4" y="34.35139508928572">Property</tspan></text></g><g class="technique T0813" transform="translate(0, 94.40558035714287)"><rect class="cell" height="47.20279017857143" width="96.04746538865545" fill="#fc6b6b" stroke="#6B7279"/><polygon class="sidebar" transform="translate(0, 47.20279017857143)" points="0,0 12,0 12,0" fill="#6B7279" visibility="hidden"/><text font-size="12" fill="black"><tspan x="4" y="19.851395089285717">Denial</tspan><tspan x="4" y="34.35139508928572">of Control</tspan></text></g><g class="technique T0815" transform="translate(0, 141.6083705357143)"><rect class="cell" height="47.20279017857143" width="96.04746538865545" fill="white" stroke="#6B7279"/><polygon class="sidebar" transform="translate(0, 47.20279017857143)" points="0,0 12,0 12,0" fill="#6B7279" visibility="hidden"/><text font-size="12" fill="#aaaaaa"><tspan x="4" y="19.851395089285717">Denial</tspan><tspan x="4" y="34.35139508928572">of View</tspan></text></g><g class="technique T0826" transform="translate(0, 188.81116071428573)"><rect class="cell" height="47.20279017857143" width="96.04746538865545" fill="#fc6b6b" stroke="#6B7279"/><polygon class="sidebar" transform="translate(0, 47.20279017857143)" points="0,0 12,0 12,0" fill="#6B7279" visibility="hidden"/><text font-size="10.639068734462533" fill="black"><tspan x="4" y="19.851395089285717">Loss of</tspan><tspan x="4" y="34.35139508928572">Availability</tspan></text></g><g class="technique T0827" transform="translate(0, 236.01395089285717)"><rect class="cell" height="47.20279017857143" width="96.04746538865545" fill="white" stroke="#6B7279"/><polygon class="sidebar" transform="translate(0, 47.20279017857143)" points="0,0 12,0 12,0" fill="#6B7279" visibility="hidden"/><text font-size="12" fill="#aaaaaa"><tspan x="4" y="19.851395089285717">Loss</tspan><tspan x="4" y="34.35139508928572">of Control</tspan></text></g><g class="technique T0828" transform="translate(0, 283.2167410714286)"><rect class="cell" height="47.20279017857143" width="96.04746538865545" fill="#fc6b6b" stroke="#6B7279"/><polygon class="sidebar" transform="translate(0, 47.20279017857143)" points="0,0 12,0 12,0" fill="#6B7279" visibility="hidden"/><text font-size="10.639068734462533" fill="black"><tspan x="4" y="12.434728422619049">Loss of</tspan><tspan x="4" y="27.101395089285717">Productivity</tspan><tspan x="4" y="41.76806175595238">and Revenue</tspan></text></g><g class="technique T0837" transform="translate(0, 330.41953125000003)"><rect class="cell" height="47.20279017857143" width="96.04746538865545" fill="white" stroke="#6B7279"/><polygon class="sidebar" transform="translate(0, 47.20279017857143)" points="0,0 12,0 12,0" fill="#6B7279" visibility="hidden"/><text font-size="12" fill="#aaaaaa"><tspan x="4" y="19.851395089285717">Loss of</tspan><tspan x="4" y="34.35139508928572">Protection</tspan></text></g><g class="technique T0880" transform="translate(0, 377.62232142857147)"><rect class="cell" height="47.20279017857143" width="96.04746538865545" fill="white" stroke="#6B7279"/><polygon class="sidebar" transform="translate(0, 47.20279017857143)" points="0,0 12,0 12,0" fill="#6B7279" visibility="hidden"/><text font-size="12" fill="#aaaaaa"><tspan x="4" y="19.851395089285717">Loss</tspan><tspan x="4" y="34.35139508928572">of Safety</tspan></text></g><g class="technique T0829" transform="translate(0, 424.82511160714296)"><rect class="cell" height="47.20279017857143" width="96.04746538865545" fill="white" stroke="#6B7279"/><polygon class="sidebar" transform="translate(0, 47.20279017857143)" points="0,0 12,0 12,0" fill="#6B7279" visibility="hidden"/><text font-size="12" fill="#aaaaaa"><tspan x="4" y="19.851395089285717">Loss</tspan><tspan x="4" y="34.35139508928572">of View</tspan></text></g><g class="technique T0831" transform="translate(0, 472.02790178571433)"><rect class="cell" height="47.20279017857143" width="96.04746538865545" fill="white" stroke="#6B7279"/><polygon class="sidebar" transform="translate(0, 47.20279017857143)" points="0,0 12,0 12,0" fill="#6B7279" visibility="hidden"/><text font-size="10.639068734462533" fill="#aaaaaa"><tspan x="4" y="19.851395089285717">Manipulation</tspan><tspan x="4" y="34.35139508928572">of Control</tspan></text></g><g class="technique T0832" transform="translate(0, 519.2306919642857)"><rect class="cell" height="47.20279017857143" width="96.04746538865545" fill="white" stroke="#6B7279"/><polygon class="sidebar" transform="translate(0, 47.20279017857143)" points="0,0 12,0 12,0" fill="#6B7279" visibility="hidden"/><text font-size="10.639068734462533" fill="#aaaaaa"><tspan x="4" y="19.851395089285717">Manipulation</tspan><tspan x="4" y="34.35139508928572">of View</tspan></text></g><g class="technique T0882" transform="translate(0, 566.4334821428572)"><rect class="cell" height="47.20279017857143" width="96.04746538865545" fill="white" stroke="#6B7279"/><polygon class="sidebar" transform="translate(0, 47.20279017857143)" points="0,0 12,0 12,0" fill="#6B7279" visibility="hidden"/><text font-size="11.606256801231854" fill="#aaaaaa"><tspan x="4" y="12.434728422619049">Theft of</tspan><tspan x="4" y="27.101395089285717">Operational</tspan><tspan x="4" y="41.76806175595238">Information</tspan></text></g></g><g class="subtechniques"/><g class="tactic-label"><text font-size="12" fill="black" font-weight="bold"><tspan text-anchor="middle" x="48.02373269432773" y="27.101395089285717">Impact</tspan></text></g></g></g><g transform="translate(113.38125000000001, 566.90625)"><g transform="translate(0,5)"><rect class="header-box" width="755.875" height="39.13187500000001" stroke="black" fill="white" rx="5"/><rect class="label-cover" x="8" y="-9.666666984558105" width="40.04166793823242" height="17.33333396911621" fill="white" rx="5"/><text class="header-box-label" x="10" font-size="12" y="3">legend</text><g class="header-box-content" transform="translate(5, 0)"><g transform="translate(0, 1.8634226190476184)"><g transform="translate(0, 5)"><g class="legendCells"><g class="cell" transform="translate(0,0)"><rect class="swatch" height="15" width="186.46875" style="fill: rgb(49, 130, 189);"/><text class="label" transform="translate(93.234375,&#10;          25)" style="text-anchor: middle;">Recoinassance</text></g><g class="cell" transform="translate(186.46875,0)"><rect class="swatch" height="15" width="186.46875" style="fill: rgb(252, 233, 59);"/><text class="label" transform="translate(93.234375,&#10;          25)" style="text-anchor: middle;">Initial foothold</text></g><g class="cell" transform="translate(372.9375,0)"><rect class="swatch" height="15" width="186.46875" style="fill: rgb(230, 85, 13);"/><text class="label" transform="translate(93.234375,&#10;          25)" style="text-anchor: middle;">Persistence</text></g><g class="cell" transform="translate(559.40625,0)"><rect class="swatch" height="15" width="186.46875" style="fill: rgb(230, 13, 13);"/><text class="label" transform="translate(93.234375,&#10;          25)" style="text-anchor: middle;">Exploitation/Asset compromise</text></g></g></g></g></g></g></g></g></g></svg>