<?xml version="1.0" standalone="no"?>
<svg width="1322.78125" height="755.875" xmlns="http://www.w3.org/2000/svg" id="svgvm7"><g transform="translate(5,5)" style="font-family: sans-serif;"><g><g><g transform="translate(0,5)"><rect class="header-box" width="1312.78125" height="39.13187500000001" stroke="black" fill="white" rx="5"/><rect class="label-cover" x="8" y="-9.666666984558105" width="34.6953125" height="17.33333396911621" fill="white" rx="5"/><text class="header-box-label" x="10" font-size="12" y="3">about</text><g class="header-box-content" transform="translate(5, 0)"><g transform="translate(0, 0.9544359756097549)"><text font-size="14.507426829268296"><tspan x="4" y="13.567141768292684">ICS</tspan></text><line x1="0" x2="1302.78125" y1="18.134283536585368" y2="18.134283536585368" stroke="#dddddd"/></g><g transform="translate(0, 20.04315548780488)"><text font-size="14.507426829268296"><tspan x="4" y="13.567141768292684">ICS TTPs used in 2015 Ukraine Power Grid attack</tspan></text></g></g></g></g></g><g transform="translate(0,50.13187500000001)"><g><g class="tactic initial-access-ics" transform="translate(0, 0)"><g class="techniques"><g class="technique T0817" transform="translate(0, 49.76736607142857)"><rect class="cell" height="49.76736607142857" width="99.2859768907563" fill="white" stroke="#6B7279"/><polygon class="sidebar" transform="translate(0, 49.76736607142857)" points="0,0 12,0 12,0" fill="#6B7279" visibility="hidden"/><text font-size="12" fill="#aaaaaa"><tspan x="4" y="21.133683035714284">Drive-by</tspan><tspan x="4" y="35.633683035714284">Compromise</tspan></text></g><g class="technique T0819" transform="translate(0, 99.53473214285714)"><rect class="cell" height="49.76736607142857" width="99.2859768907563" fill="white" stroke="#6B7279"/><polygon class="sidebar" transform="translate(0, 49.76736607142857)" points="0,0 12,0 12,0" fill="#6B7279" visibility="hidden"/><text font-size="10.181897422430511" fill="#aaaaaa"><tspan x="4" y="13.717016369047617">Exploit</tspan><tspan x="4" y="28.383683035714284">Public-Facing</tspan><tspan x="4" y="43.05034970238095">Application</tspan></text></g><g class="technique T0866" transform="translate(0, 149.3020982142857)"><rect class="cell" height="49.76736607142857" width="99.2859768907563" fill="white" stroke="#6B7279"/><polygon class="sidebar" transform="translate(0, 49.76736607142857)" points="0,0 12,0 12,0" fill="#6B7279" visibility="hidden"/><text font-size="11.03038887429972" fill="#aaaaaa"><tspan x="4" y="13.717016369047617">Exploitation</tspan><tspan x="4" y="28.383683035714284">of Remote</tspan><tspan x="4" y="43.05034970238095">Services</tspan></text></g><g class="technique T0822" transform="translate(0, 199.06946428571428)"><rect class="cell" height="49.76736607142857" width="99.2859768907563" fill="#e6d60d" stroke="#6B7279"/><polygon class="sidebar" transform="translate(0, 49.76736607142857)" points="0,0 12,0 12,0" fill="#6B7279" visibility="hidden"/><text font-size="12" fill="black"><tspan x="4" y="13.717016369047617">External</tspan><tspan x="4" y="28.383683035714284">Remote</tspan><tspan x="4" y="43.05034970238095">Services</tspan></text></g><g class="technique T0883" transform="translate(0, 248.83683035714284)"><rect class="cell" height="49.76736607142857" width="99.2859768907563" fill="white" stroke="#6B7279"/><polygon class="sidebar" transform="translate(0, 49.76736607142857)" points="0,0 12,0 12,0" fill="#6B7279" visibility="hidden"/><text font-size="12" fill="#aaaaaa"><tspan x="4" y="13.717016369047617">Internet</tspan><tspan x="4" y="28.383683035714284">Accessible</tspan><tspan x="4" y="43.05034970238095">Device</tspan></text></g><g class="technique T0886" transform="translate(0, 298.6041964285714)"><rect class="cell" height="49.76736607142857" width="99.2859768907563" fill="#e6d60d" stroke="#6B7279"/><polygon class="sidebar" transform="translate(0, 49.76736607142857)" points="0,0 12,0 12,0" fill="#6B7279" visibility="hidden"/><text font-size="12" fill="black"><tspan x="4" y="21.133683035714284">Remote</tspan><tspan x="4" y="35.633683035714284">Services</tspan></text></g><g class="technique T0847" transform="translate(0, 348.3715625)"><rect class="cell" height="49.76736607142857" width="99.2859768907563" fill="white" stroke="#6B7279"/><polygon class="sidebar" transform="translate(0, 49.76736607142857)" points="0,0 12,0 12,0" fill="#6B7279" visibility="hidden"/><text font-size="9.953473214285715" fill="#aaaaaa"><tspan x="4" y="9.095920758928571">Replication</tspan><tspan x="4" y="21.287762276785713">Through</tspan><tspan x="4" y="33.479603794642856">Removable</tspan><tspan x="4" y="45.6714453125">Media</tspan></text></g><g class="technique T0848" transform="translate(0, 398.13892857142855)"><rect class="cell" height="49.76736607142857" width="99.2859768907563" fill="white" stroke="#6B7279"/><polygon class="sidebar" transform="translate(0, 49.76736607142857)" points="0,0 12,0 12,0" fill="#6B7279" visibility="hidden"/><text font-size="12" fill="#aaaaaa"><tspan x="4" y="21.133683035714284">Rogue</tspan><tspan x="4" y="35.633683035714284">Master</tspan></text></g><g class="technique T0865" transform="translate(0, 447.9062946428572)"><rect class="cell" height="49.76736607142857" width="99.2859768907563" fill="white" stroke="#6B7279"/><polygon class="sidebar" transform="translate(0, 49.76736607142857)" points="0,0 12,0 12,0" fill="#6B7279" visibility="hidden"/><text font-size="10.181897422430511" fill="#aaaaaa"><tspan x="4" y="21.133683035714284">Spearphishing</tspan><tspan x="4" y="35.633683035714284">Attachment</tspan></text></g><g class="technique T0862" transform="translate(0, 497.6736607142857)"><rect class="cell" height="49.76736607142857" width="99.2859768907563" fill="white" stroke="#6B7279"/><polygon class="sidebar" transform="translate(0, 49.76736607142857)" points="0,0 12,0 12,0" fill="#6B7279" visibility="hidden"/><text font-size="12" fill="#aaaaaa"><tspan x="4" y="13.717016369047617">Supply</tspan><tspan x="4" y="28.383683035714284">Chain</tspan><tspan x="4" y="43.05034970238095">Compromise</tspan></text></g><g class="technique T0864" transform="translate(0, 547.4410267857143)"><rect class="cell" height="49.76736607142857" width="99.2859768907563" fill="white" stroke="#6B7279"/><polygon class="sidebar" transform="translate(0, 49.76736607142857)" points="0,0 12,0 12,0" fill="#6B7279" visibility="hidden"/><text font-size="12" fill="#aaaaaa"><tspan x="4" y="21.133683035714284">Transient</tspan><tspan x="4" y="35.633683035714284">Cyber Asset</tspan></text></g><g class="technique T0860" transform="translate(0, 597.2083928571428)"><rect class="cell" height="49.76736607142857" width="99.2859768907563" fill="white" stroke="#6B7279"/><polygon class="sidebar" transform="translate(0, 49.76736607142857)" points="0,0 12,0 12,0" fill="#6B7279" visibility="hidden"/><text font-size="12" fill="#aaaaaa"><tspan x="4" y="21.133683035714284">Wireless</tspan><tspan x="4" y="35.633683035714284">Compromise</tspan></text></g></g><g class="subtechniques"/><g class="tactic-label"><text font-size="12" fill="black" font-weight="bold"><tspan text-anchor="middle" x="49.64298844537815" y="21.133683035714284">Initial</tspan><tspan text-anchor="middle" x="49.64298844537815" y="35.633683035714284">Access</tspan></text></g></g><g class="tactic execution-ics" transform="translate(110.31775210084034, 0)"><g class="techniques"><g class="technique T0858" transform="translate(0, 49.76736607142857)"><rect class="cell" height="49.76736607142857" width="99.2859768907563" fill="white" stroke="#6B7279"/><polygon class="sidebar" transform="translate(0, 49.76736607142857)" points="0,0 12,0 12,0" fill="#6B7279" visibility="hidden"/><text font-size="12" fill="#aaaaaa"><tspan x="4" y="13.717016369047617">Change</tspan><tspan x="4" y="28.383683035714284">Operating</tspan><tspan x="4" y="43.05034970238095">Mode</tspan></text></g><g class="technique T0807" transform="translate(0, 99.53473214285714)"><rect class="cell" height="49.76736607142857" width="99.2859768907563" fill="#fc6b6b" stroke="#6B7279"/><polygon class="sidebar" transform="translate(0, 49.76736607142857)" points="0,0 12,0 12,0" fill="#6B7279" visibility="hidden"/><text font-size="11.03038887429972" fill="black"><tspan x="4" y="21.133683035714284">Command-Line</tspan><tspan x="4" y="35.633683035714284">Interface</tspan></text></g><g class="technique T0871" transform="translate(0, 149.3020982142857)"><rect class="cell" height="49.76736607142857" width="99.2859768907563" fill="white" stroke="#6B7279"/><polygon class="sidebar" transform="translate(0, 49.76736607142857)" points="0,0 12,0 12,0" fill="#6B7279" visibility="hidden"/><text font-size="12" fill="#aaaaaa"><tspan x="4" y="21.133683035714284">Execution</tspan><tspan x="4" y="35.633683035714284">through API</tspan></text></g><g class="technique T0823" transform="translate(0, 199.06946428571428)"><rect class="cell" height="49.76736607142857" width="99.2859768907563" fill="#fc6b6b" stroke="#6B7279"/><polygon class="sidebar" transform="translate(0, 49.76736607142857)" points="0,0 12,0 12,0" fill="#6B7279" visibility="hidden"/><text font-size="12" fill="black"><tspan x="4" y="13.717016369047617">Graphical</tspan><tspan x="4" y="28.383683035714284">User</tspan><tspan x="4" y="43.05034970238095">Interface</tspan></text></g><g class="technique T0874" transform="translate(0, 248.83683035714284)"><rect class="cell" height="49.76736607142857" width="99.2859768907563" fill="white" stroke="#6B7279"/><polygon class="sidebar" transform="translate(0, 49.76736607142857)" points="0,0 12,0 12,0" fill="#6B7279" visibility="hidden"/><text font-size="12" fill="#aaaaaa"><tspan x="4" y="28.383683035714284">Hooking</tspan></text></g><g class="technique T0821" transform="translate(0, 298.6041964285714)"><rect class="cell" height="49.76736607142857" width="99.2859768907563" fill="white" stroke="#6B7279"/><polygon class="sidebar" transform="translate(0, 49.76736607142857)" points="0,0 12,0 12,0" fill="#6B7279" visibility="hidden"/><text font-size="12" fill="#aaaaaa"><tspan x="4" y="13.717016369047617">Modify</tspan><tspan x="4" y="28.383683035714284">Controller</tspan><tspan x="4" y="43.05034970238095">Tasking</tspan></text></g><g class="technique T0834" transform="translate(0, 348.3715625)"><rect class="cell" height="49.76736607142857" width="99.2859768907563" fill="white" stroke="#6B7279"/><polygon class="sidebar" transform="translate(0, 49.76736607142857)" points="0,0 12,0 12,0" fill="#6B7279" visibility="hidden"/><text font-size="12" fill="#aaaaaa"><tspan x="4" y="28.383683035714284">Native API</tspan></text></g><g class="technique T0853" transform="translate(0, 398.13892857142855)"><rect class="cell" height="49.76736607142857" width="99.2859768907563" fill="white" stroke="#6B7279"/><polygon class="sidebar" transform="translate(0, 49.76736607142857)" points="0,0 12,0 12,0" fill="#6B7279" visibility="hidden"/><text font-size="12" fill="#aaaaaa"><tspan x="4" y="28.383683035714284">Scripting</tspan></text></g><g class="technique T0863" transform="translate(0, 447.9062946428572)"><rect class="cell" height="49.76736607142857" width="99.2859768907563" fill="white" stroke="#6B7279"/><polygon class="sidebar" transform="translate(0, 49.76736607142857)" points="0,0 12,0 12,0" fill="#6B7279" visibility="hidden"/><text font-size="12" fill="#aaaaaa"><tspan x="4" y="21.133683035714284">User</tspan><tspan x="4" y="35.633683035714284">Execution</tspan></text></g></g><g class="subtechniques"/><g class="tactic-label"><text font-size="12" fill="black" font-weight="bold"><tspan text-anchor="middle" x="49.64298844537815" y="28.383683035714284">Execution</tspan></text></g></g><g class="tactic persistence-ics" transform="translate(220.63550420168067, 0)"><g class="techniques"><g class="technique T0889" transform="translate(0, 49.76736607142857)"><rect class="cell" height="49.76736607142857" width="99.2859768907563" fill="white" stroke="#6B7279"/><polygon class="sidebar" transform="translate(0, 49.76736607142857)" points="0,0 12,0 12,0" fill="#6B7279" visibility="hidden"/><text font-size="12" fill="#aaaaaa"><tspan x="4" y="21.133683035714284">Modify</tspan><tspan x="4" y="35.633683035714284">Program</tspan></text></g><g class="technique T0839" transform="translate(0, 99.53473214285714)"><rect class="cell" height="49.76736607142857" width="99.2859768907563" fill="white" stroke="#6B7279"/><polygon class="sidebar" transform="translate(0, 49.76736607142857)" points="0,0 12,0 12,0" fill="#6B7279" visibility="hidden"/><text font-size="12" fill="#aaaaaa"><tspan x="4" y="21.133683035714284">Module</tspan><tspan x="4" y="35.633683035714284">Firmware</tspan></text></g><g class="technique T0873" transform="translate(0, 149.3020982142857)"><rect class="cell" height="49.76736607142857" width="99.2859768907563" fill="white" stroke="#6B7279"/><polygon class="sidebar" transform="translate(0, 49.76736607142857)" points="0,0 12,0 12,0" fill="#6B7279" visibility="hidden"/><text font-size="12" fill="#aaaaaa"><tspan x="4" y="13.717016369047617">Project</tspan><tspan x="4" y="28.383683035714284">File</tspan><tspan x="4" y="43.05034970238095">Infection</tspan></text></g><g class="technique T0857" transform="translate(0, 199.06946428571428)"><rect class="cell" height="49.76736607142857" width="99.2859768907563" fill="#fd8d3c" stroke="#6B7279"/><polygon class="sidebar" transform="translate(0, 49.76736607142857)" points="0,0 12,0 12,0" fill="#6B7279" visibility="hidden"/><text font-size="12" fill="black"><tspan x="4" y="21.133683035714284">System</tspan><tspan x="4" y="35.633683035714284">Firmware</tspan></text></g><g class="technique T0859" transform="translate(0, 248.83683035714284)"><rect class="cell" height="49.76736607142857" width="99.2859768907563" fill="white" stroke="#6B7279"/><polygon class="sidebar" transform="translate(0, 49.76736607142857)" points="0,0 12,0 12,0" fill="#6B7279" visibility="hidden"/><text font-size="12" fill="#aaaaaa"><tspan x="4" y="21.133683035714284">Valid</tspan><tspan x="4" y="35.633683035714284">Accounts</tspan></text></g></g><g class="subtechniques"/><g class="tactic-label"><text font-size="12" fill="black" font-weight="bold"><tspan text-anchor="middle" x="49.64298844537815" y="28.383683035714284">Persistence</tspan></text></g></g><g class="tactic privilege-escalation-ics" transform="translate(330.953256302521, 0)"><g class="techniques"><g class="technique T0890" transform="translate(0, 49.76736607142857)"><rect class="cell" height="49.76736607142857" width="99.2859768907563" fill="white" stroke="#6B7279"/><polygon class="sidebar" transform="translate(0, 49.76736607142857)" points="0,0 12,0 12,0" fill="#6B7279" visibility="hidden"/><text font-size="10.181897422430511" fill="#aaaaaa"><tspan x="4" y="13.717016369047617">Exploitation</tspan><tspan x="4" y="28.383683035714284">for Privilege</tspan><tspan x="4" y="43.05034970238095">Escalation</tspan></text></g><g class="technique T0874" transform="translate(0, 99.53473214285714)"><rect class="cell" height="49.76736607142857" width="99.2859768907563" fill="white" stroke="#6B7279"/><polygon class="sidebar" transform="translate(0, 49.76736607142857)" points="0,0 12,0 12,0" fill="#6B7279" visibility="hidden"/><text font-size="12" fill="#aaaaaa"><tspan x="4" y="28.383683035714284">Hooking</tspan></text></g></g><g class="subtechniques"/><g class="tactic-label"><text font-size="12" fill="black" font-weight="bold"><tspan text-anchor="middle" x="49.64298844537815" y="21.133683035714284">Privilege</tspan><tspan text-anchor="middle" x="49.64298844537815" y="35.633683035714284">Escalation</tspan></text></g></g><g class="tactic evasion-ics" transform="translate(441.27100840336135, 0)"><g class="techniques"><g class="technique T0858" transform="translate(0, 49.76736607142857)"><rect class="cell" height="49.76736607142857" width="99.2859768907563" fill="white" stroke="#6B7279"/><polygon class="sidebar" transform="translate(0, 49.76736607142857)" points="0,0 12,0 12,0" fill="#6B7279" visibility="hidden"/><text font-size="12" fill="#aaaaaa"><tspan x="4" y="13.717016369047617">Change</tspan><tspan x="4" y="28.383683035714284">Operating</tspan><tspan x="4" y="43.05034970238095">Mode</tspan></text></g><g class="technique T0820" transform="translate(0, 99.53473214285714)"><rect class="cell" height="49.76736607142857" width="99.2859768907563" fill="white" stroke="#6B7279"/><polygon class="sidebar" transform="translate(0, 49.76736607142857)" points="0,0 12,0 12,0" fill="#6B7279" visibility="hidden"/><text font-size="11.03038887429972" fill="#aaaaaa"><tspan x="4" y="21.133683035714284">Exploitation</tspan><tspan x="4" y="35.633683035714284">for Evasion</tspan></text></g><g class="technique T0872" transform="translate(0, 149.3020982142857)"><rect class="cell" height="49.76736607142857" width="99.2859768907563" fill="white" stroke="#6B7279"/><polygon class="sidebar" transform="translate(0, 49.76736607142857)" points="0,0 12,0 12,0" fill="#6B7279" visibility="hidden"/><text font-size="12" fill="#aaaaaa"><tspan x="4" y="13.717016369047617">Indicator</tspan><tspan x="4" y="28.383683035714284">Removal</tspan><tspan x="4" y="43.05034970238095">on Host</tspan></text></g><g class="technique T0849" transform="translate(0, 199.06946428571428)"><rect class="cell" height="49.76736607142857" width="99.2859768907563" fill="white" stroke="#6B7279"/><polygon class="sidebar" transform="translate(0, 49.76736607142857)" points="0,0 12,0 12,0" fill="#6B7279" visibility="hidden"/><text font-size="11.03038887429972" fill="#aaaaaa"><tspan x="4" y="28.383683035714284">Masquerading</tspan></text></g><g class="technique T0851" transform="translate(0, 248.83683035714284)"><rect class="cell" height="49.76736607142857" width="99.2859768907563" fill="white" stroke="#6B7279"/><polygon class="sidebar" transform="translate(0, 49.76736607142857)" points="0,0 12,0 12,0" fill="#6B7279" visibility="hidden"/><text font-size="12" fill="#aaaaaa"><tspan x="4" y="28.383683035714284">Rootkit</tspan></text></g><g class="technique T0856" transform="translate(0, 298.6041964285714)"><rect class="cell" height="49.76736607142857" width="99.2859768907563" fill="white" stroke="#6B7279"/><polygon class="sidebar" transform="translate(0, 49.76736607142857)" points="0,0 12,0 12,0" fill="#6B7279" visibility="hidden"/><text font-size="12" fill="#aaaaaa"><tspan x="4" y="13.717016369047617">Spoof</tspan><tspan x="4" y="28.383683035714284">Reporting</tspan><tspan x="4" y="43.05034970238095">Message</tspan></text></g></g><g class="subtechniques"/><g class="tactic-label"><text font-size="12" fill="black" font-weight="bold"><tspan text-anchor="middle" x="49.64298844537815" y="28.383683035714284">Evasion</tspan></text></g></g><g class="tactic discovery-ics" transform="translate(551.5887605042017, 0)"><g class="techniques"><g class="technique T0840" transform="translate(0, 49.76736607142857)"><rect class="cell" height="49.76736607142857" width="99.2859768907563" fill="white" stroke="#6B7279"/><polygon class="sidebar" transform="translate(0, 49.76736607142857)" points="0,0 12,0 12,0" fill="#6B7279" visibility="hidden"/><text font-size="12" fill="#aaaaaa"><tspan x="4" y="13.717016369047617">Network</tspan><tspan x="4" y="28.383683035714284">Connection</tspan><tspan x="4" y="43.05034970238095">Enumeration</tspan></text></g><g class="technique T0842" transform="translate(0, 99.53473214285714)"><rect class="cell" height="49.76736607142857" width="99.2859768907563" fill="white" stroke="#6B7279"/><polygon class="sidebar" transform="translate(0, 49.76736607142857)" points="0,0 12,0 12,0" fill="#6B7279" visibility="hidden"/><text font-size="12" fill="#aaaaaa"><tspan x="4" y="21.133683035714284">Network</tspan><tspan x="4" y="35.633683035714284">Sniffing</tspan></text></g><g class="technique T0846" transform="translate(0, 149.3020982142857)"><rect class="cell" height="49.76736607142857" width="99.2859768907563" fill="#6baed6" stroke="#6B7279"/><polygon class="sidebar" transform="translate(0, 49.76736607142857)" points="0,0 12,0 12,0" fill="#6B7279" visibility="hidden"/><text font-size="12" fill="black"><tspan x="4" y="13.717016369047617">Remote</tspan><tspan x="4" y="28.383683035714284">System</tspan><tspan x="4" y="43.05034970238095">Discovery</tspan></text></g><g class="technique T0888" transform="translate(0, 199.06946428571428)"><rect class="cell" height="49.76736607142857" width="99.2859768907563" fill="#6baed6" stroke="#6B7279"/><polygon class="sidebar" transform="translate(0, 49.76736607142857)" points="0,0 12,0 12,0" fill="#6B7279" visibility="hidden"/><text font-size="10.181897422430511" fill="black"><tspan x="4" y="13.717016369047617">Remote System</tspan><tspan x="4" y="28.383683035714284">Information</tspan><tspan x="4" y="43.05034970238095">Discovery</tspan></text></g><g class="technique T0887" transform="translate(0, 248.83683035714284)"><rect class="cell" height="49.76736607142857" width="99.2859768907563" fill="white" stroke="#6B7279"/><polygon class="sidebar" transform="translate(0, 49.76736607142857)" points="0,0 12,0 12,0" fill="#6B7279" visibility="hidden"/><text font-size="12" fill="#aaaaaa"><tspan x="4" y="21.133683035714284">Wireless</tspan><tspan x="4" y="35.633683035714284">Sniffing</tspan></text></g></g><g class="subtechniques"/><g class="tactic-label"><text font-size="12" fill="black" font-weight="bold"><tspan text-anchor="middle" x="49.64298844537815" y="28.383683035714284">Discovery</tspan></text></g></g><g class="tactic lateral-movement-ics" transform="translate(661.906512605042, 0)"><g class="techniques"><g class="technique T0812" transform="translate(0, 49.76736607142857)"><rect class="cell" height="49.76736607142857" width="99.2859768907563" fill="white" stroke="#6B7279"/><polygon class="sidebar" transform="translate(0, 49.76736607142857)" points="0,0 12,0 12,0" fill="#6B7279" visibility="hidden"/><text font-size="12" fill="#aaaaaa"><tspan x="4" y="21.133683035714284">Default</tspan><tspan x="4" y="35.633683035714284">Credentials</tspan></text></g><g class="technique T0866" transform="translate(0, 99.53473214285714)"><rect class="cell" height="49.76736607142857" width="99.2859768907563" fill="white" stroke="#6B7279"/><polygon class="sidebar" transform="translate(0, 49.76736607142857)" points="0,0 12,0 12,0" fill="#6B7279" visibility="hidden"/><text font-size="11.03038887429972" fill="#aaaaaa"><tspan x="4" y="13.717016369047617">Exploitation</tspan><tspan x="4" y="28.383683035714284">of Remote</tspan><tspan x="4" y="43.05034970238095">Services</tspan></text></g><g class="technique T0867" transform="translate(0, 149.3020982142857)"><rect class="cell" height="49.76736607142857" width="99.2859768907563" fill="white" stroke="#6B7279"/><polygon class="sidebar" transform="translate(0, 49.76736607142857)" points="0,0 12,0 12,0" fill="#6B7279" visibility="hidden"/><text font-size="12" fill="#aaaaaa"><tspan x="4" y="13.717016369047617">Lateral</tspan><tspan x="4" y="28.383683035714284">Tool</tspan><tspan x="4" y="43.05034970238095">Transfer</tspan></text></g><g class="technique T0843" transform="translate(0, 199.06946428571428)"><rect class="cell" height="49.76736607142857" width="99.2859768907563" fill="white" stroke="#6B7279"/><polygon class="sidebar" transform="translate(0, 49.76736607142857)" points="0,0 12,0 12,0" fill="#6B7279" visibility="hidden"/><text font-size="12" fill="#aaaaaa"><tspan x="4" y="21.133683035714284">Program</tspan><tspan x="4" y="35.633683035714284">Download</tspan></text></g><g class="technique T0886" transform="translate(0, 248.83683035714284)"><rect class="cell" height="49.76736607142857" width="99.2859768907563" fill="#e6d60d" stroke="#6B7279"/><polygon class="sidebar" transform="translate(0, 49.76736607142857)" points="0,0 12,0 12,0" fill="#6B7279" visibility="hidden"/><text font-size="12" fill="black"><tspan x="4" y="21.133683035714284">Remote</tspan><tspan x="4" y="35.633683035714284">Services</tspan></text></g><g class="technique T0859" transform="translate(0, 298.6041964285714)"><rect class="cell" height="49.76736607142857" width="99.2859768907563" fill="white" stroke="#6B7279"/><polygon class="sidebar" transform="translate(0, 49.76736607142857)" points="0,0 12,0 12,0" fill="#6B7279" visibility="hidden"/><text font-size="12" fill="#aaaaaa"><tspan x="4" y="21.133683035714284">Valid</tspan><tspan x="4" y="35.633683035714284">Accounts</tspan></text></g></g><g class="subtechniques"/><g class="tactic-label"><text font-size="12" fill="black" font-weight="bold"><tspan text-anchor="middle" x="49.64298844537815" y="21.133683035714284">Lateral</tspan><tspan text-anchor="middle" x="49.64298844537815" y="35.633683035714284">Movement</tspan></text></g></g><g class="tactic collection-ics" transform="translate(772.2242647058823, 0)"><g class="techniques"><g class="technique T0802" transform="translate(0, 49.76736607142857)"><rect class="cell" height="49.76736607142857" width="99.2859768907563" fill="white" stroke="#6B7279"/><polygon class="sidebar" transform="translate(0, 49.76736607142857)" points="0,0 12,0 12,0" fill="#6B7279" visibility="hidden"/><text font-size="12" fill="#aaaaaa"><tspan x="4" y="21.133683035714284">Automated</tspan><tspan x="4" y="35.633683035714284">Collection</tspan></text></g><g class="technique T0811" transform="translate(0, 99.53473214285714)"><rect class="cell" height="49.76736607142857" width="99.2859768907563" fill="white" stroke="#6B7279"/><polygon class="sidebar" transform="translate(0, 49.76736607142857)" points="0,0 12,0 12,0" fill="#6B7279" visibility="hidden"/><text font-size="11.03038887429972" fill="#aaaaaa"><tspan x="4" y="13.717016369047617">Data from</tspan><tspan x="4" y="28.383683035714284">Information</tspan><tspan x="4" y="43.05034970238095">Repositories</tspan></text></g><g class="technique T0868" transform="translate(0, 149.3020982142857)"><rect class="cell" height="49.76736607142857" width="99.2859768907563" fill="white" stroke="#6B7279"/><polygon class="sidebar" transform="translate(0, 49.76736607142857)" points="0,0 12,0 12,0" fill="#6B7279" visibility="hidden"/><text font-size="12" fill="#aaaaaa"><tspan x="4" y="13.717016369047617">Detect</tspan><tspan x="4" y="28.383683035714284">Operating</tspan><tspan x="4" y="43.05034970238095">Mode</tspan></text></g><g class="technique T0877" transform="translate(0, 199.06946428571428)"><rect class="cell" height="49.76736607142857" width="99.2859768907563" fill="white" stroke="#6B7279"/><polygon class="sidebar" transform="translate(0, 49.76736607142857)" points="0,0 12,0 12,0" fill="#6B7279" visibility="hidden"/><text font-size="12" fill="#aaaaaa"><tspan x="4" y="28.383683035714284">I/O Image</tspan></text></g><g class="technique T0830" transform="translate(0, 248.83683035714284)"><rect class="cell" height="49.76736607142857" width="99.2859768907563" fill="white" stroke="#6B7279"/><polygon class="sidebar" transform="translate(0, 49.76736607142857)" points="0,0 12,0 12,0" fill="#6B7279" visibility="hidden"/><text font-size="12" fill="#aaaaaa"><tspan x="4" y="21.133683035714284">Man in</tspan><tspan x="4" y="35.633683035714284">the Middle</tspan></text></g><g class="technique T0801" transform="translate(0, 298.6041964285714)"><rect class="cell" height="49.76736607142857" width="99.2859768907563" fill="white" stroke="#6B7279"/><polygon class="sidebar" transform="translate(0, 49.76736607142857)" points="0,0 12,0 12,0" fill="#6B7279" visibility="hidden"/><text font-size="12" fill="#aaaaaa"><tspan x="4" y="13.717016369047617">Monitor</tspan><tspan x="4" y="28.383683035714284">Process</tspan><tspan x="4" y="43.05034970238095">State</tspan></text></g><g class="technique T0861" transform="translate(0, 348.3715625)"><rect class="cell" height="49.76736607142857" width="99.2859768907563" fill="white" stroke="#6B7279"/><polygon class="sidebar" transform="translate(0, 49.76736607142857)" points="0,0 12,0 12,0" fill="#6B7279" visibility="hidden"/><text font-size="9.454619035114046" fill="#aaaaaa"><tspan x="4" y="20.133683035714284">Point &amp; Tag</tspan><tspan x="4" y="34.633683035714284">Identification</tspan></text></g><g class="technique T0845" transform="translate(0, 398.13892857142855)"><rect class="cell" height="49.76736607142857" width="99.2859768907563" fill="white" stroke="#6B7279"/><polygon class="sidebar" transform="translate(0, 49.76736607142857)" points="0,0 12,0 12,0" fill="#6B7279" visibility="hidden"/><text font-size="12" fill="#aaaaaa"><tspan x="4" y="21.133683035714284">Program</tspan><tspan x="4" y="35.633683035714284">Upload</tspan></text></g><g class="technique T0852" transform="translate(0, 447.9062946428572)"><rect class="cell" height="49.76736607142857" width="99.2859768907563" fill="white" stroke="#6B7279"/><polygon class="sidebar" transform="translate(0, 49.76736607142857)" points="0,0 12,0 12,0" fill="#6B7279" visibility="hidden"/><text font-size="12" fill="#aaaaaa"><tspan x="4" y="21.133683035714284">Screen</tspan><tspan x="4" y="35.633683035714284">Capture</tspan></text></g><g class="technique T0887" transform="translate(0, 497.6736607142857)"><rect class="cell" height="49.76736607142857" width="99.2859768907563" fill="white" stroke="#6B7279"/><polygon class="sidebar" transform="translate(0, 49.76736607142857)" points="0,0 12,0 12,0" fill="#6B7279" visibility="hidden"/><text font-size="12" fill="#aaaaaa"><tspan x="4" y="21.133683035714284">Wireless</tspan><tspan x="4" y="35.633683035714284">Sniffing</tspan></text></g></g><g class="subtechniques"/><g class="tactic-label"><text font-size="12" fill="black" font-weight="bold"><tspan text-anchor="middle" x="49.64298844537815" y="28.383683035714284">Collection</tspan></text></g></g><g class="tactic command-and-control-ics" transform="translate(882.5420168067227, 0)"><g class="techniques"><g class="technique T0885" transform="translate(0, 49.76736607142857)"><rect class="cell" height="49.76736607142857" width="99.2859768907563" fill="white" stroke="#6B7279"/><polygon class="sidebar" transform="translate(0, 49.76736607142857)" points="0,0 12,0 12,0" fill="#6B7279" visibility="hidden"/><text font-size="12" fill="#aaaaaa"><tspan x="4" y="21.133683035714284">Commonly</tspan><tspan x="4" y="35.633683035714284">Used Port</tspan></text></g><g class="technique T0884" transform="translate(0, 99.53473214285714)"><rect class="cell" height="49.76736607142857" width="99.2859768907563" fill="white" stroke="#6B7279"/><polygon class="sidebar" transform="translate(0, 49.76736607142857)" points="0,0 12,0 12,0" fill="#6B7279" visibility="hidden"/><text font-size="12" fill="#aaaaaa"><tspan x="4" y="21.133683035714284">Connection</tspan><tspan x="4" y="35.633683035714284">Proxy</tspan></text></g><g class="technique T0869" transform="translate(0, 149.3020982142857)"><rect class="cell" height="49.76736607142857" width="99.2859768907563" fill="white" stroke="#6B7279"/><polygon class="sidebar" transform="translate(0, 49.76736607142857)" points="0,0 12,0 12,0" fill="#6B7279" visibility="hidden"/><text font-size="9.953473214285715" fill="#aaaaaa"><tspan x="4" y="9.095920758928571">Standard</tspan><tspan x="4" y="21.287762276785713">Application</tspan><tspan x="4" y="33.479603794642856">Layer</tspan><tspan x="4" y="45.6714453125">Protocol</tspan></text></g></g><g class="subtechniques"/><g class="tactic-label"><text font-size="12" fill="black" font-weight="bold"><tspan text-anchor="middle" x="49.64298844537815" y="21.133683035714284">Command</tspan><tspan text-anchor="middle" x="49.64298844537815" y="35.633683035714284">and Control</tspan></text></g></g><g class="tactic inhibit-response-function" transform="translate(992.8597689075631, 0)"><g class="techniques"><g class="technique T0800" transform="translate(0, 49.76736607142857)"><rect class="cell" height="49.76736607142857" width="99.2859768907563" fill="#fd8d3c" stroke="#6B7279"/><polygon class="sidebar" transform="translate(0, 49.76736607142857)" points="0,0 12,0 12,0" fill="#6B7279" visibility="hidden"/><text font-size="12" fill="black"><tspan x="4" y="13.717016369047617">Activate</tspan><tspan x="4" y="28.383683035714284">Firmware</tspan><tspan x="4" y="43.05034970238095">Update Mode</tspan></text></g><g class="technique T0878" transform="translate(0, 99.53473214285714)"><rect class="cell" height="49.76736607142857" width="99.2859768907563" fill="white" stroke="#6B7279"/><polygon class="sidebar" transform="translate(0, 49.76736607142857)" points="0,0 12,0 12,0" fill="#6B7279" visibility="hidden"/><text font-size="12" fill="#aaaaaa"><tspan x="4" y="21.133683035714284">Alarm</tspan><tspan x="4" y="35.633683035714284">Suppression</tspan></text></g><g class="technique T0803" transform="translate(0, 149.3020982142857)"><rect class="cell" height="49.76736607142857" width="99.2859768907563" fill="#fc6b6b" stroke="#6B7279"/><polygon class="sidebar" transform="translate(0, 49.76736607142857)" points="0,0 12,0 12,0" fill="#6B7279" visibility="hidden"/><text font-size="12" fill="black"><tspan x="4" y="13.717016369047617">Block</tspan><tspan x="4" y="28.383683035714284">Command</tspan><tspan x="4" y="43.05034970238095">Message</tspan></text></g><g class="technique T0804" transform="translate(0, 199.06946428571428)"><rect class="cell" height="49.76736607142857" width="99.2859768907563" fill="white" stroke="#6B7279"/><polygon class="sidebar" transform="translate(0, 49.76736607142857)" points="0,0 12,0 12,0" fill="#6B7279" visibility="hidden"/><text font-size="12" fill="#aaaaaa"><tspan x="4" y="13.717016369047617">Block</tspan><tspan x="4" y="28.383683035714284">Reporting</tspan><tspan x="4" y="43.05034970238095">Message</tspan></text></g><g class="technique T0805" transform="translate(0, 248.83683035714284)"><rect class="cell" height="49.76736607142857" width="99.2859768907563" fill="white" stroke="#6B7279"/><polygon class="sidebar" transform="translate(0, 49.76736607142857)" points="0,0 12,0 12,0" fill="#6B7279" visibility="hidden"/><text font-size="12" fill="#aaaaaa"><tspan x="4" y="21.133683035714284">Block</tspan><tspan x="4" y="35.633683035714284">Serial COM</tspan></text></g><g class="technique T0809" transform="translate(0, 298.6041964285714)"><rect class="cell" height="49.76736607142857" width="99.2859768907563" fill="white" stroke="#6B7279"/><polygon class="sidebar" transform="translate(0, 49.76736607142857)" points="0,0 12,0 12,0" fill="#6B7279" visibility="hidden"/><text font-size="12" fill="#aaaaaa"><tspan x="4" y="21.133683035714284">Data</tspan><tspan x="4" y="35.633683035714284">Destruction</tspan></text></g><g class="technique T0814" transform="translate(0, 348.3715625)"><rect class="cell" height="49.76736607142857" width="99.2859768907563" fill="white" stroke="#6B7279"/><polygon class="sidebar" transform="translate(0, 49.76736607142857)" points="0,0 12,0 12,0" fill="#6B7279" visibility="hidden"/><text font-size="12" fill="#aaaaaa"><tspan x="4" y="21.133683035714284">Denial</tspan><tspan x="4" y="35.633683035714284">of Service</tspan></text></g><g class="technique T0816" transform="translate(0, 398.13892857142855)"><rect class="cell" height="49.76736607142857" width="99.2859768907563" fill="#fc6b6b" stroke="#6B7279"/><polygon class="sidebar" transform="translate(0, 49.76736607142857)" points="0,0 12,0 12,0" fill="#6B7279" visibility="hidden"/><text font-size="8.27279165572479" fill="black"><tspan x="4" y="20.133683035714284">Device</tspan><tspan x="4" y="34.633683035714284">Restart/Shutdown</tspan></text></g><g class="technique T0835" transform="translate(0, 447.9062946428572)"><rect class="cell" height="49.76736607142857" width="99.2859768907563" fill="white" stroke="#6B7279"/><polygon class="sidebar" transform="translate(0, 49.76736607142857)" points="0,0 12,0 12,0" fill="#6B7279" visibility="hidden"/><text font-size="12" fill="#aaaaaa"><tspan x="4" y="21.133683035714284">Manipulate</tspan><tspan x="4" y="35.633683035714284">I/O Image</tspan></text></g><g class="technique T0838" transform="translate(0, 497.6736607142857)"><rect class="cell" height="49.76736607142857" width="99.2859768907563" fill="white" stroke="#6B7279"/><polygon class="sidebar" transform="translate(0, 49.76736607142857)" points="0,0 12,0 12,0" fill="#6B7279" visibility="hidden"/><text font-size="12" fill="#aaaaaa"><tspan x="4" y="13.717016369047617">Modify</tspan><tspan x="4" y="28.383683035714284">Alarm</tspan><tspan x="4" y="43.05034970238095">Settings</tspan></text></g><g class="technique T0851" transform="translate(0, 547.4410267857143)"><rect class="cell" height="49.76736607142857" width="99.2859768907563" fill="white" stroke="#6B7279"/><polygon class="sidebar" transform="translate(0, 49.76736607142857)" points="0,0 12,0 12,0" fill="#6B7279" visibility="hidden"/><text font-size="12" fill="#aaaaaa"><tspan x="4" y="28.383683035714284">Rootkit</tspan></text></g><g class="technique T0881" transform="translate(0, 597.2083928571428)"><rect class="cell" height="49.76736607142857" width="99.2859768907563" fill="white" stroke="#6B7279"/><polygon class="sidebar" transform="translate(0, 49.76736607142857)" points="0,0 12,0 12,0" fill="#6B7279" visibility="hidden"/><text font-size="12" fill="#aaaaaa"><tspan x="4" y="21.133683035714284">Service</tspan><tspan x="4" y="35.633683035714284">Stop</tspan></text></g><g class="technique T0857" transform="translate(0, 646.9757589285714)"><rect class="cell" height="49.76736607142857" width="99.2859768907563" fill="#fd8d3c" stroke="#6B7279"/><polygon class="sidebar" transform="translate(0, 49.76736607142857)" points="0,0 12,0 12,0" fill="#6B7279" visibility="hidden"/><text font-size="12" fill="black"><tspan x="4" y="21.133683035714284">System</tspan><tspan x="4" y="35.633683035714284">Firmware</tspan></text></g></g><g class="subtechniques"/><g class="tactic-label"><text font-size="12" fill="black" font-weight="bold"><tspan text-anchor="middle" x="49.64298844537815" y="13.717016369047617">Inhibit</tspan><tspan text-anchor="middle" x="49.64298844537815" y="28.383683035714284">Response</tspan><tspan text-anchor="middle" x="49.64298844537815" y="43.05034970238095">Function</tspan></text></g></g><g class="tactic impair-process-control" transform="translate(1103.1775210084033, 0)"><g class="techniques"><g class="technique T0806" transform="translate(0, 49.76736607142857)"><rect class="cell" height="49.76736607142857" width="99.2859768907563" fill="white" stroke="#6B7279"/><polygon class="sidebar" transform="translate(0, 49.76736607142857)" points="0,0 12,0 12,0" fill="#6B7279" visibility="hidden"/><text font-size="12" fill="#aaaaaa"><tspan x="4" y="21.133683035714284">Brute</tspan><tspan x="4" y="35.633683035714284">Force I/O</tspan></text></g><g class="technique T0836" transform="translate(0, 99.53473214285714)"><rect class="cell" height="49.76736607142857" width="99.2859768907563" fill="white" stroke="#6B7279"/><polygon class="sidebar" transform="translate(0, 49.76736607142857)" points="0,0 12,0 12,0" fill="#6B7279" visibility="hidden"/><text font-size="12" fill="#aaaaaa"><tspan x="4" y="21.133683035714284">Modify</tspan><tspan x="4" y="35.633683035714284">Parameter</tspan></text></g><g class="technique T0839" transform="translate(0, 149.3020982142857)"><rect class="cell" height="49.76736607142857" width="99.2859768907563" fill="white" stroke="#6B7279"/><polygon class="sidebar" transform="translate(0, 49.76736607142857)" points="0,0 12,0 12,0" fill="#6B7279" visibility="hidden"/><text font-size="12" fill="#aaaaaa"><tspan x="4" y="21.133683035714284">Module</tspan><tspan x="4" y="35.633683035714284">Firmware</tspan></text></g><g class="technique T0856" transform="translate(0, 199.06946428571428)"><rect class="cell" height="49.76736607142857" width="99.2859768907563" fill="white" stroke="#6B7279"/><polygon class="sidebar" transform="translate(0, 49.76736607142857)" points="0,0 12,0 12,0" fill="#6B7279" visibility="hidden"/><text font-size="12" fill="#aaaaaa"><tspan x="4" y="13.717016369047617">Spoof</tspan><tspan x="4" y="28.383683035714284">Reporting</tspan><tspan x="4" y="43.05034970238095">Message</tspan></text></g><g class="technique T0855" transform="translate(0, 248.83683035714284)"><rect class="cell" height="49.76736607142857" width="99.2859768907563" fill="#fc6b6b" stroke="#6B7279"/><polygon class="sidebar" transform="translate(0, 49.76736607142857)" points="0,0 12,0 12,0" fill="#6B7279" visibility="hidden"/><text font-size="11.03038887429972" fill="black"><tspan x="4" y="13.717016369047617">Unauthorized</tspan><tspan x="4" y="28.383683035714284">Command</tspan><tspan x="4" y="43.05034970238095">Message</tspan></text></g></g><g class="subtechniques"/><g class="tactic-label"><text font-size="12" fill="black" font-weight="bold"><tspan text-anchor="middle" x="49.64298844537815" y="13.717016369047617">Impair</tspan><tspan text-anchor="middle" x="49.64298844537815" y="28.383683035714284">Process</tspan><tspan text-anchor="middle" x="49.64298844537815" y="43.05034970238095">Control</tspan></text></g></g><g class="tactic impact-ics" transform="translate(1213.4952731092437, 0)"><g class="techniques"><g class="technique T0879" transform="translate(0, 49.76736607142857)"><rect class="cell" height="49.76736607142857" width="99.2859768907563" fill="white" stroke="#6B7279"/><polygon class="sidebar" transform="translate(0, 49.76736607142857)" points="0,0 12,0 12,0" fill="#6B7279" visibility="hidden"/><text font-size="12" fill="#aaaaaa"><tspan x="4" y="21.133683035714284">Damage</tspan><tspan x="4" y="35.633683035714284">to Property</tspan></text></g><g class="technique T0813" transform="translate(0, 99.53473214285714)"><rect class="cell" height="49.76736607142857" width="99.2859768907563" fill="#fc6b6b" stroke="#6B7279"/><polygon class="sidebar" transform="translate(0, 49.76736607142857)" points="0,0 12,0 12,0" fill="#6B7279" visibility="hidden"/><text font-size="12" fill="black"><tspan x="4" y="21.133683035714284">Denial</tspan><tspan x="4" y="35.633683035714284">of Control</tspan></text></g><g class="technique T0815" transform="translate(0, 149.3020982142857)"><rect class="cell" height="49.76736607142857" width="99.2859768907563" fill="white" stroke="#6B7279"/><polygon class="sidebar" transform="translate(0, 49.76736607142857)" points="0,0 12,0 12,0" fill="#6B7279" visibility="hidden"/><text font-size="12" fill="#aaaaaa"><tspan x="4" y="21.133683035714284">Denial</tspan><tspan x="4" y="35.633683035714284">of View</tspan></text></g><g class="technique T0826" transform="translate(0, 199.06946428571428)"><rect class="cell" height="49.76736607142857" width="99.2859768907563" fill="#fc6b6b" stroke="#6B7279"/><polygon class="sidebar" transform="translate(0, 49.76736607142857)" points="0,0 12,0 12,0" fill="#6B7279" visibility="hidden"/><text font-size="11.03038887429972" fill="black"><tspan x="4" y="21.133683035714284">Loss of</tspan><tspan x="4" y="35.633683035714284">Availability</tspan></text></g><g class="technique T0827" transform="translate(0, 248.83683035714284)"><rect class="cell" height="49.76736607142857" width="99.2859768907563" fill="white" stroke="#6B7279"/><polygon class="sidebar" transform="translate(0, 49.76736607142857)" points="0,0 12,0 12,0" fill="#6B7279" visibility="hidden"/><text font-size="12" fill="#aaaaaa"><tspan x="4" y="21.133683035714284">Loss</tspan><tspan x="4" y="35.633683035714284">of Control</tspan></text></g><g class="technique T0828" transform="translate(0, 298.6041964285714)"><rect class="cell" height="49.76736607142857" width="99.2859768907563" fill="#fc6b6b" stroke="#6B7279"/><polygon class="sidebar" transform="translate(0, 49.76736607142857)" points="0,0 12,0 12,0" fill="#6B7279" visibility="hidden"/><text font-size="11.03038887429972" fill="black"><tspan x="4" y="13.717016369047617">Loss of</tspan><tspan x="4" y="28.383683035714284">Productivity</tspan><tspan x="4" y="43.05034970238095">and Revenue</tspan></text></g><g class="technique T0837" transform="translate(0, 348.3715625)"><rect class="cell" height="49.76736607142857" width="99.2859768907563" fill="white" stroke="#6B7279"/><polygon class="sidebar" transform="translate(0, 49.76736607142857)" points="0,0 12,0 12,0" fill="#6B7279" visibility="hidden"/><text font-size="12" fill="#aaaaaa"><tspan x="4" y="21.133683035714284">Loss of</tspan><tspan x="4" y="35.633683035714284">Protection</tspan></text></g><g class="technique T0880" transform="translate(0, 398.13892857142855)"><rect class="cell" height="49.76736607142857" width="99.2859768907563" fill="white" stroke="#6B7279"/><polygon class="sidebar" transform="translate(0, 49.76736607142857)" points="0,0 12,0 12,0" fill="#6B7279" visibility="hidden"/><text font-size="12" fill="#aaaaaa"><tspan x="4" y="21.133683035714284">Loss</tspan><tspan x="4" y="35.633683035714284">of Safety</tspan></text></g><g class="technique T0829" transform="translate(0, 447.9062946428572)"><rect class="cell" height="49.76736607142857" width="99.2859768907563" fill="white" stroke="#6B7279"/><polygon class="sidebar" transform="translate(0, 49.76736607142857)" points="0,0 12,0 12,0" fill="#6B7279" visibility="hidden"/><text font-size="12" fill="#aaaaaa"><tspan x="4" y="21.133683035714284">Loss</tspan><tspan x="4" y="35.633683035714284">of View</tspan></text></g><g class="technique T0831" transform="translate(0, 497.6736607142857)"><rect class="cell" height="49.76736607142857" width="99.2859768907563" fill="white" stroke="#6B7279"/><polygon class="sidebar" transform="translate(0, 49.76736607142857)" points="0,0 12,0 12,0" fill="#6B7279" visibility="hidden"/><text font-size="11.03038887429972" fill="#aaaaaa"><tspan x="4" y="21.133683035714284">Manipulation</tspan><tspan x="4" y="35.633683035714284">of Control</tspan></text></g><g class="technique T0832" transform="translate(0, 547.4410267857143)"><rect class="cell" height="49.76736607142857" width="99.2859768907563" fill="white" stroke="#6B7279"/><polygon class="sidebar" transform="translate(0, 49.76736607142857)" points="0,0 12,0 12,0" fill="#6B7279" visibility="hidden"/><text font-size="11.03038887429972" fill="#aaaaaa"><tspan x="4" y="21.133683035714284">Manipulation</tspan><tspan x="4" y="35.633683035714284">of View</tspan></text></g><g class="technique T0882" transform="translate(0, 597.2083928571428)"><rect class="cell" height="49.76736607142857" width="99.2859768907563" fill="white" stroke="#6B7279"/><polygon class="sidebar" transform="translate(0, 49.76736607142857)" points="0,0 12,0 12,0" fill="#6B7279" visibility="hidden"/><text font-size="12" fill="#aaaaaa"><tspan x="4" y="13.717016369047617">Theft of</tspan><tspan x="4" y="28.383683035714284">Operational</tspan><tspan x="4" y="43.05034970238095">Information</tspan></text></g></g><g class="subtechniques"/><g class="tactic-label"><text font-size="12" fill="black" font-weight="bold"><tspan text-anchor="middle" x="49.64298844537815" y="28.383683035714284">Impact</tspan></text></g></g></g><g transform="translate(113.38125000000001, 604.7)"><g transform="translate(0,5)"><rect class="header-box" width="755.875" height="39.13187500000001" stroke="black" fill="white" rx="5"/><rect class="label-cover" x="8" y="-9.666666984558105" width="40.04166793823242" height="17.33333396911621" fill="white" rx="5"/><text class="header-box-label" x="10" font-size="12" y="3">legend</text><g class="header-box-content" transform="translate(5, 0)"><g transform="translate(0, 1.8634226190476184)"><g transform="translate(0, 5)"><g class="legendCells"><g class="cell" transform="translate(0,0)"><rect class="swatch" height="15" width="186.46875" style="fill: rgb(107, 174, 214);"/><text class="label" transform="translate(93.234375,&#10;          25)" style="text-anchor: middle;">Recoinassance</text></g><g class="cell" transform="translate(186.46875,0)"><rect class="swatch" height="15" width="186.46875" style="fill: rgb(252, 233, 59);"/><text class="label" transform="translate(93.234375,&#10;          25)" style="text-anchor: middle;">Initial foothold</text></g><g class="cell" transform="translate(372.9375,0)"><rect class="swatch" height="15" width="186.46875" style="fill: rgb(253, 141, 60);"/><text class="label" transform="translate(93.234375,&#10;          25)" style="text-anchor: middle;">Persistence</text></g><g class="cell" transform="translate(559.40625,0)"><rect class="swatch" height="15" width="186.46875" style="fill: rgb(252, 107, 107);"/><text class="label" transform="translate(93.234375,&#10;          25)" style="text-anchor: middle;">Exploitation/Asset compromise</text></g></g></g></g></g></g></g></g></g></svg>