<svg width="1031" height="580" xmlns="http://www.w3.org/2000/svg" xmlns:xlink="http://www.w3.org/1999/xlink" overflow="hidden"><defs><clipPath id="clip0"><rect x="87" y="140" width="1031" height="580"/></clipPath></defs><g clip-path="url(#clip0)" transform="translate(-87 -140)"><path d="M494.315 0C496.54 -7.154e-16 498.343 1.8031 498.343 4.02734L498.343 27.4922C498.343 29.7164 496.54 31.5195 494.315 31.5195L4.02734 31.5195C1.8031 31.5195-1.15223e-06 29.7164-1.15223e-06 27.4922L-1.15223e-06 4.02734C-1.15223e-06 1.8031 1.8031-7.68155e-07 4.02734-7.68155e-07Z" stroke="#000000" stroke-width="0.805469" fill="#FFFFFF" transform="matrix(1 0 0 1.00011 91.0273 148.056)"/><path d="M30.3624-7.7862C32.5866-7.7862 34.3897-5.98309 34.3897-3.75885L34.3897 2.14792C34.3897 4.37216 32.5866 6.17526 30.3624 6.17526L10.4711 6.17526C8.24685 6.17526 6.44375 4.37216 6.44375 2.14792L6.44375-3.75885C6.44375-5.98309 8.24685-7.7862 10.4711-7.7862Z" fill="#FFFFFF" transform="matrix(1 0 0 1.00011 91.0273 148.056)"/><text font-family="Arial,Arial_MSFontService,sans-serif" font-weight="400" font-size="12" transform="matrix(0.805469 0 0 0.805556 99.082 150)">about<tspan font-size="28" x="-0.999996" y="26.069">Attack Scenario</tspan></text><path d="M494.315 0C496.54 -7.154e-16 498.343 1.8031 498.343 4.02734L498.343 27.4922C498.343 29.7164 496.54 31.5195 494.315 31.5195L4.02734 31.5195C1.8031 31.5195-1.15223e-06 29.7164-1.15223e-06 27.4922L-1.15223e-06 4.02734C-1.15223e-06 1.8031 1.8031-7.68155e-07 4.02734-7.68155e-07Z" stroke="#000000" stroke-width="0.805469" fill="#FFFFFF" transform="matrix(1 0 0 1.00011 615.599 148.056)"/><path d="M34.6687-7.7862C36.893-7.7862 38.6961-5.98309 38.6961-3.75885L38.6961 2.14792C38.6961 4.37216 36.893 6.17526 34.6687 6.17526L10.4711 6.17526C8.24685 6.17526 6.44375 4.37216 6.44375 2.14792L6.44375-3.75885C6.44375-5.98309 8.24685-7.7862 10.4711-7.7862Z" fill="#FFFFFF" transform="matrix(1 0 0 1.00011 615.599 148.056)"/><text font-family="Arial,Arial_MSFontService,sans-serif" font-weight="400" font-size="12" transform="matrix(0.805469 0 0 0.805556 623.653 150)">legend</text><path d="M0 0 490.288 0 490.288 12.082-1.32914e-06 12.082Z" fill="#FC6B6B" transform="matrix(1 0 0 1.00011 619.626 153.584)"/><text font-family="Arial,Arial_MSFontService,sans-serif" font-weight="400" font-size="12" transform="matrix(0.805469 0 0 0.805556 825.705 174)">Used Techinques</text><path d="M0 0 77.3632 0 77.3632 38.0204-2.35622e-06 38.0204Z" stroke="#6B7279" stroke-width="0.805469" fill="#FFFFFF" transform="matrix(1 0 0 1.00011 91.0273 222.436)"/><text fill="#AAAAAA" font-family="Arial,Arial_MSFontService,sans-serif" font-weight="400" font-size="12" transform="matrix(0.805469 0 0 0.805556 94.2492 238)">Drive<tspan font-size="12" x="28" y="0">-</tspan><tspan font-size="12" x="32" y="0">by</tspan><tspan font-size="12" x="0" y="14.8966">Compromise</tspan></text><path d="M0 0 77.3632 0 77.3632 38.0204-2.35622e-06 38.0204Z" stroke="#6B7279" stroke-width="0.805469" fill="#FC6B6B" transform="matrix(1 0 0 1.00011 91.0273 260.461)"/><text font-family="Arial,Arial_MSFontService,sans-serif" font-weight="400" font-size="10" transform="matrix(0.805469 0 0 0.805556 94.2492 270)">Exploit<tspan font-size="10" x="0" y="13.6552">Public</tspan>-Facing<tspan font-size="10" x="0" y="28.5517">Application</tspan></text><path d="M0 0 77.3632 0 77.3632 38.0204-2.35622e-06 38.0204Z" stroke="#6B7279" stroke-width="0.805469" fill="#FFFFFF" transform="matrix(1 0 0 1.00011 91.0273 298.485)"/><text fill="#AAAAAA" font-family="Arial,Arial_MSFontService,sans-serif" font-weight="400" font-size="11" transform="matrix(0.805469 0 0 0.805556 94.2492 309)">Exploitation<tspan font-size="11" x="0" y="13.6552">of Remote</tspan><tspan font-size="11" x="0" y="28.5517">Services</tspan></text><path d="M0 0 77.3632 0 77.3632 38.0204-2.35622e-06 38.0204Z" stroke="#6B7279" stroke-width="0.805469" fill="#FFFFFF" transform="matrix(1 0 0 1.00011 91.0273 336.51)"/><text fill="#AAAAAA" font-family="Arial,Arial_MSFontService,sans-serif" font-weight="400" font-size="12" transform="matrix(0.805469 0 0 0.805556 94.2492 347)">External<tspan font-size="12" x="0" y="13.6552">Remote</tspan><tspan font-size="12" x="0" y="28.5517">Services</tspan></text><path d="M0 0 77.3632 0 77.3632 38.0204-2.35622e-06 38.0204Z" stroke="#6B7279" stroke-width="0.805469" fill="#FC6B6B" transform="matrix(1 0 0 1.00011 91.0273 374.534)"/><text font-family="Arial,Arial_MSFontService,sans-serif" font-weight="400" font-size="12" transform="matrix(0.805469 0 0 0.805556 94.2492 385)">Internet<tspan font-size="12" x="0" y="13.6552">Accessible</tspan><tspan font-size="12" x="0" y="28.5517">Device</tspan></text><path d="M0 0 77.3632 0 77.3632 38.0204-2.35622e-06 38.0204Z" stroke="#6B7279" stroke-width="0.805469" fill="#FFFFFF" transform="matrix(1 0 0 1.00011 91.0273 412.559)"/><text fill="#AAAAAA" font-family="Arial,Arial_MSFontService,sans-serif" font-weight="400" font-size="12" transform="matrix(0.805469 0 0 0.805556 94.2492 429)">Remote<tspan font-size="12" x="0" y="13.6552">Services</tspan></text><path d="M0 0 77.3632 0 77.3632 38.0204-2.35622e-06 38.0204Z" stroke="#6B7279" stroke-width="0.805469" fill="#FFFFFF" transform="matrix(1 0 0 1.00011 91.0273 450.583)"/><text fill="#AAAAAA" font-family="Arial,Arial_MSFontService,sans-serif" font-weight="400" font-size="9" transform="matrix(0.805469 0 0 0.805556 94.2492 458)">Replication<tspan font-size="9" x="0" y="11.1724">Through</tspan><tspan font-size="9" x="0" y="22.3448">Removable</tspan><tspan font-size="9" x="0" y="34.7586">Media</tspan></text><path d="M0 0 77.3632 0 77.3632 38.0204-2.35622e-06 38.0204Z" stroke="#6B7279" stroke-width="0.805469" fill="#FFFFFF" transform="matrix(1 0 0 1.00011 91.0273 488.608)"/><text fill="#AAAAAA" font-family="Arial,Arial_MSFontService,sans-serif" font-weight="400" font-size="12" transform="matrix(0.805469 0 0 0.805556 94.2492 505)">Rogue<tspan font-size="12" x="0" y="13.6552">Master</tspan></text><path d="M0 0 77.3632 0 77.3632 38.0204-2.35622e-06 38.0204Z" stroke="#6B7279" stroke-width="0.805469" fill="#FFFFFF" transform="matrix(1 0 0 1.00011 91.0273 526.632)"/><text fill="#AAAAAA" font-family="Arial,Arial_MSFontService,sans-serif" font-weight="400" font-size="10" transform="matrix(0.805469 0 0 0.805556 94.2492 542)">Spearphishing<tspan font-size="10" x="0" y="13.6552">Attachment</tspan></text><path d="M0 0 77.3632 0 77.3632 38.0204-2.35622e-06 38.0204Z" stroke="#6B7279" stroke-width="0.805469" fill="#FFFFFF" transform="matrix(1 0 0 1.00011 91.0273 564.656)"/><text fill="#AAAAAA" font-family="Arial,Arial_MSFontService,sans-serif" font-weight="400" font-size="12" transform="matrix(0.805469 0 0 0.805556 94.2492 575)">Supply<tspan font-size="12" x="0" y="13.6552">Chain</tspan><tspan font-size="12" x="0" y="28.5517">Compromise</tspan></text><path d="M0 0 77.3632 0 77.3632 38.0204-2.35622e-06 38.0204Z" stroke="#6B7279" stroke-width="0.805469" fill="#FFFFFF" transform="matrix(1 0 0 1.00011 91.0273 602.681)"/><text fill="#AAAAAA" font-family="Arial,Arial_MSFontService,sans-serif" font-weight="400" font-size="12" transform="matrix(0.805469 0 0 0.805556 94.2492 613)">Transient<tspan font-size="12" x="0" y="14.8966">Cyber</tspan><tspan font-size="12" x="0" y="28.5517">Asset</tspan></text><path d="M0 0 77.3632 0 77.3632 38.0204-2.35622e-06 38.0204Z" stroke="#6B7279" stroke-width="0.805469" fill="#FFFFFF" transform="matrix(1 0 0 1.00011 91.0273 640.705)"/><text fill="#AAAAAA" font-family="Arial,Arial_MSFontService,sans-serif" font-weight="400" font-size="12" transform="matrix(0.805469 0 0 0.805556 94.2492 657)">Wireless<tspan font-size="12" x="0" y="13.6552">Compromise</tspan><tspan fill="#000000" font-weight="700" font-size="12" x="29.0237" y="-567.31">Initial</tspan><tspan fill="#000000" font-weight="700" font-size="12" x="22.5237" y="-552.414">Access</tspan></text><path d="M0 0 77.3632 0 77.3632 38.0204-2.35622e-06 38.0204Z" stroke="#6B7279" stroke-width="0.805469" fill="#FFFFFF" transform="matrix(1 0 0 1.00011 176.986 222.436)"/><text fill="#AAAAAA" font-family="Arial,Arial_MSFontService,sans-serif" font-weight="400" font-size="12" transform="matrix(0.805469 0 0 0.805556 180.208 232)">Change<tspan font-size="12" x="0" y="14.8966">Operating</tspan><tspan font-size="12" x="0" y="29.7931">Mode</tspan></text><path d="M0 0 77.3632 0 77.3632 38.0204-2.35622e-06 38.0204Z" stroke="#6B7279" stroke-width="0.805469" fill="#FC6B6B" transform="matrix(1 0 0 1.00011 176.986 260.461)"/><text font-family="Arial,Arial_MSFontService,sans-serif" font-weight="400" font-size="11" transform="matrix(0.805469 0 0 0.805556 180.208 276)">Command<tspan font-size="11" x="47" y="0">-</tspan><tspan font-size="11" x="51" y="0">Line</tspan><tspan font-size="11" x="0" y="14.8966">Interface</tspan></text><path d="M0 0 77.3632 0 77.3632 38.0204-2.35622e-06 38.0204Z" stroke="#6B7279" stroke-width="0.805469" fill="#FFFFFF" transform="matrix(1 0 0 1.00011 176.986 298.485)"/><text fill="#AAAAAA" font-family="Arial,Arial_MSFontService,sans-serif" font-weight="400" font-size="12" transform="matrix(0.805469 0 0 0.805556 180.208 309)">Execution<tspan font-size="12" x="0" y="13.6552">through</tspan><tspan font-size="12" x="0" y="28.5517">API</tspan></text><path d="M0 0 77.3632 0 77.3632 38.0204-2.35622e-06 38.0204Z" stroke="#6B7279" stroke-width="0.805469" fill="#FFFFFF" transform="matrix(1 0 0 1.00011 176.986 336.51)"/><text fill="#AAAAAA" font-family="Arial,Arial_MSFontService,sans-serif" font-weight="400" font-size="12" transform="matrix(0.805469 0 0 0.805556 180.208 347)">Graphical<tspan font-size="12" x="0" y="13.6552">User</tspan><tspan font-size="12" x="0" y="28.5517">Interface</tspan></text><path d="M0 0 77.3632 0 77.3632 38.0204-2.35622e-06 38.0204Z" stroke="#6B7279" stroke-width="0.805469" fill="#FFFFFF" transform="matrix(1 0 0 1.00011 176.986 374.534)"/><text fill="#AAAAAA" font-family="Arial,Arial_MSFontService,sans-serif" font-weight="400" font-size="12" transform="matrix(0.805469 0 0 0.805556 180.208 396)">Hooking</text><path d="M0 0 77.3632 0 77.3632 38.0204-2.35622e-06 38.0204Z" stroke="#6B7279" stroke-width="0.805469" fill="#FFFFFF" transform="matrix(1 0 0 1.00011 176.986 412.559)"/><text fill="#AAAAAA" font-family="Arial,Arial_MSFontService,sans-serif" font-weight="400" font-size="12" transform="matrix(0.805469 0 0 0.805556 180.208 423)">Modify<tspan font-size="12" x="0" y="13.6552">Controller</tspan><tspan font-size="12" x="0" y="28.5517">Tasking</tspan></text><path d="M0 0 77.3632 0 77.3632 38.0204-2.35622e-06 38.0204Z" stroke="#6B7279" stroke-width="0.805469" fill="#FFFFFF" transform="matrix(1 0 0 1.00011 176.986 450.583)"/><text fill="#AAAAAA" font-family="Arial,Arial_MSFontService,sans-serif" font-weight="400" font-size="12" transform="matrix(0.805469 0 0 0.805556 180.208 472)">Native API</text><path d="M0 0 77.3632 0 77.3632 38.0204-2.35622e-06 38.0204Z" stroke="#6B7279" stroke-width="0.805469" fill="#FFFFFF" transform="matrix(1 0 0 1.00011 176.986 488.608)"/><text fill="#AAAAAA" font-family="Arial,Arial_MSFontService,sans-serif" font-weight="400" font-size="12" transform="matrix(0.805469 0 0 0.805556 180.208 510)">Scripting</text><path d="M0 0 77.3632 0 77.3632 38.0204-2.35622e-06 38.0204Z" stroke="#6B7279" stroke-width="0.805469" fill="#FFFFFF" transform="matrix(1 0 0 1.00011 176.986 526.632)"/><text fill="#AAAAAA" font-family="Arial,Arial_MSFontService,sans-serif" font-weight="400" font-size="12" transform="matrix(0.805469 0 0 0.805556 180.208 543)">User<tspan font-size="12" x="0" y="13.6552">Execution</tspan><tspan fill="#000000" font-weight="700" font-size="12" x="16.0237" y="-418.345">Execution</tspan></text><path d="M0 0 77.3632 0 77.3632 38.0204-2.35622e-06 38.0204Z" stroke="#6B7279" stroke-width="0.805469" fill="#FFFFFF" transform="matrix(1 0 0 1.00011 262.946 222.436)"/><text fill="#AAAAAA" font-family="Arial,Arial_MSFontService,sans-serif" font-weight="400" font-size="12" transform="matrix(0.805469 0 0 0.805556 266.168 238)">Modify<tspan font-size="12" x="0" y="14.8966">Program</tspan></text><path d="M0 0 77.3632 0 77.3632 38.0204-2.35622e-06 38.0204Z" stroke="#6B7279" stroke-width="0.805469" fill="#FFFFFF" transform="matrix(1 0 0 1.00011 262.946 260.461)"/><text fill="#AAAAAA" font-family="Arial,Arial_MSFontService,sans-serif" font-weight="400" font-size="12" transform="matrix(0.805469 0 0 0.805556 266.168 276)">Module<tspan font-size="12" x="0" y="14.8966">Firmware</tspan></text><path d="M0 0 77.3632 0 77.3632 38.0204-2.35622e-06 38.0204Z" stroke="#6B7279" stroke-width="0.805469" fill="#FFFFFF" transform="matrix(1 0 0 1.00011 262.946 298.485)"/><text fill="#AAAAAA" font-family="Arial,Arial_MSFontService,sans-serif" font-weight="400" font-size="12" transform="matrix(0.805469 0 0 0.805556 266.168 309)">Project<tspan font-size="12" x="0" y="13.6552">File</tspan><tspan font-size="12" x="0" y="28.5517">Infection</tspan></text><path d="M0 0 77.3632 0 77.3632 38.0204-2.35622e-06 38.0204Z" stroke="#6B7279" stroke-width="0.805469" fill="#FFFFFF" transform="matrix(1 0 0 1.00011 262.946 336.51)"/><text fill="#AAAAAA" font-family="Arial,Arial_MSFontService,sans-serif" font-weight="400" font-size="12" transform="matrix(0.805469 0 0 0.805556 266.168 353)">System<tspan font-size="12" x="0" y="13.6552">Firmware</tspan></text><path d="M0 0 77.3632 0 77.3632 38.0204-2.35622e-06 38.0204Z" stroke="#6B7279" stroke-width="0.805469" fill="#FC6B6B" transform="matrix(1 0 0 1.00011 262.946 374.534)"/><text font-family="Arial,Arial_MSFontService,sans-serif" font-weight="400" font-size="12" transform="matrix(0.805469 0 0 0.805556 266.168 391)">Valid<tspan font-size="12" x="0" y="13.6552">Accounts</tspan><tspan font-weight="700" font-size="12" x="9.52375" y="-229.655">Persistence</tspan></text><path d="M0 0 77.3632 0 77.3632 38.0204-2.35622e-06 38.0204Z" stroke="#6B7279" stroke-width="0.805469" fill="#FFFFFF" transform="matrix(1 0 0 1.00011 348.905 222.436)"/><text fill="#AAAAAA" font-family="Arial,Arial_MSFontService,sans-serif" font-weight="400" font-size="10" transform="matrix(0.805469 0 0 0.805556 352.127 232)">Exploitation<tspan font-size="10" x="0" y="13.6552">for Privilege</tspan><tspan font-size="10" x="0" y="28.5517">Escalation</tspan></text><path d="M0 0 77.3632 0 77.3632 38.0204-2.35622e-06 38.0204Z" stroke="#6B7279" stroke-width="0.805469" fill="#FFFFFF" transform="matrix(1 0 0 1.00011 348.905 260.461)"/><text fill="#AAAAAA" font-family="Arial,Arial_MSFontService,sans-serif" font-weight="400" font-size="12" transform="matrix(0.805469 0 0 0.805556 352.127 282)">Hooking<tspan fill="#000000" font-weight="700" font-size="12" x="19.5237" y="-101.793">Privilege</tspan><tspan fill="#000000" font-weight="700" font-size="12" x="14.5237" y="-86.8965">Escalation</tspan></text><path d="M0 0 77.3632 0 77.3632 38.0204-2.35622e-06 38.0204Z" stroke="#6B7279" stroke-width="0.805469" fill="#FFFFFF" transform="matrix(1 0 0 1.00011 434.864 222.436)"/><text fill="#AAAAAA" font-family="Arial,Arial_MSFontService,sans-serif" font-weight="400" font-size="12" transform="matrix(0.805469 0 0 0.805556 438.086 232)">Change<tspan font-size="12" x="0" y="14.8966">Operating</tspan><tspan font-size="12" x="0" y="29.7931">Mode</tspan></text><path d="M0 0 77.3632 0 77.3632 38.0204-2.35622e-06 38.0204Z" stroke="#6B7279" stroke-width="0.805469" fill="#FFFFFF" transform="matrix(1 0 0 1.00011 434.864 260.461)"/><text fill="#AAAAAA" font-family="Arial,Arial_MSFontService,sans-serif" font-weight="400" font-size="11" transform="matrix(0.805469 0 0 0.805556 438.086 276)">Exploitation<tspan font-size="11" x="0" y="14.8966">for Evasion</tspan></text><path d="M0 0 77.3632 0 77.3632 38.0204-2.35622e-06 38.0204Z" stroke="#6B7279" stroke-width="0.805469" fill="#FFFFFF" transform="matrix(1 0 0 1.00011 434.864 298.485)"/><text fill="#AAAAAA" font-family="Arial,Arial_MSFontService,sans-serif" font-weight="400" font-size="12" transform="matrix(0.805469 0 0 0.805556 438.086 309)">Indicator<tspan font-size="12" x="0" y="13.6552">Removal</tspan><tspan font-size="12" x="0" y="28.5517">on Host</tspan></text><path d="M0 0 77.3632 0 77.3632 38.0204-2.35622e-06 38.0204Z" stroke="#6B7279" stroke-width="0.805469" fill="#FC6B6B" transform="matrix(1 0 0 1.00011 434.864 336.51)"/><text font-family="Arial,Arial_MSFontService,sans-serif" font-weight="400" font-size="11" transform="matrix(0.805469 0 0 0.805556 438.086 358)">Masquerading</text><path d="M0 0 77.3632 0 77.3632 38.0204-2.35622e-06 38.0204Z" stroke="#6B7279" stroke-width="0.805469" fill="#FFFFFF" transform="matrix(1 0 0 1.00011 434.864 374.534)"/><text fill="#AAAAAA" font-family="Arial,Arial_MSFontService,sans-serif" font-weight="400" font-size="12" transform="matrix(0.805469 0 0 0.805556 438.086 396)">Rootkit</text><path d="M0 0 77.3632 0 77.3632 38.0204-2.35622e-06 38.0204Z" stroke="#6B7279" stroke-width="0.805469" fill="#FFFFFF" transform="matrix(1 0 0 1.00011 434.864 412.559)"/><text fill="#AAAAAA" font-family="Arial,Arial_MSFontService,sans-serif" font-weight="400" font-size="12" transform="matrix(0.805469 0 0 0.805556 438.086 423)">Spoof<tspan font-size="12" x="0" y="13.6552">Reporting</tspan><tspan font-size="12" x="0" y="28.5517">Message</tspan><tspan fill="#000000" font-weight="700" font-size="12" x="22.0237" y="-269.379">Evasion</tspan></text><path d="M0 0 77.3632 0 77.3632 38.0204-2.35622e-06 38.0204Z" stroke="#6B7279" stroke-width="0.805469" fill="#FFFFFF" transform="matrix(1 0 0 1.00011 520.823 222.436)"/><text fill="#AAAAAA" font-family="Arial,Arial_MSFontService,sans-serif" font-weight="400" font-size="12" transform="matrix(0.805469 0 0 0.805556 524.045 232)">Network<tspan font-size="12" x="0" y="14.8966">Connection</tspan><tspan font-size="12" x="0" y="29.7931">Enumeration</tspan></text><path d="M0 0 77.3632 0 77.3632 38.0204-2.35622e-06 38.0204Z" stroke="#6B7279" stroke-width="0.805469" fill="#FFFFFF" transform="matrix(1 0 0 1.00011 520.823 260.461)"/><text fill="#AAAAAA" font-family="Arial,Arial_MSFontService,sans-serif" font-weight="400" font-size="12" transform="matrix(0.805469 0 0 0.805556 524.045 276)">Network<tspan font-size="12" x="0" y="14.8966">Sniffing</tspan></text><path d="M0 0 77.3632 0 77.3632 38.0204-2.35622e-06 38.0204Z" stroke="#6B7279" stroke-width="0.805469" fill="#FC6B6B" transform="matrix(1 0 0 1.00011 520.823 298.485)"/><text font-family="Arial,Arial_MSFontService,sans-serif" font-weight="400" font-size="12" transform="matrix(0.805469 0 0 0.805556 524.045 309)">Remote<tspan font-size="12" x="0" y="13.6552">System</tspan><tspan font-size="12" x="0" y="28.5517">Discovery</tspan></text><path d="M0 0 77.3632 0 77.3632 38.0204-2.35622e-06 38.0204Z" stroke="#6B7279" stroke-width="0.805469" fill="#FC6B6B" transform="matrix(1 0 0 1.00011 520.823 336.51)"/><text font-family="Arial,Arial_MSFontService,sans-serif" font-weight="400" font-size="10" transform="matrix(0.805469 0 0 0.805556 524.045 346)">Remote System<tspan font-size="10" x="0" y="14.8966">Information</tspan><tspan font-size="10" x="0" y="28.5517">Discovery</tspan></text><path d="M0 0 77.3632 0 77.3632 38.0204-2.35622e-06 38.0204Z" stroke="#6B7279" stroke-width="0.805469" fill="#FFFFFF" transform="matrix(1 0 0 1.00011 520.823 374.534)"/><text fill="#AAAAAA" font-family="Arial,Arial_MSFontService,sans-serif" font-weight="400" font-size="12" transform="matrix(0.805469 0 0 0.805556 524.045 391)">Wireless<tspan font-size="12" x="0" y="13.6552">Sniffing</tspan><tspan fill="#000000" font-weight="700" font-size="12" x="16.0237" y="-229.655">Discovery</tspan></text><path d="M0 0 77.3632 0 77.3632 38.0204-2.35622e-06 38.0204Z" stroke="#6B7279" stroke-width="0.805469" fill="#FFFFFF" transform="matrix(1 0 0 1.00011 606.782 222.436)"/><text fill="#AAAAAA" font-family="Arial,Arial_MSFontService,sans-serif" font-weight="400" font-size="12" transform="matrix(0.805469 0 0 0.805556 610.004 238)">Default<tspan font-size="12" x="0" y="14.8966">Credentials</tspan></text><path d="M0 0 77.3632 0 77.3632 38.0204-2.35622e-06 38.0204Z" stroke="#6B7279" stroke-width="0.805469" fill="#FFFFFF" transform="matrix(1 0 0 1.00011 606.782 260.461)"/><text fill="#AAAAAA" font-family="Arial,Arial_MSFontService,sans-serif" font-weight="400" font-size="11" transform="matrix(0.805469 0 0 0.805556 610.004 270)">Exploitation<tspan font-size="11" x="0" y="14.8966">of Remote</tspan><tspan font-size="11" x="0" y="29.7931">Services</tspan></text><path d="M0 0 77.3632 0 77.3632 38.0204-2.35622e-06 38.0204Z" stroke="#6B7279" stroke-width="0.805469" fill="#FC6B6B" transform="matrix(1 0 0 1.00011 606.782 298.485)"/><text font-family="Arial,Arial_MSFontService,sans-serif" font-weight="400" font-size="12" transform="matrix(0.805469 0 0 0.805556 610.004 309)">Lateral<tspan font-size="12" x="0" y="13.6552">Tool</tspan><tspan font-size="12" x="0" y="28.5517">Transfer</tspan></text><path d="M0 0 77.3632 0 77.3632 38.0204-2.35622e-06 38.0204Z" stroke="#6B7279" stroke-width="0.805469" fill="#FFFFFF" transform="matrix(1 0 0 1.00011 606.782 336.51)"/><text fill="#AAAAAA" font-family="Arial,Arial_MSFontService,sans-serif" font-weight="400" font-size="12" transform="matrix(0.805469 0 0 0.805556 610.004 353)">Program<tspan font-size="12" x="0" y="13.6552">Download</tspan></text><path d="M0 0 77.3632 0 77.3632 38.0204-2.35622e-06 38.0204Z" stroke="#6B7279" stroke-width="0.805469" fill="#FFFFFF" transform="matrix(1 0 0 1.00011 606.782 374.534)"/><text fill="#AAAAAA" font-family="Arial,Arial_MSFontService,sans-serif" font-weight="400" font-size="12" transform="matrix(0.805469 0 0 0.805556 610.004 391)">Remote<tspan font-size="12" x="0" y="13.6552">Services</tspan></text><path d="M0 0 77.3632 0 77.3632 38.0204-2.35622e-06 38.0204Z" stroke="#6B7279" stroke-width="0.805469" fill="#FC6B6B" transform="matrix(1 0 0 1.00011 606.782 412.559)"/><text font-family="Arial,Arial_MSFontService,sans-serif" font-weight="400" font-size="12" transform="matrix(0.805469 0 0 0.805556 610.004 429)">Valid<tspan font-size="12" x="0" y="13.6552">Accounts</tspan><tspan font-weight="700" font-size="12" x="24.0238" y="-284.276">Lateral</tspan><tspan font-weight="700" font-size="12" x="14.5237" y="-269.379">Movement</tspan></text><path d="M0 0 77.3632 0 77.3632 38.0204-2.35622e-06 38.0204Z" stroke="#6B7279" stroke-width="0.805469" fill="#FFFFFF" transform="matrix(1 0 0 1.00011 692.741 222.436)"/><text fill="#AAAAAA" font-family="Arial,Arial_MSFontService,sans-serif" font-weight="400" font-size="12" transform="matrix(0.805469 0 0 0.805556 695.963 238)">Automated<tspan font-size="12" x="0" y="14.8966">Collection</tspan></text><path d="M0 0 77.3632 0 77.3632 38.0204-2.35622e-06 38.0204Z" stroke="#6B7279" stroke-width="0.805469" fill="#FFFFFF" transform="matrix(1 0 0 1.00011 692.741 260.461)"/><text fill="#AAAAAA" font-family="Arial,Arial_MSFontService,sans-serif" font-weight="400" font-size="11" transform="matrix(0.805469 0 0 0.805556 695.963 270)">Data from<tspan font-size="11" x="0" y="14.8966">Information</tspan><tspan font-size="11" x="0" y="29.7931">Repositories</tspan></text><path d="M0 0 77.3632 0 77.3632 38.0204-2.35622e-06 38.0204Z" stroke="#6B7279" stroke-width="0.805469" fill="#FFFFFF" transform="matrix(1 0 0 1.00011 692.741 298.485)"/><text fill="#AAAAAA" font-family="Arial,Arial_MSFontService,sans-serif" font-weight="400" font-size="12" transform="matrix(0.805469 0 0 0.805556 695.963 309)">Detect<tspan font-size="12" x="0" y="13.6552">Operating</tspan><tspan font-size="12" x="0" y="28.5517">Mode</tspan></text><path d="M0 0 77.3632 0 77.3632 38.0204-2.35622e-06 38.0204Z" stroke="#6B7279" stroke-width="0.805469" fill="#FFFFFF" transform="matrix(1 0 0 1.00011 692.741 336.51)"/><text fill="#AAAAAA" font-family="Arial,Arial_MSFontService,sans-serif" font-weight="400" font-size="12" transform="matrix(0.805469 0 0 0.805556 695.963 358)">I<tspan font-size="12" x="2.99997" y="0">/</tspan><tspan font-size="12" x="6.00002" y="0">O Image</tspan></text><path d="M0 0 77.3632 0 77.3632 38.0204-2.35622e-06 38.0204Z" stroke="#6B7279" stroke-width="0.805469" fill="#FFFFFF" transform="matrix(1 0 0 1.00011 692.741 374.534)"/><text fill="#AAAAAA" font-family="Arial,Arial_MSFontService,sans-serif" font-weight="400" font-size="12" transform="matrix(0.805469 0 0 0.805556 695.963 391)">Man in<tspan font-size="12" x="0" y="13.6552">the Middle</tspan></text><path d="M0 0 77.3632 0 77.3632 38.0204-2.35622e-06 38.0204Z" stroke="#6B7279" stroke-width="0.805469" fill="#FFFFFF" transform="matrix(1 0 0 1.00011 692.741 412.559)"/><text fill="#AAAAAA" font-family="Arial,Arial_MSFontService,sans-serif" font-weight="400" font-size="12" transform="matrix(0.805469 0 0 0.805556 695.963 423)">Monitor<tspan font-size="12" x="0" y="13.6552">Process</tspan><tspan font-size="12" x="0" y="28.5517">State</tspan></text><path d="M0 0 77.3632 0 77.3632 38.0204-2.35622e-06 38.0204Z" stroke="#6B7279" stroke-width="0.805469" fill="#FFFFFF" transform="matrix(1 0 0 1.00011 692.741 450.583)"/><text fill="#AAAAAA" font-family="Arial,Arial_MSFontService,sans-serif" font-weight="400" font-size="9" transform="matrix(0.805469 0 0 0.805556 695.963 466)">Point <tspan font-size="9" x="24" y="0">&amp; </tspan><tspan font-size="9" x="33" y="0">Tag</tspan><tspan font-size="9" x="0" y="13.6552">Identification</tspan></text><path d="M0 0 77.3632 0 77.3632 38.0204-2.35622e-06 38.0204Z" stroke="#6B7279" stroke-width="0.805469" fill="#FFFFFF" transform="matrix(1 0 0 1.00011 692.741 488.608)"/><text fill="#AAAAAA" font-family="Arial,Arial_MSFontService,sans-serif" font-weight="400" font-size="12" transform="matrix(0.805469 0 0 0.805556 695.963 505)">Program<tspan font-size="12" x="0" y="13.6552">Upload</tspan></text><path d="M0 0 77.3632 0 77.3632 38.0204-2.35622e-06 38.0204Z" stroke="#6B7279" stroke-width="0.805469" fill="#FC6B6B" transform="matrix(1 0 0 1.00011 692.741 526.632)"/><text font-family="Arial,Arial_MSFontService,sans-serif" font-weight="400" font-size="12" transform="matrix(0.805469 0 0 0.805556 695.963 543)">Screen<tspan font-size="12" x="0" y="13.6552">Capture</tspan></text><path d="M0 0 77.3632 0 77.3632 38.0204-2.35622e-06 38.0204Z" stroke="#6B7279" stroke-width="0.805469" fill="#FFFFFF" transform="matrix(1 0 0 1.00011 692.741 564.656)"/><text fill="#AAAAAA" font-family="Arial,Arial_MSFontService,sans-serif" font-weight="400" font-size="12" transform="matrix(0.805469 0 0 0.805556 695.963 581)">Wireless<tspan font-size="12" x="0" y="13.6552">Sniffing</tspan><tspan fill="#000000" font-weight="700" font-size="12" x="16.0237" y="-465.517">Collection</tspan></text><path d="M0 0 77.3632 0 77.3632 38.0204-2.35622e-06 38.0204Z" stroke="#6B7279" stroke-width="0.805469" fill="#FFFFFF" transform="matrix(1 0 0 1.00011 778.701 222.436)"/><text fill="#AAAAAA" font-family="Arial,Arial_MSFontService,sans-serif" font-weight="400" font-size="12" transform="matrix(0.805469 0 0 0.805556 781.922 238)">Commonly<tspan font-size="12" x="0" y="14.8966">Used Port</tspan></text><path d="M0 0 77.3632 0 77.3632 38.0204-2.35622e-06 38.0204Z" stroke="#6B7279" stroke-width="0.805469" fill="#FFFFFF" transform="matrix(1 0 0 1.00011 778.701 260.461)"/><text fill="#AAAAAA" font-family="Arial,Arial_MSFontService,sans-serif" font-weight="400" font-size="12" transform="matrix(0.805469 0 0 0.805556 781.922 276)">Connection<tspan font-size="12" x="0" y="14.8966">Proxy</tspan></text><path d="M0 0 77.3632 0 77.3632 38.0204-2.35622e-06 38.0204Z" stroke="#6B7279" stroke-width="0.805469" fill="#FC6B6B" transform="matrix(1 0 0 1.00011 778.701 298.485)"/><text font-family="Arial,Arial_MSFontService,sans-serif" font-weight="400" font-size="9" transform="matrix(0.805469 0 0 0.805556 781.922 306)">Standard<tspan font-size="9" x="0" y="11.1724">Application</tspan><tspan font-size="9" x="0" y="22.3448">Layer</tspan><tspan font-size="9" x="0" y="33.5172">Protocol</tspan><tspan font-weight="700" font-size="12" x="15.0238" y="-139.034">Command</tspan><tspan font-weight="700" font-size="12" x="33.5237" y="-124.138">and</tspan><tspan font-weight="700" font-size="12" x="23.5237" y="-109.241">Control</tspan></text><path d="M0 0 77.3632 0 77.3632 38.0204-2.35622e-06 38.0204Z" stroke="#6B7279" stroke-width="0.805469" fill="#FFFFFF" transform="matrix(1 0 0 1.00011 864.66 222.436)"/><text fill="#AAAAAA" font-family="Arial,Arial_MSFontService,sans-serif" font-weight="400" font-size="12" transform="matrix(0.805469 0 0 0.805556 867.882 232)">Activate<tspan font-size="12" x="0" y="14.8966">Firmware</tspan><tspan font-size="12" x="0" y="29.7931">Update Mode</tspan></text><path d="M0 0 77.3632 0 77.3632 38.0204-2.35622e-06 38.0204Z" stroke="#6B7279" stroke-width="0.805469" fill="#FFFFFF" transform="matrix(1 0 0 1.00011 864.66 260.461)"/><text fill="#AAAAAA" font-family="Arial,Arial_MSFontService,sans-serif" font-weight="400" font-size="12" transform="matrix(0.805469 0 0 0.805556 867.882 276)">Alarm<tspan font-size="12" x="0" y="14.8966">Suppression</tspan></text><path d="M0 0 77.3632 0 77.3632 38.0204-2.35622e-06 38.0204Z" stroke="#6B7279" stroke-width="0.805469" fill="#FFFFFF" transform="matrix(1 0 0 1.00011 864.66 298.485)"/><text fill="#AAAAAA" font-family="Arial,Arial_MSFontService,sans-serif" font-weight="400" font-size="12" transform="matrix(0.805469 0 0 0.805556 867.882 309)">Block<tspan font-size="12" x="0" y="13.6552">Command</tspan><tspan font-size="12" x="0" y="28.5517">Message</tspan></text><path d="M0 0 77.3632 0 77.3632 38.0204-2.35622e-06 38.0204Z" stroke="#6B7279" stroke-width="0.805469" fill="#FFFFFF" transform="matrix(1 0 0 1.00011 864.66 336.51)"/><text fill="#AAAAAA" font-family="Arial,Arial_MSFontService,sans-serif" font-weight="400" font-size="12" transform="matrix(0.805469 0 0 0.805556 867.882 347)">Block<tspan font-size="12" x="0" y="13.6552">Reporting</tspan><tspan font-size="12" x="0" y="28.5517">Message</tspan></text><path d="M0 0 77.3632 0 77.3632 38.0204-2.35622e-06 38.0204Z" stroke="#6B7279" stroke-width="0.805469" fill="#FFFFFF" transform="matrix(1 0 0 1.00011 864.66 374.534)"/><text fill="#AAAAAA" font-family="Arial,Arial_MSFontService,sans-serif" font-weight="400" font-size="12" transform="matrix(0.805469 0 0 0.805556 867.882 391)">Block<tspan font-size="12" x="0" y="13.6552">Serial COM</tspan></text><path d="M0 0 77.3632 0 77.3632 38.0204-2.35622e-06 38.0204Z" stroke="#6B7279" stroke-width="0.805469" fill="#FFFFFF" transform="matrix(1 0 0 1.00011 864.66 412.559)"/><text fill="#AAAAAA" font-family="Arial,Arial_MSFontService,sans-serif" font-weight="400" font-size="12" transform="matrix(0.805469 0 0 0.805556 867.882 429)">Data<tspan font-size="12" x="0" y="13.6552">Destruction</tspan></text><path d="M0 0 77.3632 0 77.3632 38.0204-2.35622e-06 38.0204Z" stroke="#6B7279" stroke-width="0.805469" fill="#FFFFFF" transform="matrix(1 0 0 1.00011 864.66 450.583)"/><text fill="#AAAAAA" font-family="Arial,Arial_MSFontService,sans-serif" font-weight="400" font-size="12" transform="matrix(0.805469 0 0 0.805556 867.882 467)">Denial<tspan font-size="12" x="0" y="13.6552">of Service</tspan></text><path d="M0 0 77.3632 0 77.3632 38.0204-2.35622e-06 38.0204Z" stroke="#6B7279" stroke-width="0.805469" fill="#FFFFFF" transform="matrix(1 0 0 1.00011 864.66 488.608)"/><text fill="#AAAAAA" font-family="Arial,Arial_MSFontService,sans-serif" font-weight="400" font-size="8" transform="matrix(0.805469 0 0 0.805556 867.882 504)">Device<tspan font-size="8" x="0" y="13.6552">Restart</tspan>/<tspan font-size="8" x="27" y="13.6552">Shutdown</tspan></text><path d="M0 0 77.3632 0 77.3632 38.0204-2.35622e-06 38.0204Z" stroke="#6B7279" stroke-width="0.805469" fill="#FFFFFF" transform="matrix(1 0 0 1.00011 864.66 526.632)"/><text fill="#AAAAAA" font-family="Arial,Arial_MSFontService,sans-serif" font-weight="400" font-size="12" transform="matrix(0.805469 0 0 0.805556 867.882 543)">Manipulate<tspan font-size="12" x="0" y="13.6552">I</tspan><tspan font-size="12" x="3.00005" y="13.6552">/</tspan><tspan font-size="12" x="6.00002" y="13.6552">O Image</tspan></text><path d="M0 0 77.3632 0 77.3632 38.0204-2.35622e-06 38.0204Z" stroke="#6B7279" stroke-width="0.805469" fill="#FFFFFF" transform="matrix(1 0 0 1.00011 864.66 564.656)"/><text fill="#AAAAAA" font-family="Arial,Arial_MSFontService,sans-serif" font-weight="400" font-size="12" transform="matrix(0.805469 0 0 0.805556 867.882 575)">Modify<tspan font-size="12" x="0" y="13.6552">Alarm</tspan><tspan font-size="12" x="0" y="28.5517">Settings</tspan></text><path d="M0 0 77.3632 0 77.3632 38.0204-2.35622e-06 38.0204Z" stroke="#6B7279" stroke-width="0.805469" fill="#FFFFFF" transform="matrix(1 0 0 1.00011 864.66 602.681)"/><text fill="#AAAAAA" font-family="Arial,Arial_MSFontService,sans-serif" font-weight="400" font-size="12" transform="matrix(0.805469 0 0 0.805556 867.882 625)">Rootkit</text><path d="M0 0 77.3632 0 77.3632 38.0204-2.35622e-06 38.0204Z" stroke="#6B7279" stroke-width="0.805469" fill="#FFFFFF" transform="matrix(1 0 0 1.00011 864.66 640.705)"/><text fill="#AAAAAA" font-family="Arial,Arial_MSFontService,sans-serif" font-weight="400" font-size="12" transform="matrix(0.805469 0 0 0.805556 867.882 657)">Service<tspan font-size="12" x="0" y="13.6552">Stop</tspan></text><path d="M0 0 77.3632 0 77.3632 38.0204-2.35622e-06 38.0204Z" stroke="#6B7279" stroke-width="0.805469" fill="#FFFFFF" transform="matrix(1 0 0 1.00011 864.66 678.73)"/><text fill="#AAAAAA" font-family="Arial,Arial_MSFontService,sans-serif" font-weight="400" font-size="12" transform="matrix(0.805469 0 0 0.805556 867.882 695)">System<tspan font-size="12" x="0" y="13.6552">Firmware</tspan><tspan fill="#000000" font-weight="700" font-size="12" x="27.0237" y="-621.931">Inhibit</tspan><tspan fill="#000000" font-weight="700" font-size="12" x="15.5238" y="-607.034">Response</tspan><tspan fill="#000000" font-weight="700" font-size="12" x="20.0237" y="-592.138">Function</tspan></text><path d="M0 0 77.3632 0 77.3632 38.0204-2.35622e-06 38.0204Z" stroke="#6B7279" stroke-width="0.805469" fill="#FFFFFF" transform="matrix(1 0 0 1.00011 950.619 222.436)"/><text fill="#AAAAAA" font-family="Arial,Arial_MSFontService,sans-serif" font-weight="400" font-size="12" transform="matrix(0.805469 0 0 0.805556 953.841 238)">Brute<tspan font-size="12" x="0" y="14.8966">Force I</tspan><tspan font-size="12" x="37" y="14.8966">/</tspan><tspan font-size="12" x="40" y="14.8966">O</tspan></text><path d="M0 0 77.3632 0 77.3632 38.0204-2.35622e-06 38.0204Z" stroke="#6B7279" stroke-width="0.805469" fill="#FC6B6B" transform="matrix(1 0 0 1.00011 950.619 260.461)"/><text font-family="Arial,Arial_MSFontService,sans-serif" font-weight="400" font-size="12" transform="matrix(0.805469 0 0 0.805556 953.841 276)">Modify<tspan font-size="12" x="0" y="14.8966">Parameter</tspan></text><path d="M0 0 77.3632 0 77.3632 38.0204-2.35622e-06 38.0204Z" stroke="#6B7279" stroke-width="0.805469" fill="#FFFFFF" transform="matrix(1 0 0 1.00011 950.619 298.485)"/><text fill="#AAAAAA" font-family="Arial,Arial_MSFontService,sans-serif" font-weight="400" font-size="12" transform="matrix(0.805469 0 0 0.805556 953.841 314)">Module<tspan font-size="12" x="0" y="14.8966">Firmware</tspan></text><path d="M0 0 77.3632 0 77.3632 38.0204-2.35622e-06 38.0204Z" stroke="#6B7279" stroke-width="0.805469" fill="#FFFFFF" transform="matrix(1 0 0 1.00011 950.619 336.51)"/><text fill="#AAAAAA" font-family="Arial,Arial_MSFontService,sans-serif" font-weight="400" font-size="12" transform="matrix(0.805469 0 0 0.805556 953.841 347)">Spoof<tspan font-size="12" x="0" y="13.6552">Reporting</tspan><tspan font-size="12" x="0" y="28.5517">Message</tspan></text><path d="M0 0 77.3632 0 77.3632 38.0204-2.35622e-06 38.0204Z" stroke="#6B7279" stroke-width="0.805469" fill="#FFFFFF" transform="matrix(1 0 0 1.00011 950.619 374.534)"/><text fill="#AAAAAA" font-family="Arial,Arial_MSFontService,sans-serif" font-weight="400" font-size="11" transform="matrix(0.805469 0 0 0.805556 953.841 385)">Unauthorized<tspan font-size="11" x="0" y="13.6552">Command</tspan><tspan font-size="11" x="0" y="28.5517">Message</tspan><tspan fill="#000000" font-weight="700" font-size="12" x="26.0237" y="-237.103">Impair</tspan><tspan fill="#000000" font-weight="700" font-size="12" x="20.0237" y="-222.207">Process</tspan><tspan fill="#000000" font-weight="700" font-size="12" x="23.5237" y="-207.31">Control</tspan></text><path d="M0 0 77.3632 0 77.3632 38.0204-2.35622e-06 38.0204Z" stroke="#6B7279" stroke-width="0.805469" fill="#FFFFFF" transform="matrix(1 0 0 1.00011 1036.58 222.436)"/><text fill="#AAAAAA" font-family="Arial,Arial_MSFontService,sans-serif" font-weight="400" font-size="12" transform="matrix(0.805469 0 0 0.805556 1039.8 238)">Damage to<tspan font-size="12" x="0" y="14.8966">Property</tspan></text><path d="M0 0 77.3632 0 77.3632 38.0204-2.35622e-06 38.0204Z" stroke="#6B7279" stroke-width="0.805469" fill="#FFFFFF" transform="matrix(1 0 0 1.00011 1036.58 260.461)"/><text fill="#AAAAAA" font-family="Arial,Arial_MSFontService,sans-serif" font-weight="400" font-size="12" transform="matrix(0.805469 0 0 0.805556 1039.8 276)">Denial<tspan font-size="12" x="0" y="14.8966">of Control</tspan></text><path d="M0 0 77.3632 0 77.3632 38.0204-2.35622e-06 38.0204Z" stroke="#6B7279" stroke-width="0.805469" fill="#FFFFFF" transform="matrix(1 0 0 1.00011 1036.58 298.485)"/><text fill="#AAAAAA" font-family="Arial,Arial_MSFontService,sans-serif" font-weight="400" font-size="12" transform="matrix(0.805469 0 0 0.805556 1039.8 314)">Denial<tspan font-size="12" x="0" y="14.8966">of View</tspan></text><path d="M0 0 77.3632 0 77.3632 38.0204-2.35622e-06 38.0204Z" stroke="#6B7279" stroke-width="0.805469" fill="#FC6B6B" transform="matrix(1 0 0 1.00011 1036.58 336.51)"/><text font-family="Arial,Arial_MSFontService,sans-serif" font-weight="400" font-size="11" transform="matrix(0.805469 0 0 0.805556 1039.8 353)">Loss of<tspan font-size="11" x="0" y="13.6552">Availability</tspan></text><path d="M0 0 77.3632 0 77.3632 38.0204-2.35622e-06 38.0204Z" stroke="#6B7279" stroke-width="0.805469" fill="#FFFFFF" transform="matrix(1 0 0 1.00011 1036.58 374.534)"/><text fill="#AAAAAA" font-family="Arial,Arial_MSFontService,sans-serif" font-weight="400" font-size="12" transform="matrix(0.805469 0 0 0.805556 1039.8 391)">Loss<tspan font-size="12" x="0" y="13.6552">of Control</tspan></text><path d="M0 0 77.3632 0 77.3632 38.0204-2.35622e-06 38.0204Z" stroke="#6B7279" stroke-width="0.805469" fill="#FFFFFF" transform="matrix(1 0 0 1.00011 1036.58 412.559)"/><text fill="#AAAAAA" font-family="Arial,Arial_MSFontService,sans-serif" font-weight="400" font-size="11" transform="matrix(0.805469 0 0 0.805556 1039.8 423)">Loss of<tspan font-size="11" x="0" y="13.6552">Productivity</tspan><tspan font-size="11" x="0" y="28.5517">and Revenue</tspan></text><path d="M0 0 77.3632 0 77.3632 38.0204-2.35622e-06 38.0204Z" stroke="#6B7279" stroke-width="0.805469" fill="#FFFFFF" transform="matrix(1 0 0 1.00011 1036.58 450.583)"/><text fill="#AAAAAA" font-family="Arial,Arial_MSFontService,sans-serif" font-weight="400" font-size="12" transform="matrix(0.805469 0 0 0.805556 1039.8 467)">Loss of<tspan font-size="12" x="0" y="13.6552">Protection</tspan></text><path d="M0 0 77.3632 0 77.3632 38.0204-2.35622e-06 38.0204Z" stroke="#6B7279" stroke-width="0.805469" fill="#FFFFFF" transform="matrix(1 0 0 1.00011 1036.58 488.608)"/><text fill="#AAAAAA" font-family="Arial,Arial_MSFontService,sans-serif" font-weight="400" font-size="12" transform="matrix(0.805469 0 0 0.805556 1039.8 505)">Loss<tspan font-size="12" x="0" y="13.6552">of Safety</tspan></text><path d="M0 0 77.3632 0 77.3632 38.0204-2.35622e-06 38.0204Z" stroke="#6B7279" stroke-width="0.805469" fill="#FFFFFF" transform="matrix(1 0 0 1.00011 1036.58 526.632)"/><text fill="#AAAAAA" font-family="Arial,Arial_MSFontService,sans-serif" font-weight="400" font-size="12" transform="matrix(0.805469 0 0 0.805556 1039.8 543)">Loss<tspan font-size="12" x="0" y="13.6552">of View</tspan></text><path d="M0 0 77.3632 0 77.3632 38.0204-2.35622e-06 38.0204Z" stroke="#6B7279" stroke-width="0.805469" fill="#FC6B6B" transform="matrix(1 0 0 1.00011 1036.58 564.656)"/><text font-family="Arial,Arial_MSFontService,sans-serif" font-weight="400" font-size="11" transform="matrix(0.805469 0 0 0.805556 1039.8 581)">Manipulation<tspan font-size="11" x="0" y="13.6552">of Control</tspan></text><path d="M0 0 77.3632 0 77.3632 38.0204-2.35622e-06 38.0204Z" stroke="#6B7279" stroke-width="0.805469" fill="#FFFFFF" transform="matrix(1 0 0 1.00011 1036.58 602.681)"/><text fill="#AAAAAA" font-family="Arial,Arial_MSFontService,sans-serif" font-weight="400" font-size="11" transform="matrix(0.805469 0 0 0.805556 1039.8 619)">Manipulation<tspan font-size="11" x="0" y="13.6552">of View</tspan></text><path d="M0 0 77.3632 0 77.3632 38.0204-2.35622e-06 38.0204Z" stroke="#6B7279" stroke-width="0.805469" fill="#FFFFFF" transform="matrix(1 0 0 1.00011 1036.58 640.705)"/><text fill="#AAAAAA" font-family="Arial,Arial_MSFontService,sans-serif" font-weight="400" font-size="12" transform="matrix(0.805469 0 0 0.805556 1039.8 651)">Theft of<tspan font-size="12" x="0" y="14.8966">Operational</tspan><tspan font-size="12" x="0" y="28.5517">Information</tspan><tspan fill="#000000" font-weight="700" font-size="12" x="24.5238" y="-552.414">Impact</tspan></text></g></svg>