<svg width="1056" height="594" xmlns="http://www.w3.org/2000/svg" xmlns:xlink="http://www.w3.org/1999/xlink" overflow="hidden"><defs><clipPath id="clip0"><rect x="112" y="129" width="1056" height="594"/></clipPath></defs><g clip-path="url(#clip0)" transform="translate(-112 -129)"><path d="M622.427 137.25C624.705 137.25 626.552 139.097 626.552 141.375L626.552 165.409C626.552 167.687 624.705 169.534 622.427 169.534L120.25 169.534C117.972 169.534 116.125 167.687 116.125 165.409L116.125 141.375C116.125 139.097 117.972 137.25 120.25 137.25Z" stroke="#000000" stroke-width="0.825" fill="#FFFFFF"/><path d="M147.224 129.275C149.502 129.275 151.349 131.122 151.349 133.4L151.349 139.45C151.349 141.728 149.502 143.575 147.224 143.575L126.85 143.575C124.572 143.575 122.725 141.728 122.725 139.45L122.725 133.4C122.725 131.122 124.572 129.275 126.85 129.275Z" fill="#FFFFFF"/><text font-family="Arial,Arial_MSFontService,sans-serif" font-weight="400" font-size="12" transform="matrix(0.825 0 0 0.825 124.375 140)">about<tspan font-size="28" x="-0.999996" y="24.2424">Defensive Posture</tspan></text><path d="M1159.72 137.25C1162 137.25 1163.84 139.097 1163.84 141.375L1163.84 165.409C1163.84 167.687 1162 169.534 1159.72 169.534L657.541 169.534C655.263 169.534 653.416 167.687 653.416 165.409L653.416 141.375C653.416 139.097 655.263 137.25 657.541 137.25Z" stroke="#000000" stroke-width="0.825" fill="#FFFFFF"/><path d="M688.926 129.275C691.204 129.275 693.051 131.122 693.051 133.4L693.051 139.45C693.051 141.728 691.204 143.575 688.926 143.575L664.141 143.575C661.863 143.575 660.016 141.728 660.016 139.45L660.016 133.4C660.016 131.122 661.863 129.275 664.141 129.275Z" fill="#FFFFFF"/><text font-family="Arial,Arial_MSFontService,sans-serif" font-weight="400" font-size="12" transform="matrix(0.825 0 0 0.825 661.666 140)">legend</text><path d="M657.541 142.912 783.085 142.912 783.085 155.287 657.541 155.287Z" fill="#74C476"/><text font-family="Arial,Arial_MSFontService,sans-serif" font-weight="400" font-size="12" transform="matrix(0.825 0 0 0.825 696.388 164)">Prevention</text><path d="M783.085 142.912 908.629 142.912 908.629 155.287 783.085 155.287Z" fill="#C4D99B"/><text font-family="Arial,Arial_MSFontService,sans-serif" font-weight="400" font-size="12" transform="matrix(0.825 0 0 0.825 824.407 164)">Detection</text><path d="M908.629 142.912 1034.17 142.912 1034.17 155.287 908.629 155.287Z" fill="#FDAE6B"/><text font-family="Arial,Arial_MSFontService,sans-serif" font-weight="400" font-size="12" transform="matrix(0.825 0 0 0.825 947.477 164)">Response</text><path d="M1034.17 142.912 1159.72 142.912 1159.72 155.287 1034.17 155.287Z" fill="#FC6B6B"/><text font-family="Arial,Arial_MSFontService,sans-serif" font-weight="400" font-size="12" transform="matrix(0.825 0 0 0.825 1084.57 164)">None</text><path d="M116.125 213.426 195.364 213.426 195.364 252.368 116.125 252.368Z" stroke="#6B7279" stroke-width="0.825" fill="#FC6B6B"/><text font-family="Arial,Arial_MSFontService,sans-serif" font-weight="400" font-size="12" transform="matrix(0.825 0 0 0.825 119.425 230)">Drive<tspan font-size="12" x="28" y="0">-</tspan><tspan font-size="12" x="32" y="0">by</tspan><tspan font-size="12" x="0" y="14.5455">Compromise</tspan></text><path d="M116.125 252.368 195.364 252.368 195.364 291.311 116.125 291.311Z" stroke="#6B7279" stroke-width="0.825" fill="#FC6B6B"/><text font-family="Arial,Arial_MSFontService,sans-serif" font-weight="400" font-size="10" transform="matrix(0.825 0 0 0.825 119.425 262)">Exploit<tspan font-size="10" x="0" y="14.5455">Public</tspan>-<tspan font-size="10" x="33" y="14.5455">Facing</tspan><tspan font-size="10" x="0" y="29.0909">Application</tspan></text><path d="M116.125 291.311 195.364 291.311 195.364 330.253 116.125 330.253Z" stroke="#6B7279" stroke-width="0.825" fill="#FC6B6B"/><text font-family="Arial,Arial_MSFontService,sans-serif" font-weight="400" font-size="11" transform="matrix(0.825 0 0 0.825 119.425 302)">Exploitation<tspan font-size="11" x="0" y="14.5455">of Remote</tspan><tspan font-size="11" x="0" y="29.0909">Services</tspan></text><path d="M116.125 330.253 195.364 330.253 195.364 369.195 116.125 369.195Z" stroke="#6B7279" stroke-width="0.825" fill="#74C476"/><text font-family="Arial,Arial_MSFontService,sans-serif" font-weight="400" font-size="12" transform="matrix(0.825 0 0 0.825 119.425 341)">External<tspan font-size="12" x="0" y="14.5455">Remote</tspan><tspan font-size="12" x="0" y="29.0909">Services</tspan></text><path d="M116.125 369.195 195.364 369.195 195.364 408.138 116.125 408.138Z" stroke="#6B7279" stroke-width="0.825" fill="#FC6B6B"/><text font-family="Arial,Arial_MSFontService,sans-serif" font-weight="400" font-size="12" transform="matrix(0.825 0 0 0.825 119.425 379)">Internet<tspan font-size="12" x="0" y="15.7576">Accessible</tspan><tspan font-size="12" x="0" y="30.303">Device</tspan></text><path d="M116.125 408.138 195.364 408.138 195.364 447.08 116.125 447.08Z" stroke="#6B7279" stroke-width="0.825" fill="#CDD85C"/><text font-family="Arial,Arial_MSFontService,sans-serif" font-weight="400" font-size="12" transform="matrix(0.825 0 0 0.825 119.425 425)">Remote<tspan font-size="12" x="0" y="13.3333">Services</tspan></text><path d="M116.125 447.08 195.364 447.08 195.364 486.022 116.125 486.022Z" stroke="#6B7279" stroke-width="0.825" fill="#FC6B6B"/><text font-family="Arial,Arial_MSFontService,sans-serif" font-weight="400" font-size="9" transform="matrix(0.825 0 0 0.825 119.425 454)">Replication<tspan font-size="9" x="0" y="12.1212">Through</tspan><tspan font-size="9" x="0" y="23.0303">Removable</tspan><tspan font-size="9" x="0" y="35.1515">Media</tspan></text><path d="M116.125 486.022 195.364 486.022 195.364 524.965 116.125 524.965Z" stroke="#6B7279" stroke-width="0.825" fill="#FC6B6B"/><text font-family="Arial,Arial_MSFontService,sans-serif" font-weight="400" font-size="12" transform="matrix(0.825 0 0 0.825 119.425 502)">Rogue<tspan font-size="12" x="0" y="14.5455">Master</tspan></text><path d="M116.125 524.965 195.364 524.965 195.364 563.907 116.125 563.907Z" stroke="#6B7279" stroke-width="0.825" fill="#FC6B6B"/><text font-family="Arial,Arial_MSFontService,sans-serif" font-weight="400" font-size="10" transform="matrix(0.825 0 0 0.825 119.425 541)">Spearphishing<tspan font-size="10" x="0" y="13.3333">Attachment</tspan></text><path d="M116.125 563.907 195.364 563.907 195.364 602.849 116.125 602.849Z" stroke="#6B7279" stroke-width="0.825" fill="#FC6B6B"/><text font-family="Arial,Arial_MSFontService,sans-serif" font-weight="400" font-size="12" transform="matrix(0.825 0 0 0.825 119.425 574)">Supply<tspan font-size="12" x="0" y="14.5455">Chain</tspan><tspan font-size="12" x="0" y="29.0909">Compromise</tspan></text><path d="M116.125 602.849 195.364 602.849 195.364 641.791 116.125 641.791Z" stroke="#6B7279" stroke-width="0.825" fill="#FC6B6B"/><text font-family="Arial,Arial_MSFontService,sans-serif" font-weight="400" font-size="12" transform="matrix(0.825 0 0 0.825 119.425 613)">Transient<tspan font-size="12" x="0" y="14.5455">Cyber</tspan><tspan font-size="12" x="0" y="29.0909">Asset</tspan></text><path d="M116.125 641.791 195.364 641.791 195.364 680.734 116.125 680.734Z" stroke="#6B7279" stroke-width="0.825" fill="#FC6B6B"/><text font-family="Arial,Arial_MSFontService,sans-serif" font-weight="400" font-size="12" transform="matrix(0.825 0 0 0.825 119.425 658)">Wireless<tspan font-size="12" x="0" y="14.5455">Compromise</tspan><tspan font-weight="700" font-size="12" x="29.0237" y="-566.061">Initial</tspan><tspan font-weight="700" font-size="12" x="22.5237" y="-551.515">Access</tspan></text><path d="M204.169 213.426 283.408 213.426 283.408 252.368 204.169 252.368Z" stroke="#6B7279" stroke-width="0.825" fill="#74C476"/><text font-family="Arial,Arial_MSFontService,sans-serif" font-weight="400" font-size="12" transform="matrix(0.825 0 0 0.825 207.469 224)">Change<tspan font-size="12" x="0" y="14.5455">Operating</tspan><tspan font-size="12" x="0" y="29.0909">Mode</tspan></text><path d="M204.169 252.368 283.408 252.368 283.408 291.311 204.169 291.311Z" stroke="#6B7279" stroke-width="0.825" fill="#FC6B6B"/><text font-family="Arial,Arial_MSFontService,sans-serif" font-weight="400" font-size="11" transform="matrix(0.825 0 0 0.825 207.469 269)">Command<tspan font-size="11" x="47" y="0">-</tspan><tspan font-size="11" x="51" y="0">Line</tspan><tspan font-size="11" x="0" y="14.5455">Interface</tspan></text><path d="M204.169 291.311 283.408 291.311 283.408 330.253 204.169 330.253Z" stroke="#6B7279" stroke-width="0.825" fill="#FC6B6B"/><text font-family="Arial,Arial_MSFontService,sans-serif" font-weight="400" font-size="12" transform="matrix(0.825 0 0 0.825 207.469 302)">Execution<tspan font-size="12" x="0" y="14.5455">through</tspan><tspan font-size="12" x="0" y="29.0909">API</tspan></text><path d="M204.169 330.253 283.408 330.253 283.408 369.195 204.169 369.195Z" stroke="#6B7279" stroke-width="0.825" fill="#FC6B6B"/><text font-family="Arial,Arial_MSFontService,sans-serif" font-weight="400" font-size="12" transform="matrix(0.825 0 0 0.825 207.469 341)">Graphical<tspan font-size="12" x="0" y="14.5455">User</tspan><tspan font-size="12" x="0" y="29.0909">Interface</tspan></text><path d="M204.169 369.195 283.408 369.195 283.408 408.138 204.169 408.138Z" stroke="#6B7279" stroke-width="0.825" fill="#FC6B6B"/><text font-family="Arial,Arial_MSFontService,sans-serif" font-weight="400" font-size="12" transform="matrix(0.825 0 0 0.825 207.469 392)">Hooking</text><path d="M204.169 408.138 283.408 408.138 283.408 447.08 204.169 447.08Z" stroke="#6B7279" stroke-width="0.825" fill="#CDD85C"/><text font-family="Arial,Arial_MSFontService,sans-serif" font-weight="400" font-size="12" transform="matrix(0.825 0 0 0.825 207.469 418)">Modify<tspan font-size="12" x="0" y="14.5455">Controller</tspan><tspan font-size="12" x="0" y="30.303">Tasking</tspan></text><path d="M204.169 447.08 283.408 447.08 283.408 486.022 204.169 486.022Z" stroke="#6B7279" stroke-width="0.825" fill="#FC6B6B"/><text font-family="Arial,Arial_MSFontService,sans-serif" font-weight="400" font-size="12" transform="matrix(0.825 0 0 0.825 207.469 469)">Native API</text><path d="M204.169 486.022 283.408 486.022 283.408 524.965 204.169 524.965Z" stroke="#6B7279" stroke-width="0.825" fill="#FC6B6B"/><text font-family="Arial,Arial_MSFontService,sans-serif" font-weight="400" font-size="12" transform="matrix(0.825 0 0 0.825 207.469 508)">Scripting</text><path d="M204.169 524.965 283.408 524.965 283.408 563.907 204.169 563.907Z" stroke="#6B7279" stroke-width="0.825" fill="#FC6B6B"/><text font-family="Arial,Arial_MSFontService,sans-serif" font-weight="400" font-size="12" transform="matrix(0.825 0 0 0.825 207.469 541)">User<tspan font-size="12" x="0" y="14.5455">Execution</tspan><tspan font-weight="700" font-size="12" x="16.0237" y="-416.97">Execution</tspan></text><path d="M292.212 213.426 371.451 213.426 371.451 252.368 292.212 252.368Z" stroke="#6B7279" stroke-width="0.825" fill="#FEBC57"/><text font-family="Arial,Arial_MSFontService,sans-serif" font-weight="400" font-size="12" transform="matrix(0.825 0 0 0.825 295.512 230)">Modify<tspan font-size="12" x="0" y="14.5455">Program</tspan></text><path d="M292.212 252.368 371.451 252.368 371.451 291.311 292.212 291.311Z" stroke="#6B7279" stroke-width="0.825" fill="#FEBC57"/><text font-family="Arial,Arial_MSFontService,sans-serif" font-weight="400" font-size="12" transform="matrix(0.825 0 0 0.825 295.512 269)">Module<tspan font-size="12" x="0" y="14.5455">Firmware</tspan></text><path d="M292.212 291.311 371.451 291.311 371.451 330.253 292.212 330.253Z" stroke="#6B7279" stroke-width="0.825" fill="#FEBC57"/><text font-family="Arial,Arial_MSFontService,sans-serif" font-weight="400" font-size="12" transform="matrix(0.825 0 0 0.825 295.512 302)">Project<tspan font-size="12" x="0" y="14.5455">File</tspan><tspan font-size="12" x="0" y="29.0909">Infection</tspan></text><path d="M292.212 330.253 371.451 330.253 371.451 369.195 292.212 369.195Z" stroke="#6B7279" stroke-width="0.825" fill="#FEBC57"/><text font-family="Arial,Arial_MSFontService,sans-serif" font-weight="400" font-size="12" transform="matrix(0.825 0 0 0.825 295.512 347)">System<tspan font-size="12" x="0" y="14.5455">Firmware</tspan></text><path d="M292.212 369.195 371.451 369.195 371.451 408.138 292.212 408.138Z" stroke="#6B7279" stroke-width="0.825" fill="#CDD85C"/><text font-family="Arial,Arial_MSFontService,sans-serif" font-weight="400" font-size="12" transform="matrix(0.825 0 0 0.825 295.512 386)">Valid<tspan font-size="12" x="0" y="14.5455">Accounts</tspan><tspan font-weight="700" font-size="12" x="9.52374" y="-229.091">Persistence</tspan></text><path d="M380.256 213.426 459.495 213.426 459.495 252.368 380.256 252.368Z" stroke="#6B7279" stroke-width="0.825" fill="#FC6B6B"/><text font-family="Arial,Arial_MSFontService,sans-serif" font-weight="400" font-size="10" transform="matrix(0.825 0 0 0.825 383.556 223)">Exploitation<tspan font-size="10" x="0" y="14.5455">for Privilege</tspan><tspan font-size="10" x="0" y="29.0909">Escalation</tspan></text><path d="M380.256 252.368 459.495 252.368 459.495 291.311 380.256 291.311Z" stroke="#6B7279" stroke-width="0.825" fill="#FC6B6B"/><text font-family="Arial,Arial_MSFontService,sans-serif" font-weight="400" font-size="12" transform="matrix(0.825 0 0 0.825 383.556 275)">Hooking<tspan font-weight="700" font-size="12" x="19.5237" y="-101.818">Privilege</tspan><tspan font-weight="700" font-size="12" x="14.5237" y="-87.2727">Escalation</tspan></text><path d="M468.299 213.426 547.538 213.426 547.538 252.368 468.299 252.368Z" stroke="#6B7279" stroke-width="0.825" fill="#74C476"/><text font-family="Arial,Arial_MSFontService,sans-serif" font-weight="400" font-size="12" transform="matrix(0.825 0 0 0.825 471.599 224)">Change<tspan font-size="12" x="0" y="14.5455">Operating</tspan><tspan font-size="12" x="0" y="29.0909">Mode</tspan></text><path d="M468.299 252.368 547.538 252.368 547.538 291.311 468.299 291.311Z" stroke="#6B7279" stroke-width="0.825" fill="#FC6B6B"/><text font-family="Arial,Arial_MSFontService,sans-serif" font-weight="400" font-size="11" transform="matrix(0.825 0 0 0.825 471.599 269)">Exploitation<tspan font-size="11" x="0" y="14.5455">for Evasion</tspan></text><path d="M468.299 291.311 547.538 291.311 547.538 330.253 468.299 330.253Z" stroke="#6B7279" stroke-width="0.825" fill="#FC6B6B"/><text font-family="Arial,Arial_MSFontService,sans-serif" font-weight="400" font-size="12" transform="matrix(0.825 0 0 0.825 471.599 302)">Indicator<tspan font-size="12" x="0" y="14.5455">Removal</tspan><tspan font-size="12" x="0" y="29.0909">on Host</tspan></text><path d="M468.299 330.253 547.538 330.253 547.538 369.195 468.299 369.195Z" stroke="#6B7279" stroke-width="0.825" fill="#FC6B6B"/><text font-family="Arial,Arial_MSFontService,sans-serif" font-weight="400" font-size="11" transform="matrix(0.825 0 0 0.825 471.599 353)">Masquerading</text><path d="M468.299 369.195 547.538 369.195 547.538 408.138 468.299 408.138Z" stroke="#6B7279" stroke-width="0.825" fill="#FC6B6B"/><text font-family="Arial,Arial_MSFontService,sans-serif" font-weight="400" font-size="12" transform="matrix(0.825 0 0 0.825 471.599 392)">Rootkit</text><path d="M468.299 408.138 547.538 408.138 547.538 447.08 468.299 447.08Z" stroke="#6B7279" stroke-width="0.825" fill="#FC6B6B"/><text font-family="Arial,Arial_MSFontService,sans-serif" font-weight="400" font-size="12" transform="matrix(0.825 0 0 0.825 471.599 418)">Spoof<tspan font-size="12" x="0" y="14.5455">Reporting</tspan><tspan font-size="12" x="0" y="30.303">Message</tspan><tspan font-weight="700" font-size="12" x="22.0237" y="-267.879">Evasion</tspan></text><path d="M556.343 213.426 635.582 213.426 635.582 252.368 556.343 252.368Z" stroke="#6B7279" stroke-width="0.825" fill="#FC6B6B"/><text font-family="Arial,Arial_MSFontService,sans-serif" font-weight="400" font-size="12" transform="matrix(0.825 0 0 0.825 559.643 224)">Network<tspan font-size="12" x="0" y="14.5455">Connection</tspan><tspan font-size="12" x="0" y="29.0909">Enumeration</tspan></text><path d="M556.343 252.368 635.582 252.368 635.582 291.311 556.343 291.311Z" stroke="#6B7279" stroke-width="0.825" fill="#FC6B6B"/><text font-family="Arial,Arial_MSFontService,sans-serif" font-weight="400" font-size="12" transform="matrix(0.825 0 0 0.825 559.643 269)">Network<tspan font-size="12" x="0" y="14.5455">Sniffing</tspan></text><path d="M556.343 291.311 635.582 291.311 635.582 330.253 556.343 330.253Z" stroke="#6B7279" stroke-width="0.825" fill="#FC6B6B"/><text font-family="Arial,Arial_MSFontService,sans-serif" font-weight="400" font-size="12" transform="matrix(0.825 0 0 0.825 559.643 302)">Remote<tspan font-size="12" x="0" y="14.5455">System</tspan><tspan font-size="12" x="0" y="29.0909">Discovery</tspan></text><path d="M556.343 330.253 635.582 330.253 635.582 369.195 556.343 369.195Z" stroke="#6B7279" stroke-width="0.825" fill="#FC6B6B"/><text font-family="Arial,Arial_MSFontService,sans-serif" font-weight="400" font-size="10" transform="matrix(0.825 0 0 0.825 559.643 340)">Remote System<tspan font-size="10" x="0" y="14.5455">Information</tspan><tspan font-size="10" x="0" y="29.0909">Discovery</tspan></text><path d="M556.343 369.195 635.582 369.195 635.582 408.138 556.343 408.138Z" stroke="#6B7279" stroke-width="0.825" fill="#FC6B6B"/><text font-family="Arial,Arial_MSFontService,sans-serif" font-weight="400" font-size="12" transform="matrix(0.825 0 0 0.825 559.643 386)">Wireless<tspan font-size="12" x="0" y="14.5455">Sniffing</tspan><tspan font-weight="700" font-size="12" x="16.0237" y="-229.091">Discovery</tspan></text><path d="M644.386 213.426 723.625 213.426 723.625 252.368 644.386 252.368Z" stroke="#6B7279" stroke-width="0.825" fill="#74C476"/><text font-family="Arial,Arial_MSFontService,sans-serif" font-weight="400" font-size="12" transform="matrix(0.825 0 0 0.825 647.686 230)">Default<tspan font-size="12" x="0" y="14.5455">Credentials</tspan></text><path d="M644.386 252.368 723.625 252.368 723.625 291.311 644.386 291.311Z" stroke="#6B7279" stroke-width="0.825" fill="#FC6B6B"/><text font-family="Arial,Arial_MSFontService,sans-serif" font-weight="400" font-size="11" transform="matrix(0.825 0 0 0.825 647.686 263)">Exploitation<tspan font-size="11" x="0" y="14.5455">of Remote</tspan><tspan font-size="11" x="0" y="29.0909">Services</tspan></text><path d="M644.386 291.311 723.625 291.311 723.625 330.253 644.386 330.253Z" stroke="#6B7279" stroke-width="0.825" fill="#CDD85C"/><text font-family="Arial,Arial_MSFontService,sans-serif" font-weight="400" font-size="12" transform="matrix(0.825 0 0 0.825 647.686 302)">Lateral<tspan font-size="12" x="0" y="14.5455">Tool</tspan><tspan font-size="12" x="0" y="29.0909">Transfer</tspan></text><path d="M644.386 330.253 723.625 330.253 723.625 369.195 644.386 369.195Z" stroke="#6B7279" stroke-width="0.825" fill="#FEBC57"/><text font-family="Arial,Arial_MSFontService,sans-serif" font-weight="400" font-size="12" transform="matrix(0.825 0 0 0.825 647.686 347)">Program<tspan font-size="12" x="0" y="14.5455">Download</tspan></text><path d="M644.386 369.195 723.625 369.195 723.625 408.138 644.386 408.138Z" stroke="#6B7279" stroke-width="0.825" fill="#CDD85C"/><text font-family="Arial,Arial_MSFontService,sans-serif" font-weight="400" font-size="12" transform="matrix(0.825 0 0 0.825 647.686 386)">Remote<tspan font-size="12" x="0" y="14.5455">Services</tspan></text><path d="M644.386 408.138 723.625 408.138 723.625 447.08 644.386 447.08Z" stroke="#6B7279" stroke-width="0.825" fill="#CDD85C"/><text font-family="Arial,Arial_MSFontService,sans-serif" font-weight="400" font-size="12" transform="matrix(0.825 0 0 0.825 647.686 425)">Valid<tspan font-size="12" x="0" y="13.3333">Accounts</tspan><tspan font-weight="700" font-size="12" x="24.0237" y="-283.636">Lateral</tspan><tspan font-weight="700" font-size="12" x="14.5238" y="-269.091">Movement</tspan></text><path d="M732.43 213.426 811.669 213.426 811.669 252.368 732.43 252.368Z" stroke="#6B7279" stroke-width="0.825" fill="#CDD85C"/><text font-family="Arial,Arial_MSFontService,sans-serif" font-weight="400" font-size="12" transform="matrix(0.825 0 0 0.825 735.73 230)">Automated<tspan font-size="12" x="0" y="14.5455">Collection</tspan></text><path d="M732.43 252.368 811.669 252.368 811.669 291.311 732.43 291.311Z" stroke="#6B7279" stroke-width="0.825" fill="#FC6B6B"/><text font-family="Arial,Arial_MSFontService,sans-serif" font-weight="400" font-size="11" transform="matrix(0.825 0 0 0.825 735.73 263)">Data from<tspan font-size="11" x="0" y="14.5455">Information</tspan><tspan font-size="11" x="0" y="29.0909">Repositories</tspan></text><path d="M732.43 291.311 811.669 291.311 811.669 330.253 732.43 330.253Z" stroke="#6B7279" stroke-width="0.825" fill="#FC6B6B"/><text font-family="Arial,Arial_MSFontService,sans-serif" font-weight="400" font-size="12" transform="matrix(0.825 0 0 0.825 735.73 302)">Detect<tspan font-size="12" x="0" y="14.5455">Operating</tspan><tspan font-size="12" x="0" y="29.0909">Mode</tspan></text><path d="M732.43 330.253 811.669 330.253 811.669 369.195 732.43 369.195Z" stroke="#6B7279" stroke-width="0.825" fill="#FC6B6B"/><text font-family="Arial,Arial_MSFontService,sans-serif" font-weight="400" font-size="12" transform="matrix(0.825 0 0 0.825 735.73 353)">I<tspan font-size="12" x="3.00004" y="0">/</tspan><tspan font-size="12" x="6.00001" y="0">O Image</tspan></text><path d="M732.43 369.195 811.669 369.195 811.669 408.138 732.43 408.138Z" stroke="#6B7279" stroke-width="0.825" fill="#FC6B6B"/><text font-family="Arial,Arial_MSFontService,sans-serif" font-weight="400" font-size="12" transform="matrix(0.825 0 0 0.825 735.73 386)">Man in<tspan font-size="12" x="0" y="14.5455">the Middle</tspan></text><path d="M732.43 408.138 811.669 408.138 811.669 447.08 732.43 447.08Z" stroke="#6B7279" stroke-width="0.825" fill="#FC6B6B"/><text font-family="Arial,Arial_MSFontService,sans-serif" font-weight="400" font-size="12" transform="matrix(0.825 0 0 0.825 735.73 418)">Monitor<tspan font-size="12" x="0" y="14.5455">Process</tspan><tspan font-size="12" x="0" y="30.303">State</tspan></text><path d="M732.43 447.08 811.669 447.08 811.669 486.022 732.43 486.022Z" stroke="#6B7279" stroke-width="0.825" fill="#FC6B6B"/><text font-family="Arial,Arial_MSFontService,sans-serif" font-weight="400" font-size="9" transform="matrix(0.825 0 0 0.825 735.73 463)">Point <tspan font-size="9" x="24" y="0">&amp; </tspan><tspan font-size="9" x="33" y="0">Tag</tspan><tspan font-size="9" x="0" y="14.5455">Identification</tspan></text><path d="M732.43 486.022 811.669 486.022 811.669 524.965 732.43 524.965Z" stroke="#6B7279" stroke-width="0.825" fill="#FEBC57"/><text font-family="Arial,Arial_MSFontService,sans-serif" font-weight="400" font-size="12" transform="matrix(0.825 0 0 0.825 735.73 502)">Program<tspan font-size="12" x="0" y="14.5455">Upload</tspan></text><path d="M732.43 524.965 811.669 524.965 811.669 563.907 732.43 563.907Z" stroke="#6B7279" stroke-width="0.825" fill="#FC6B6B"/><text font-family="Arial,Arial_MSFontService,sans-serif" font-weight="400" font-size="12" transform="matrix(0.825 0 0 0.825 735.73 541)">Screen<tspan font-size="12" x="0" y="14.5455">Capture</tspan></text><path d="M732.43 563.907 811.669 563.907 811.669 602.849 732.43 602.849Z" stroke="#6B7279" stroke-width="0.825" fill="#FC6B6B"/><text font-family="Arial,Arial_MSFontService,sans-serif" font-weight="400" font-size="12" transform="matrix(0.825 0 0 0.825 735.73 580)">Wireless<tspan font-size="12" x="0" y="14.5455">Sniffing</tspan><tspan font-weight="700" font-size="12" x="16.0238" y="-464.242">Collection</tspan></text><path d="M820.473 213.426 899.712 213.426 899.712 252.368 820.473 252.368Z" stroke="#6B7279" stroke-width="0.825" fill="#CDD85C"/><text font-family="Arial,Arial_MSFontService,sans-serif" font-weight="400" font-size="12" transform="matrix(0.825 0 0 0.825 823.773 230)">Commonly<tspan font-size="12" x="0" y="14.5455">Used Port</tspan></text><path d="M820.473 252.368 899.712 252.368 899.712 291.311 820.473 291.311Z" stroke="#6B7279" stroke-width="0.825" fill="#CDD85C"/><text font-family="Arial,Arial_MSFontService,sans-serif" font-weight="400" font-size="12" transform="matrix(0.825 0 0 0.825 823.773 269)">Connection<tspan font-size="12" x="0" y="14.5455">Proxy</tspan></text><path d="M820.473 291.311 899.712 291.311 899.712 330.253 820.473 330.253Z" stroke="#6B7279" stroke-width="0.825" fill="#CDD85C"/><text font-family="Arial,Arial_MSFontService,sans-serif" font-weight="400" font-size="9" transform="matrix(0.825 0 0 0.825 823.773 299)">Standard<tspan font-size="9" x="0" y="10.9091">Application</tspan><tspan font-size="9" x="0" y="23.0303">Layer</tspan><tspan font-size="9" x="0" y="33.9394">Protocol</tspan><tspan font-weight="700" font-size="12" x="15.0237" y="-138.182">Command</tspan><tspan font-weight="700" font-size="12" x="33.5238" y="-123.636">and</tspan><tspan font-weight="700" font-size="12" x="23.5238" y="-109.091">Control</tspan></text><path d="M908.517 213.426 987.756 213.426 987.756 252.368 908.517 252.368Z" stroke="#6B7279" stroke-width="0.825" fill="#CDD85C"/><text font-family="Arial,Arial_MSFontService,sans-serif" font-weight="400" font-size="12" transform="matrix(0.825 0 0 0.825 911.817 224)">Activate<tspan font-size="12" x="0" y="14.5455">Firmware</tspan><tspan font-size="12" x="0" y="29.0909">Update Mode</tspan></text><path d="M908.517 252.368 987.756 252.368 987.756 291.311 908.517 291.311Z" stroke="#6B7279" stroke-width="0.825" fill="#FEBC57"/><text font-family="Arial,Arial_MSFontService,sans-serif" font-weight="400" font-size="12" transform="matrix(0.825 0 0 0.825 911.817 269)">Alarm<tspan font-size="12" x="0" y="14.5455">Suppression</tspan></text><path d="M908.517 291.311 987.756 291.311 987.756 330.253 908.517 330.253Z" stroke="#6B7279" stroke-width="0.825" fill="#FEBC57"/><text font-family="Arial,Arial_MSFontService,sans-serif" font-weight="400" font-size="12" transform="matrix(0.825 0 0 0.825 911.817 302)">Block<tspan font-size="12" x="0" y="14.5455">Command</tspan><tspan font-size="12" x="0" y="29.0909">Message</tspan></text><path d="M908.517 330.253 987.756 330.253 987.756 369.195 908.517 369.195Z" stroke="#6B7279" stroke-width="0.825" fill="#FEBC57"/><text font-family="Arial,Arial_MSFontService,sans-serif" font-weight="400" font-size="12" transform="matrix(0.825 0 0 0.825 911.817 341)">Block<tspan font-size="12" x="0" y="14.5455">Reporting</tspan><tspan font-size="12" x="0" y="29.0909">Message</tspan></text><path d="M908.517 369.195 987.756 369.195 987.756 408.138 908.517 408.138Z" stroke="#6B7279" stroke-width="0.825" fill="#FEBC57"/><text font-family="Arial,Arial_MSFontService,sans-serif" font-weight="400" font-size="12" transform="matrix(0.825 0 0 0.825 911.817 386)">Block<tspan font-size="12" x="0" y="14.5455">Serial COM</tspan></text><path d="M908.517 408.138 987.756 408.138 987.756 447.08 908.517 447.08Z" stroke="#6B7279" stroke-width="0.825" fill="#FEBC57"/><text font-family="Arial,Arial_MSFontService,sans-serif" font-weight="400" font-size="12" transform="matrix(0.825 0 0 0.825 911.817 425)">Data<tspan font-size="12" x="0" y="13.3333">Destruction</tspan></text><path d="M908.517 447.08 987.756 447.08 987.756 486.022 908.517 486.022Z" stroke="#6B7279" stroke-width="0.825" fill="#FEBC57"/><text font-family="Arial,Arial_MSFontService,sans-serif" font-weight="400" font-size="12" transform="matrix(0.825 0 0 0.825 911.817 463)">Denial<tspan font-size="12" x="0" y="14.5455">of Service</tspan></text><path d="M908.517 486.022 987.756 486.022 987.756 524.965 908.517 524.965Z" stroke="#6B7279" stroke-width="0.825" fill="#FEBC57"/><text font-family="Arial,Arial_MSFontService,sans-serif" font-weight="400" font-size="8" transform="matrix(0.825 0 0 0.825 911.817 502)">Device<tspan font-size="8" x="0" y="14.5455">Restart</tspan>/<tspan font-size="8" x="27" y="14.5455">Shutdown</tspan></text><path d="M908.517 524.965 987.756 524.965 987.756 563.907 908.517 563.907Z" stroke="#6B7279" stroke-width="0.825" fill="#FEBC57"/><text font-family="Arial,Arial_MSFontService,sans-serif" font-weight="400" font-size="12" transform="matrix(0.825 0 0 0.825 911.817 541)">Manipulate<tspan font-size="12" x="0" y="14.5455">I</tspan><tspan font-size="12" x="2.99997" y="14.5455">/</tspan><tspan font-size="12" x="6.00001" y="14.5455">O Image</tspan></text><path d="M908.517 563.907 987.756 563.907 987.756 602.849 908.517 602.849Z" stroke="#6B7279" stroke-width="0.825" fill="#FEBC57"/><text font-family="Arial,Arial_MSFontService,sans-serif" font-weight="400" font-size="12" transform="matrix(0.825 0 0 0.825 911.817 574)">Modify<tspan font-size="12" x="0" y="14.5455">Alarm</tspan><tspan font-size="12" x="0" y="29.0909">Settings</tspan></text><path d="M908.517 602.849 987.756 602.849 987.756 641.791 908.517 641.791Z" stroke="#6B7279" stroke-width="0.825" fill="#FC6B6B"/><text font-family="Arial,Arial_MSFontService,sans-serif" font-weight="400" font-size="12" transform="matrix(0.825 0 0 0.825 911.817 625)">Rootkit</text><path d="M908.517 641.791 987.756 641.791 987.756 680.734 908.517 680.734Z" stroke="#6B7279" stroke-width="0.825" fill="#FEBC57"/><text font-family="Arial,Arial_MSFontService,sans-serif" font-weight="400" font-size="12" transform="matrix(0.825 0 0 0.825 911.817 658)">Service<tspan font-size="12" x="0" y="14.5455">Stop</tspan></text><path d="M908.517 680.734 987.756 680.734 987.756 719.676 908.517 719.676Z" stroke="#6B7279" stroke-width="0.825" fill="#FEBC57"/><text font-family="Arial,Arial_MSFontService,sans-serif" font-weight="400" font-size="12" transform="matrix(0.825 0 0 0.825 911.817 697)">System<tspan font-size="12" x="0" y="14.5455">Firmware</tspan><tspan font-weight="700" font-size="12" x="27.0237" y="-620.606">Inhibit</tspan><tspan font-weight="700" font-size="12" x="15.5237" y="-606.061">Response</tspan><tspan font-weight="700" font-size="12" x="20.0237" y="-591.515">Function</tspan></text><path d="M996.56 213.426 1075.8 213.426 1075.8 252.368 996.56 252.368Z" stroke="#6B7279" stroke-width="0.825" fill="#CDD85C"/><text font-family="Arial,Arial_MSFontService,sans-serif" font-weight="400" font-size="12" transform="matrix(0.825 0 0 0.825 999.86 230)">Brute<tspan font-size="12" x="0" y="14.5455">Force I</tspan><tspan font-size="12" x="37" y="14.5455">/</tspan><tspan font-size="12" x="40" y="14.5455">O</tspan></text><path d="M996.56 252.368 1075.8 252.368 1075.8 291.311 996.56 291.311Z" stroke="#6B7279" stroke-width="0.825" fill="#FEBC57"/><text font-family="Arial,Arial_MSFontService,sans-serif" font-weight="400" font-size="12" transform="matrix(0.825 0 0 0.825 999.86 269)">Modify<tspan font-size="12" x="0" y="14.5455">Parameter</tspan></text><path d="M996.56 291.311 1075.8 291.311 1075.8 330.253 996.56 330.253Z" stroke="#6B7279" stroke-width="0.825" fill="#FEBC57"/><text font-family="Arial,Arial_MSFontService,sans-serif" font-weight="400" font-size="12" transform="matrix(0.825 0 0 0.825 999.86 308)">Module<tspan font-size="12" x="0" y="14.5455">Firmware</tspan></text><path d="M996.56 330.253 1075.8 330.253 1075.8 369.195 996.56 369.195Z" stroke="#6B7279" stroke-width="0.825" fill="#FC6B6B"/><text font-family="Arial,Arial_MSFontService,sans-serif" font-weight="400" font-size="12" transform="matrix(0.825 0 0 0.825 999.86 341)">Spoof<tspan font-size="12" x="0" y="14.5455">Reporting</tspan><tspan font-size="12" x="0" y="29.0909">Message</tspan></text><path d="M996.56 369.195 1075.8 369.195 1075.8 408.138 996.56 408.138Z" stroke="#6B7279" stroke-width="0.825" fill="#CDD85C"/><text font-family="Arial,Arial_MSFontService,sans-serif" font-weight="400" font-size="11" transform="matrix(0.825 0 0 0.825 999.86 379)">Unauthorized<tspan font-size="11" x="0" y="15.7576">Command</tspan><tspan font-size="11" x="0" y="30.303">Message</tspan><tspan font-weight="700" font-size="12" x="26.0237" y="-235.152">Impair</tspan><tspan font-weight="700" font-size="12" x="20.0237" y="-220.606">Process</tspan><tspan font-weight="700" font-size="12" x="23.5237" y="-206.061">Control</tspan></text><path d="M1084.6 213.426 1163.84 213.426 1163.84 252.368 1084.6 252.368Z" stroke="#6B7279" stroke-width="0.825" fill="#FC6B6B"/><text font-family="Arial,Arial_MSFontService,sans-serif" font-weight="400" font-size="12" transform="matrix(0.825 0 0 0.825 1087.9 230)">Damage to<tspan font-size="12" x="0" y="14.5455">Property</tspan></text><path d="M1084.6 252.368 1163.84 252.368 1163.84 291.311 1084.6 291.311Z" stroke="#6B7279" stroke-width="0.825" fill="#FC6B6B"/><text font-family="Arial,Arial_MSFontService,sans-serif" font-weight="400" font-size="12" transform="matrix(0.825 0 0 0.825 1087.9 269)">Denial<tspan font-size="12" x="0" y="14.5455">of Control</tspan></text><path d="M1084.6 291.311 1163.84 291.311 1163.84 330.253 1084.6 330.253Z" stroke="#6B7279" stroke-width="0.825" fill="#FC6B6B"/><text font-family="Arial,Arial_MSFontService,sans-serif" font-weight="400" font-size="12" transform="matrix(0.825 0 0 0.825 1087.9 308)">Denial<tspan font-size="12" x="0" y="14.5455">of View</tspan></text><path d="M1084.6 330.253 1163.84 330.253 1163.84 369.195 1084.6 369.195Z" stroke="#6B7279" stroke-width="0.825" fill="#FC6B6B"/><text font-family="Arial,Arial_MSFontService,sans-serif" font-weight="400" font-size="11" transform="matrix(0.825 0 0 0.825 1087.9 347)">Loss of<tspan font-size="11" x="0" y="14.5455">Availability</tspan></text><path d="M1084.6 369.195 1163.84 369.195 1163.84 408.138 1084.6 408.138Z" stroke="#6B7279" stroke-width="0.825" fill="#FC6B6B"/><text font-family="Arial,Arial_MSFontService,sans-serif" font-weight="400" font-size="12" transform="matrix(0.825 0 0 0.825 1087.9 386)">Loss<tspan font-size="12" x="0" y="14.5455">of Control</tspan></text><path d="M1084.6 408.138 1163.84 408.138 1163.84 447.08 1084.6 447.08Z" stroke="#6B7279" stroke-width="0.825" fill="#FC6B6B"/><text font-family="Arial,Arial_MSFontService,sans-serif" font-weight="400" font-size="11" transform="matrix(0.825 0 0 0.825 1087.9 418)">Loss of<tspan font-size="11" x="0" y="14.5455">Productivity</tspan><tspan font-size="11" x="0" y="30.303">and Revenue</tspan></text><path d="M1084.6 447.08 1163.84 447.08 1163.84 486.022 1084.6 486.022Z" stroke="#6B7279" stroke-width="0.825" fill="#FC6B6B"/><text font-family="Arial,Arial_MSFontService,sans-serif" font-weight="400" font-size="12" transform="matrix(0.825 0 0 0.825 1087.9 463)">Loss of<tspan font-size="12" x="0" y="14.5455">Protection</tspan></text><path d="M1084.6 486.022 1163.84 486.022 1163.84 524.965 1084.6 524.965Z" stroke="#6B7279" stroke-width="0.825" fill="#FC6B6B"/><text font-family="Arial,Arial_MSFontService,sans-serif" font-weight="400" font-size="12" transform="matrix(0.825 0 0 0.825 1087.9 502)">Loss<tspan font-size="12" x="0" y="14.5455">of Safety</tspan></text><path d="M1084.6 524.965 1163.84 524.965 1163.84 563.907 1084.6 563.907Z" stroke="#6B7279" stroke-width="0.825" fill="#FC6B6B"/><text font-family="Arial,Arial_MSFontService,sans-serif" font-weight="400" font-size="12" transform="matrix(0.825 0 0 0.825 1087.9 541)">Loss<tspan font-size="12" x="0" y="14.5455">of View</tspan></text><path d="M1084.6 563.907 1163.84 563.907 1163.84 602.849 1084.6 602.849Z" stroke="#6B7279" stroke-width="0.825" fill="#FC6B6B"/><text font-family="Arial,Arial_MSFontService,sans-serif" font-weight="400" font-size="11" transform="matrix(0.825 0 0 0.825 1087.9 580)">Manipulation<tspan font-size="11" x="0" y="14.5455">of Control</tspan></text><path d="M1084.6 602.849 1163.84 602.849 1163.84 641.791 1084.6 641.791Z" stroke="#6B7279" stroke-width="0.825" fill="#FC6B6B"/><text font-family="Arial,Arial_MSFontService,sans-serif" font-weight="400" font-size="11" transform="matrix(0.825 0 0 0.825 1087.9 619)">Manipulation<tspan font-size="11" x="0" y="14.5455">of View</tspan></text><path d="M1084.6 641.791 1163.84 641.791 1163.84 680.734 1084.6 680.734Z" stroke="#6B7279" stroke-width="0.825" fill="#FC6B6B"/><text font-family="Arial,Arial_MSFontService,sans-serif" font-weight="400" font-size="12" transform="matrix(0.825 0 0 0.825 1087.9 652)">Theft of<tspan font-size="12" x="0" y="14.5455">Operational</tspan><tspan font-size="12" x="0" y="29.0909">Information</tspan><tspan font-weight="700" font-size="12" x="24.5239" y="-551.515">Impact</tspan></text></g></svg>