<?xml version="1.0" standalone="no"?>
<svg width="1511.75" height="1020.4312500000001" xmlns="http://www.w3.org/2000/svg" id="svgvm1"><g transform="translate(5,5)" style="font-family: sans-serif;"><g><g transform="translate(0, 0)"><g transform="translate(0,5)"><rect class="header-box" width="483.61440677966095" height="39.13187500000001" stroke="black" fill="white" rx="5"/><rect class="label-cover" x="8" y="-9.666666984558105" width="34.6953125" height="17.33333396911621" fill="white" rx="5"/><text class="header-box-label" x="10" font-size="12" y="3">about</text><g class="header-box-content" transform="translate(5, 0)"><g transform="translate(0, 1.8634226190476184)"><text font-size="28"><tspan x="4" y="26.202514880952386">Defensive Posture</tspan></text></g></g></g></g><g transform="translate(509.06779661016947, 0)"><g transform="translate(0,5)"><rect class="header-box" width="483.61440677966095" height="39.13187500000001" stroke="black" fill="white" rx="5"/><rect class="label-cover" x="8" y="-9.666666984558105" width="43.364585876464844" height="17.33333396911621" fill="white" rx="5"/><text class="header-box-label" x="10" font-size="12" y="3">domain</text><g class="header-box-content" transform="translate(5, 0)"><g transform="translate(0, 1.8634226190476184)"><text font-size="28"><tspan x="4" y="26.202514880952386">ICS ATT&amp;CK v10</tspan></text></g></g></g></g><g transform="translate(1018.1355932203389, 0)"><g transform="translate(0,5)"><rect class="header-box" width="483.61440677966095" height="39.13187500000001" stroke="black" fill="white" rx="5"/><rect class="label-cover" x="8" y="-9.666666984558105" width="40.04166793823242" height="17.33333396911621" fill="white" rx="5"/><text class="header-box-label" x="10" font-size="12" y="3">legend</text><g class="header-box-content" transform="translate(5, 0)"><g transform="translate(0, 1.8634226190476184)"><g transform="translate(0, 5)"><g class="legendCells"><g class="cell" transform="translate(0,0)"><rect class="swatch" height="15" width="118.40360169491524" style="fill: rgb(116, 196, 118);"/><text class="label" transform="translate(59.20180130004883,&#10;          25)" style="text-anchor: middle;">Prevention</text></g><g class="cell" transform="translate(118.40360260009766,0)"><rect class="swatch" height="15" width="118.40360169491524" style="fill: rgb(196, 217, 155);"/><text class="label" transform="translate(59.20180130004883,&#10;          25)" style="text-anchor: middle;">Detection</text></g><g class="cell" transform="translate(236.8072052001953,0)"><rect class="swatch" height="15" width="118.40360169491524" style="fill: rgb(253, 174, 107);"/><text class="label" transform="translate(59.20180130004883,&#10;          25)" style="text-anchor: middle;">Response</text></g><g class="cell" transform="translate(355.21080780029297,0)"><rect class="swatch" height="15" width="118.40360169491524" style="fill: rgb(252, 107, 107);"/><text class="label" transform="translate(59.20180130004883,&#10;          25)" style="text-anchor: middle;">None</text></g></g></g></g></g></g></g></g><g transform="translate(0,50.13187500000001)"><g><g class="tactic initial-access-ics" transform="translate(0, 0)"><g class="techniques"><g class="technique T0817" transform="translate(0, 68.66424107142858)"><rect class="cell" height="68.66424107142858" width="113.57773109243698" fill="#fc6b6b" stroke="#6B7279"/><polygon class="sidebar" transform="translate(0, 68.66424107142858)" points="0,0 12,0 12,0" fill="#6B7279" visibility="hidden"/><text font-size="12" fill="black"><tspan x="4" y="30.58212053571429">Drive-by</tspan><tspan x="4" y="45.08212053571429">Compromise</tspan></text></g><g class="technique T0819" transform="translate(0, 137.32848214285715)"><rect class="cell" height="68.66424107142858" width="113.57773109243698" fill="#fc6b6b" stroke="#6B7279"/><polygon class="sidebar" transform="translate(0, 68.66424107142858)" points="0,0 12,0 12,0" fill="#6B7279" visibility="hidden"/><text font-size="11.775977698771817" fill="black"><tspan x="4" y="23.16545386904762">Exploit</tspan><tspan x="4" y="37.83212053571429">Public-Facing</tspan><tspan x="4" y="52.49878720238095">Application</tspan></text></g><g class="technique T0866" transform="translate(0, 205.99272321428572)"><rect class="cell" height="68.66424107142858" width="113.57773109243698" fill="#fc6b6b" stroke="#6B7279"/><polygon class="sidebar" transform="translate(0, 68.66424107142858)" points="0,0 12,0 12,0" fill="#6B7279" visibility="hidden"/><text font-size="12" fill="black"><tspan x="4" y="23.16545386904762">Exploitation</tspan><tspan x="4" y="37.83212053571429">of Remote</tspan><tspan x="4" y="52.49878720238095">Services</tspan></text></g><g class="technique T0822" transform="translate(0, 274.6569642857143)"><rect class="cell" height="68.66424107142858" width="113.57773109243698" fill="#74c476" stroke="#6B7279"/><polygon class="sidebar" transform="translate(0, 68.66424107142858)" points="0,0 12,0 12,0" fill="#6B7279" visibility="hidden"/><text font-size="12" fill="black"><tspan x="4" y="23.16545386904762">External</tspan><tspan x="4" y="37.83212053571429">Remote</tspan><tspan x="4" y="52.49878720238095">Services</tspan></text></g><g class="technique T0883" transform="translate(0, 343.3212053571429)"><rect class="cell" height="68.66424107142858" width="113.57773109243698" fill="#fc6b6b" stroke="#6B7279"/><polygon class="sidebar" transform="translate(0, 68.66424107142858)" points="0,0 12,0 12,0" fill="#6B7279" visibility="hidden"/><text font-size="12" fill="black"><tspan x="4" y="23.16545386904762">Internet</tspan><tspan x="4" y="37.83212053571429">Accessible</tspan><tspan x="4" y="52.49878720238095">Device</tspan></text></g><g class="technique T0886" transform="translate(0, 411.98544642857144)"><rect class="cell" height="68.66424107142858" width="113.57773109243698" fill="rgb(205, 216, 92)" stroke="#6B7279"/><polygon class="sidebar" transform="translate(0, 68.66424107142858)" points="0,0 12,0 12,0" fill="#6B7279" visibility="hidden"/><text font-size="12" fill="black"><tspan x="4" y="30.58212053571429">Remote</tspan><tspan x="4" y="45.08212053571429">Services</tspan></text></g><g class="technique T0847" transform="translate(0, 480.6496875)"><rect class="cell" height="68.66424107142858" width="113.57773109243698" fill="#fc6b6b" stroke="#6B7279"/><polygon class="sidebar" transform="translate(0, 68.66424107142858)" points="0,0 12,0 12,0" fill="#6B7279" visibility="hidden"/><text font-size="12" fill="black"><tspan x="4" y="15.707120535714289">Replication</tspan><tspan x="4" y="30.45712053571429">Through</tspan><tspan x="4" y="45.20712053571429">Removable</tspan><tspan x="4" y="59.95712053571429">Media</tspan></text></g><g class="technique T0848" transform="translate(0, 549.3139285714286)"><rect class="cell" height="68.66424107142858" width="113.57773109243698" fill="#fc6b6b" stroke="#6B7279"/><polygon class="sidebar" transform="translate(0, 68.66424107142858)" points="0,0 12,0 12,0" fill="#6B7279" visibility="hidden"/><text font-size="12" fill="black"><tspan x="4" y="37.83212053571429">Rogue Master</tspan></text></g><g class="technique T0865" transform="translate(0, 617.9781696428572)"><rect class="cell" height="68.66424107142858" width="113.57773109243698" fill="#fc6b6b" stroke="#6B7279"/><polygon class="sidebar" transform="translate(0, 68.66424107142858)" points="0,0 12,0 12,0" fill="#6B7279" visibility="hidden"/><text font-size="11.775977698771817" fill="black"><tspan x="4" y="30.58212053571429">Spearphishing</tspan><tspan x="4" y="45.08212053571429">Attachment</tspan></text></g><g class="technique T0862" transform="translate(0, 686.6424107142858)"><rect class="cell" height="68.66424107142858" width="113.57773109243698" fill="#fc6b6b" stroke="#6B7279"/><polygon class="sidebar" transform="translate(0, 68.66424107142858)" points="0,0 12,0 12,0" fill="#6B7279" visibility="hidden"/><text font-size="12" fill="black"><tspan x="4" y="30.58212053571429">Supply Chain</tspan><tspan x="4" y="45.08212053571429">Compromise</tspan></text></g><g class="technique T0864" transform="translate(0, 755.3066517857143)"><rect class="cell" height="68.66424107142858" width="113.57773109243698" fill="#fc6b6b" stroke="#6B7279"/><polygon class="sidebar" transform="translate(0, 68.66424107142858)" points="0,0 12,0 12,0" fill="#6B7279" visibility="hidden"/><text font-size="12" fill="black"><tspan x="4" y="30.58212053571429">Transient</tspan><tspan x="4" y="45.08212053571429">Cyber Asset</tspan></text></g><g class="technique T0860" transform="translate(0, 823.9708928571429)"><rect class="cell" height="68.66424107142858" width="113.57773109243698" fill="#fc6b6b" stroke="#6B7279"/><polygon class="sidebar" transform="translate(0, 68.66424107142858)" points="0,0 12,0 12,0" fill="#6B7279" visibility="hidden"/><text font-size="12" fill="black"><tspan x="4" y="30.58212053571429">Wireless</tspan><tspan x="4" y="45.08212053571429">Compromise</tspan></text></g></g><g class="subtechniques"/><g class="tactic-label"><text font-size="12" fill="black" font-weight="bold"><tspan text-anchor="middle" x="56.78886554621849" y="30.58212053571429">Initial</tspan><tspan text-anchor="middle" x="56.78886554621849" y="45.08212053571429">Access</tspan></text></g></g><g class="tactic execution-ics" transform="translate(126.19747899159664, 0)"><g class="techniques"><g class="technique T0858" transform="translate(0, 68.66424107142858)"><rect class="cell" height="68.66424107142858" width="113.57773109243698" fill="#74c476" stroke="#6B7279"/><polygon class="sidebar" transform="translate(0, 68.66424107142858)" points="0,0 12,0 12,0" fill="#6B7279" visibility="hidden"/><text font-size="12" fill="black"><tspan x="4" y="23.16545386904762">Change</tspan><tspan x="4" y="37.83212053571429">Operating</tspan><tspan x="4" y="52.49878720238095">Mode</tspan></text></g><g class="technique T0807" transform="translate(0, 137.32848214285715)"><rect class="cell" height="68.66424107142858" width="113.57773109243698" fill="#fc6b6b" stroke="#6B7279"/><polygon class="sidebar" transform="translate(0, 68.66424107142858)" points="0,0 12,0 12,0" fill="#6B7279" visibility="hidden"/><text font-size="12" fill="black"><tspan x="4" y="30.58212053571429">Command-Line</tspan><tspan x="4" y="45.08212053571429">Interface</tspan></text></g><g class="technique T0871" transform="translate(0, 205.99272321428572)"><rect class="cell" height="68.66424107142858" width="113.57773109243698" fill="#fc6b6b" stroke="#6B7279"/><polygon class="sidebar" transform="translate(0, 68.66424107142858)" points="0,0 12,0 12,0" fill="#6B7279" visibility="hidden"/><text font-size="12" fill="black"><tspan x="4" y="30.58212053571429">Execution</tspan><tspan x="4" y="45.08212053571429">through API</tspan></text></g><g class="technique T0823" transform="translate(0, 274.6569642857143)"><rect class="cell" height="68.66424107142858" width="113.57773109243698" fill="#fc6b6b" stroke="#6B7279"/><polygon class="sidebar" transform="translate(0, 68.66424107142858)" points="0,0 12,0 12,0" fill="#6B7279" visibility="hidden"/><text font-size="12" fill="black"><tspan x="4" y="23.16545386904762">Graphical</tspan><tspan x="4" y="37.83212053571429">User</tspan><tspan x="4" y="52.49878720238095">Interface</tspan></text></g><g class="technique T0874" transform="translate(0, 343.3212053571429)"><rect class="cell" height="68.66424107142858" width="113.57773109243698" fill="#fc6b6b" stroke="#6B7279"/><polygon class="sidebar" transform="translate(0, 68.66424107142858)" points="0,0 12,0 12,0" fill="#6B7279" visibility="hidden"/><text font-size="12" fill="black"><tspan x="4" y="37.83212053571429">Hooking</tspan></text></g><g class="technique T0821" transform="translate(0, 411.98544642857144)"><rect class="cell" height="68.66424107142858" width="113.57773109243698" fill="rgb(205, 216, 92)" stroke="#6B7279"/><polygon class="sidebar" transform="translate(0, 68.66424107142858)" points="0,0 12,0 12,0" fill="#6B7279" visibility="hidden"/><text font-size="12" fill="black"><tspan x="4" y="23.16545386904762">Modify</tspan><tspan x="4" y="37.83212053571429">Controller</tspan><tspan x="4" y="52.49878720238095">Tasking</tspan></text></g><g class="technique T0834" transform="translate(0, 480.6496875)"><rect class="cell" height="68.66424107142858" width="113.57773109243698" fill="#fc6b6b" stroke="#6B7279"/><polygon class="sidebar" transform="translate(0, 68.66424107142858)" points="0,0 12,0 12,0" fill="#6B7279" visibility="hidden"/><text font-size="12" fill="black"><tspan x="4" y="37.83212053571429">Native API</tspan></text></g><g class="technique T0853" transform="translate(0, 549.3139285714286)"><rect class="cell" height="68.66424107142858" width="113.57773109243698" fill="#fc6b6b" stroke="#6B7279"/><polygon class="sidebar" transform="translate(0, 68.66424107142858)" points="0,0 12,0 12,0" fill="#6B7279" visibility="hidden"/><text font-size="12" fill="black"><tspan x="4" y="37.83212053571429">Scripting</tspan></text></g><g class="technique T0863" transform="translate(0, 617.9781696428572)"><rect class="cell" height="68.66424107142858" width="113.57773109243698" fill="#fc6b6b" stroke="#6B7279"/><polygon class="sidebar" transform="translate(0, 68.66424107142858)" points="0,0 12,0 12,0" fill="#6B7279" visibility="hidden"/><text font-size="12" fill="black"><tspan x="4" y="30.58212053571429">User</tspan><tspan x="4" y="45.08212053571429">Execution</tspan></text></g></g><g class="subtechniques"/><g class="tactic-label"><text font-size="12" fill="black" font-weight="bold"><tspan text-anchor="middle" x="56.78886554621849" y="37.83212053571429">Execution</tspan></text></g></g><g class="tactic persistence-ics" transform="translate(252.39495798319328, 0)"><g class="techniques"><g class="technique T0889" transform="translate(0, 68.66424107142858)"><rect class="cell" height="68.66424107142858" width="113.57773109243698" fill="rgb(254, 188, 87)" stroke="#6B7279"/><polygon class="sidebar" transform="translate(0, 68.66424107142858)" points="0,0 12,0 12,0" fill="#6B7279" visibility="hidden"/><text font-size="12" fill="black"><tspan x="4" y="30.58212053571429">Modify</tspan><tspan x="4" y="45.08212053571429">Program</tspan></text></g><g class="technique T0839" transform="translate(0, 137.32848214285715)"><rect class="cell" height="68.66424107142858" width="113.57773109243698" fill="rgb(254, 188, 87)" stroke="#6B7279"/><polygon class="sidebar" transform="translate(0, 68.66424107142858)" points="0,0 12,0 12,0" fill="#6B7279" visibility="hidden"/><text font-size="12" fill="black"><tspan x="4" y="30.58212053571429">Module</tspan><tspan x="4" y="45.08212053571429">Firmware</tspan></text></g><g class="technique T0873" transform="translate(0, 205.99272321428572)"><rect class="cell" height="68.66424107142858" width="113.57773109243698" fill="rgb(254, 188, 87)" stroke="#6B7279"/><polygon class="sidebar" transform="translate(0, 68.66424107142858)" points="0,0 12,0 12,0" fill="#6B7279" visibility="hidden"/><text font-size="12" fill="black"><tspan x="4" y="30.58212053571429">Project File</tspan><tspan x="4" y="45.08212053571429">Infection</tspan></text></g><g class="technique T0857" transform="translate(0, 274.6569642857143)"><rect class="cell" height="68.66424107142858" width="113.57773109243698" fill="rgb(254, 188, 87)" stroke="#6B7279"/><polygon class="sidebar" transform="translate(0, 68.66424107142858)" points="0,0 12,0 12,0" fill="#6B7279" visibility="hidden"/><text font-size="12" fill="black"><tspan x="4" y="30.58212053571429">System</tspan><tspan x="4" y="45.08212053571429">Firmware</tspan></text></g><g class="technique T0859" transform="translate(0, 343.3212053571429)"><rect class="cell" height="68.66424107142858" width="113.57773109243698" fill="rgb(205, 216, 92)" stroke="#6B7279"/><polygon class="sidebar" transform="translate(0, 68.66424107142858)" points="0,0 12,0 12,0" fill="#6B7279" visibility="hidden"/><text font-size="12" fill="black"><tspan x="4" y="30.58212053571429">Valid</tspan><tspan x="4" y="45.08212053571429">Accounts</tspan></text></g></g><g class="subtechniques"/><g class="tactic-label"><text font-size="12" fill="black" font-weight="bold"><tspan text-anchor="middle" x="56.78886554621849" y="37.83212053571429">Persistence</tspan></text></g></g><g class="tactic privilege-escalation-ics" transform="translate(378.5924369747899, 0)"><g class="techniques"><g class="technique T0890" transform="translate(0, 68.66424107142858)"><rect class="cell" height="68.66424107142858" width="113.57773109243698" fill="#fc6b6b" stroke="#6B7279"/><polygon class="sidebar" transform="translate(0, 68.66424107142858)" points="0,0 12,0 12,0" fill="#6B7279" visibility="hidden"/><text font-size="12" fill="black"><tspan x="4" y="15.707120535714289">Exploitation</tspan><tspan x="4" y="30.45712053571429">for</tspan><tspan x="4" y="45.20712053571429">Privilege</tspan><tspan x="4" y="59.95712053571429">Escalation</tspan></text></g><g class="technique T0874" transform="translate(0, 137.32848214285715)"><rect class="cell" height="68.66424107142858" width="113.57773109243698" fill="#fc6b6b" stroke="#6B7279"/><polygon class="sidebar" transform="translate(0, 68.66424107142858)" points="0,0 12,0 12,0" fill="#6B7279" visibility="hidden"/><text font-size="12" fill="black"><tspan x="4" y="37.83212053571429">Hooking</tspan></text></g></g><g class="subtechniques"/><g class="tactic-label"><text font-size="12" fill="black" font-weight="bold"><tspan text-anchor="middle" x="56.78886554621849" y="30.58212053571429">Privilege</tspan><tspan text-anchor="middle" x="56.78886554621849" y="45.08212053571429">Escalation</tspan></text></g></g><g class="tactic evasion-ics" transform="translate(504.78991596638656, 0)"><g class="techniques"><g class="technique T0858" transform="translate(0, 68.66424107142858)"><rect class="cell" height="68.66424107142858" width="113.57773109243698" fill="#74c476" stroke="#6B7279"/><polygon class="sidebar" transform="translate(0, 68.66424107142858)" points="0,0 12,0 12,0" fill="#6B7279" visibility="hidden"/><text font-size="12" fill="black"><tspan x="4" y="23.16545386904762">Change</tspan><tspan x="4" y="37.83212053571429">Operating</tspan><tspan x="4" y="52.49878720238095">Mode</tspan></text></g><g class="technique T0820" transform="translate(0, 137.32848214285715)"><rect class="cell" height="68.66424107142858" width="113.57773109243698" fill="#fc6b6b" stroke="#6B7279"/><polygon class="sidebar" transform="translate(0, 68.66424107142858)" points="0,0 12,0 12,0" fill="#6B7279" visibility="hidden"/><text font-size="12" fill="black"><tspan x="4" y="30.58212053571429">Exploitation</tspan><tspan x="4" y="45.08212053571429">for Evasion</tspan></text></g><g class="technique T0872" transform="translate(0, 205.99272321428572)"><rect class="cell" height="68.66424107142858" width="113.57773109243698" fill="#fc6b6b" stroke="#6B7279"/><polygon class="sidebar" transform="translate(0, 68.66424107142858)" points="0,0 12,0 12,0" fill="#6B7279" visibility="hidden"/><text font-size="12" fill="black"><tspan x="4" y="23.16545386904762">Indicator</tspan><tspan x="4" y="37.83212053571429">Removal</tspan><tspan x="4" y="52.49878720238095">on Host</tspan></text></g><g class="technique T0849" transform="translate(0, 274.6569642857143)"><rect class="cell" height="68.66424107142858" width="113.57773109243698" fill="#fc6b6b" stroke="#6B7279"/><polygon class="sidebar" transform="translate(0, 68.66424107142858)" points="0,0 12,0 12,0" fill="#6B7279" visibility="hidden"/><text font-size="12" fill="black"><tspan x="4" y="37.83212053571429">Masquerading</tspan></text></g><g class="technique T0851" transform="translate(0, 343.3212053571429)"><rect class="cell" height="68.66424107142858" width="113.57773109243698" fill="#fc6b6b" stroke="#6B7279"/><polygon class="sidebar" transform="translate(0, 68.66424107142858)" points="0,0 12,0 12,0" fill="#6B7279" visibility="hidden"/><text font-size="12" fill="black"><tspan x="4" y="37.83212053571429">Rootkit</tspan></text></g><g class="technique T0856" transform="translate(0, 411.98544642857144)"><rect class="cell" height="68.66424107142858" width="113.57773109243698" fill="#fc6b6b" stroke="#6B7279"/><polygon class="sidebar" transform="translate(0, 68.66424107142858)" points="0,0 12,0 12,0" fill="#6B7279" visibility="hidden"/><text font-size="12" fill="black"><tspan x="4" y="23.16545386904762">Spoof</tspan><tspan x="4" y="37.83212053571429">Reporting</tspan><tspan x="4" y="52.49878720238095">Message</tspan></text></g></g><g class="subtechniques"/><g class="tactic-label"><text font-size="12" fill="black" font-weight="bold"><tspan text-anchor="middle" x="56.78886554621849" y="37.83212053571429">Evasion</tspan></text></g></g><g class="tactic discovery-ics" transform="translate(630.9873949579832, 0)"><g class="techniques"><g class="technique T0840" transform="translate(0, 68.66424107142858)"><rect class="cell" height="68.66424107142858" width="113.57773109243698" fill="#fc6b6b" stroke="#6B7279"/><polygon class="sidebar" transform="translate(0, 68.66424107142858)" points="0,0 12,0 12,0" fill="#6B7279" visibility="hidden"/><text font-size="12" fill="black"><tspan x="4" y="23.16545386904762">Network</tspan><tspan x="4" y="37.83212053571429">Connection</tspan><tspan x="4" y="52.49878720238095">Enumeration</tspan></text></g><g class="technique T0842" transform="translate(0, 137.32848214285715)"><rect class="cell" height="68.66424107142858" width="113.57773109243698" fill="#fc6b6b" stroke="#6B7279"/><polygon class="sidebar" transform="translate(0, 68.66424107142858)" points="0,0 12,0 12,0" fill="#6B7279" visibility="hidden"/><text font-size="12" fill="black"><tspan x="4" y="30.58212053571429">Network</tspan><tspan x="4" y="45.08212053571429">Sniffing</tspan></text></g><g class="technique T0846" transform="translate(0, 205.99272321428572)"><rect class="cell" height="68.66424107142858" width="113.57773109243698" fill="#fc6b6b" stroke="#6B7279"/><polygon class="sidebar" transform="translate(0, 68.66424107142858)" points="0,0 12,0 12,0" fill="#6B7279" visibility="hidden"/><text font-size="12" fill="black"><tspan x="4" y="23.16545386904762">Remote</tspan><tspan x="4" y="37.83212053571429">System</tspan><tspan x="4" y="52.49878720238095">Discovery</tspan></text></g><g class="technique T0888" transform="translate(0, 274.6569642857143)"><rect class="cell" height="68.66424107142858" width="113.57773109243698" fill="#fc6b6b" stroke="#6B7279"/><polygon class="sidebar" transform="translate(0, 68.66424107142858)" points="0,0 12,0 12,0" fill="#6B7279" visibility="hidden"/><text font-size="12" fill="black"><tspan x="4" y="15.707120535714289">Remote</tspan><tspan x="4" y="30.45712053571429">System</tspan><tspan x="4" y="45.20712053571429">Information</tspan><tspan x="4" y="59.95712053571429">Discovery</tspan></text></g><g class="technique T0887" transform="translate(0, 343.3212053571429)"><rect class="cell" height="68.66424107142858" width="113.57773109243698" fill="#fc6b6b" stroke="#6B7279"/><polygon class="sidebar" transform="translate(0, 68.66424107142858)" points="0,0 12,0 12,0" fill="#6B7279" visibility="hidden"/><text font-size="12" fill="black"><tspan x="4" y="30.58212053571429">Wireless</tspan><tspan x="4" y="45.08212053571429">Sniffing</tspan></text></g></g><g class="subtechniques"/><g class="tactic-label"><text font-size="12" fill="black" font-weight="bold"><tspan text-anchor="middle" x="56.78886554621849" y="37.83212053571429">Discovery</tspan></text></g></g><g class="tactic lateral-movement-ics" transform="translate(757.1848739495798, 0)"><g class="techniques"><g class="technique T0812" transform="translate(0, 68.66424107142858)"><rect class="cell" height="68.66424107142858" width="113.57773109243698" fill="#74c476" stroke="#6B7279"/><polygon class="sidebar" transform="translate(0, 68.66424107142858)" points="0,0 12,0 12,0" fill="#6B7279" visibility="hidden"/><text font-size="12" fill="black"><tspan x="4" y="30.58212053571429">Default</tspan><tspan x="4" y="45.08212053571429">Credentials</tspan></text></g><g class="technique T0866" transform="translate(0, 137.32848214285715)"><rect class="cell" height="68.66424107142858" width="113.57773109243698" fill="#fc6b6b" stroke="#6B7279"/><polygon class="sidebar" transform="translate(0, 68.66424107142858)" points="0,0 12,0 12,0" fill="#6B7279" visibility="hidden"/><text font-size="12" fill="black"><tspan x="4" y="23.16545386904762">Exploitation</tspan><tspan x="4" y="37.83212053571429">of Remote</tspan><tspan x="4" y="52.49878720238095">Services</tspan></text></g><g class="technique T0867" transform="translate(0, 205.99272321428572)"><rect class="cell" height="68.66424107142858" width="113.57773109243698" fill="rgb(205, 216, 92)" stroke="#6B7279"/><polygon class="sidebar" transform="translate(0, 68.66424107142858)" points="0,0 12,0 12,0" fill="#6B7279" visibility="hidden"/><text font-size="12" fill="black"><tspan x="4" y="30.58212053571429">Lateral Tool</tspan><tspan x="4" y="45.08212053571429">Transfer</tspan></text></g><g class="technique T0843" transform="translate(0, 274.6569642857143)"><rect class="cell" height="68.66424107142858" width="113.57773109243698" fill="rgb(254, 188, 87)" stroke="#6B7279"/><polygon class="sidebar" transform="translate(0, 68.66424107142858)" points="0,0 12,0 12,0" fill="#6B7279" visibility="hidden"/><text font-size="12" fill="black"><tspan x="4" y="30.58212053571429">Program</tspan><tspan x="4" y="45.08212053571429">Download</tspan></text></g><g class="technique T0886" transform="translate(0, 343.3212053571429)"><rect class="cell" height="68.66424107142858" width="113.57773109243698" fill="rgb(205, 216, 92)" stroke="#6B7279"/><polygon class="sidebar" transform="translate(0, 68.66424107142858)" points="0,0 12,0 12,0" fill="#6B7279" visibility="hidden"/><text font-size="12" fill="black"><tspan x="4" y="30.58212053571429">Remote</tspan><tspan x="4" y="45.08212053571429">Services</tspan></text></g><g class="technique T0859" transform="translate(0, 411.98544642857144)"><rect class="cell" height="68.66424107142858" width="113.57773109243698" fill="rgb(205, 216, 92)" stroke="#6B7279"/><polygon class="sidebar" transform="translate(0, 68.66424107142858)" points="0,0 12,0 12,0" fill="#6B7279" visibility="hidden"/><text font-size="12" fill="black"><tspan x="4" y="30.58212053571429">Valid</tspan><tspan x="4" y="45.08212053571429">Accounts</tspan></text></g></g><g class="subtechniques"/><g class="tactic-label"><text font-size="12" fill="black" font-weight="bold"><tspan text-anchor="middle" x="56.78886554621849" y="30.58212053571429">Lateral</tspan><tspan text-anchor="middle" x="56.78886554621849" y="45.08212053571429">Movement</tspan></text></g></g><g class="tactic collection-ics" transform="translate(883.3823529411765, 0)"><g class="techniques"><g class="technique T0802" transform="translate(0, 68.66424107142858)"><rect class="cell" height="68.66424107142858" width="113.57773109243698" fill="rgb(205, 216, 92)" stroke="#6B7279"/><polygon class="sidebar" transform="translate(0, 68.66424107142858)" points="0,0 12,0 12,0" fill="#6B7279" visibility="hidden"/><text font-size="12" fill="black"><tspan x="4" y="30.58212053571429">Automated</tspan><tspan x="4" y="45.08212053571429">Collection</tspan></text></g><g class="technique T0811" transform="translate(0, 137.32848214285715)"><rect class="cell" height="68.66424107142858" width="113.57773109243698" fill="#fc6b6b" stroke="#6B7279"/><polygon class="sidebar" transform="translate(0, 68.66424107142858)" points="0,0 12,0 12,0" fill="#6B7279" visibility="hidden"/><text font-size="12" fill="black"><tspan x="4" y="23.16545386904762">Data from</tspan><tspan x="4" y="37.83212053571429">Information</tspan><tspan x="4" y="52.49878720238095">Repositories</tspan></text></g><g class="technique T0868" transform="translate(0, 205.99272321428572)"><rect class="cell" height="68.66424107142858" width="113.57773109243698" fill="#fc6b6b" stroke="#6B7279"/><polygon class="sidebar" transform="translate(0, 68.66424107142858)" points="0,0 12,0 12,0" fill="#6B7279" visibility="hidden"/><text font-size="12" fill="black"><tspan x="4" y="23.16545386904762">Detect</tspan><tspan x="4" y="37.83212053571429">Operating</tspan><tspan x="4" y="52.49878720238095">Mode</tspan></text></g><g class="technique T0877" transform="translate(0, 274.6569642857143)"><rect class="cell" height="68.66424107142858" width="113.57773109243698" fill="#fc6b6b" stroke="#6B7279"/><polygon class="sidebar" transform="translate(0, 68.66424107142858)" points="0,0 12,0 12,0" fill="#6B7279" visibility="hidden"/><text font-size="12" fill="black"><tspan x="4" y="37.83212053571429">I/O Image</tspan></text></g><g class="technique T0830" transform="translate(0, 343.3212053571429)"><rect class="cell" height="68.66424107142858" width="113.57773109243698" fill="#fc6b6b" stroke="#6B7279"/><polygon class="sidebar" transform="translate(0, 68.66424107142858)" points="0,0 12,0 12,0" fill="#6B7279" visibility="hidden"/><text font-size="12" fill="black"><tspan x="4" y="30.58212053571429">Man in</tspan><tspan x="4" y="45.08212053571429">the Middle</tspan></text></g><g class="technique T0801" transform="translate(0, 411.98544642857144)"><rect class="cell" height="68.66424107142858" width="113.57773109243698" fill="#fc6b6b" stroke="#6B7279"/><polygon class="sidebar" transform="translate(0, 68.66424107142858)" points="0,0 12,0 12,0" fill="#6B7279" visibility="hidden"/><text font-size="12" fill="black"><tspan x="4" y="23.16545386904762">Monitor</tspan><tspan x="4" y="37.83212053571429">Process</tspan><tspan x="4" y="52.49878720238095">State</tspan></text></g><g class="technique T0861" transform="translate(0, 480.6496875)"><rect class="cell" height="68.66424107142858" width="113.57773109243698" fill="#fc6b6b" stroke="#6B7279"/><polygon class="sidebar" transform="translate(0, 68.66424107142858)" points="0,0 12,0 12,0" fill="#6B7279" visibility="hidden"/><text font-size="10.934836434573828" fill="black"><tspan x="4" y="30.58212053571429">Point &amp; Tag</tspan><tspan x="4" y="45.08212053571429">Identification</tspan></text></g><g class="technique T0845" transform="translate(0, 549.3139285714286)"><rect class="cell" height="68.66424107142858" width="113.57773109243698" fill="rgb(254, 188, 87)" stroke="#6B7279"/><polygon class="sidebar" transform="translate(0, 68.66424107142858)" points="0,0 12,0 12,0" fill="#6B7279" visibility="hidden"/><text font-size="12" fill="black"><tspan x="4" y="30.58212053571429">Program</tspan><tspan x="4" y="45.08212053571429">Upload</tspan></text></g><g class="technique T0852" transform="translate(0, 617.9781696428572)"><rect class="cell" height="68.66424107142858" width="113.57773109243698" fill="#fc6b6b" stroke="#6B7279"/><polygon class="sidebar" transform="translate(0, 68.66424107142858)" points="0,0 12,0 12,0" fill="#6B7279" visibility="hidden"/><text font-size="12" fill="black"><tspan x="4" y="30.58212053571429">Screen</tspan><tspan x="4" y="45.08212053571429">Capture</tspan></text></g><g class="technique T0887" transform="translate(0, 686.6424107142858)"><rect class="cell" height="68.66424107142858" width="113.57773109243698" fill="#fc6b6b" stroke="#6B7279"/><polygon class="sidebar" transform="translate(0, 68.66424107142858)" points="0,0 12,0 12,0" fill="#6B7279" visibility="hidden"/><text font-size="12" fill="black"><tspan x="4" y="30.58212053571429">Wireless</tspan><tspan x="4" y="45.08212053571429">Sniffing</tspan></text></g></g><g class="subtechniques"/><g class="tactic-label"><text font-size="12" fill="black" font-weight="bold"><tspan text-anchor="middle" x="56.78886554621849" y="37.83212053571429">Collection</tspan></text></g></g><g class="tactic command-and-control-ics" transform="translate(1009.5798319327731, 0)"><g class="techniques"><g class="technique T0885" transform="translate(0, 68.66424107142858)"><rect class="cell" height="68.66424107142858" width="113.57773109243698" fill="rgb(205, 216, 92)" stroke="#6B7279"/><polygon class="sidebar" transform="translate(0, 68.66424107142858)" points="0,0 12,0 12,0" fill="#6B7279" visibility="hidden"/><text font-size="12" fill="black"><tspan x="4" y="30.58212053571429">Commonly</tspan><tspan x="4" y="45.08212053571429">Used Port</tspan></text></g><g class="technique T0884" transform="translate(0, 137.32848214285715)"><rect class="cell" height="68.66424107142858" width="113.57773109243698" fill="rgb(205, 216, 92)" stroke="#6B7279"/><polygon class="sidebar" transform="translate(0, 68.66424107142858)" points="0,0 12,0 12,0" fill="#6B7279" visibility="hidden"/><text font-size="12" fill="black"><tspan x="4" y="30.58212053571429">Connection</tspan><tspan x="4" y="45.08212053571429">Proxy</tspan></text></g><g class="technique T0869" transform="translate(0, 205.99272321428572)"><rect class="cell" height="68.66424107142858" width="113.57773109243698" fill="rgb(205, 216, 92)" stroke="#6B7279"/><polygon class="sidebar" transform="translate(0, 68.66424107142858)" points="0,0 12,0 12,0" fill="#6B7279" visibility="hidden"/><text font-size="12" fill="black"><tspan x="4" y="15.707120535714289">Standard</tspan><tspan x="4" y="30.45712053571429">Application</tspan><tspan x="4" y="45.20712053571429">Layer</tspan><tspan x="4" y="59.95712053571429">Protocol</tspan></text></g></g><g class="subtechniques"/><g class="tactic-label"><text font-size="12" fill="black" font-weight="bold"><tspan text-anchor="middle" x="56.78886554621849" y="30.58212053571429">Command</tspan><tspan text-anchor="middle" x="56.78886554621849" y="45.08212053571429">and Control</tspan></text></g></g><g class="tactic inhibit-response-function" transform="translate(1135.7773109243697, 0)"><g class="techniques"><g class="technique T0800" transform="translate(0, 68.66424107142858)"><rect class="cell" height="68.66424107142858" width="113.57773109243698" fill="rgb(205, 216, 92)" stroke="#6B7279"/><polygon class="sidebar" transform="translate(0, 68.66424107142858)" points="0,0 12,0 12,0" fill="#6B7279" visibility="hidden"/><text font-size="12" fill="black"><tspan x="4" y="23.16545386904762">Activate</tspan><tspan x="4" y="37.83212053571429">Firmware</tspan><tspan x="4" y="52.49878720238095">Update Mode</tspan></text></g><g class="technique T0878" transform="translate(0, 137.32848214285715)"><rect class="cell" height="68.66424107142858" width="113.57773109243698" fill="rgb(254, 188, 87)" stroke="#6B7279"/><polygon class="sidebar" transform="translate(0, 68.66424107142858)" points="0,0 12,0 12,0" fill="#6B7279" visibility="hidden"/><text font-size="12" fill="black"><tspan x="4" y="30.58212053571429">Alarm</tspan><tspan x="4" y="45.08212053571429">Suppression</tspan></text></g><g class="technique T0803" transform="translate(0, 205.99272321428572)"><rect class="cell" height="68.66424107142858" width="113.57773109243698" fill="rgb(254, 188, 87)" stroke="#6B7279"/><polygon class="sidebar" transform="translate(0, 68.66424107142858)" points="0,0 12,0 12,0" fill="#6B7279" visibility="hidden"/><text font-size="12" fill="black"><tspan x="4" y="23.16545386904762">Block</tspan><tspan x="4" y="37.83212053571429">Command</tspan><tspan x="4" y="52.49878720238095">Message</tspan></text></g><g class="technique T0804" transform="translate(0, 274.6569642857143)"><rect class="cell" height="68.66424107142858" width="113.57773109243698" fill="rgb(254, 188, 87)" stroke="#6B7279"/><polygon class="sidebar" transform="translate(0, 68.66424107142858)" points="0,0 12,0 12,0" fill="#6B7279" visibility="hidden"/><text font-size="12" fill="black"><tspan x="4" y="23.16545386904762">Block</tspan><tspan x="4" y="37.83212053571429">Reporting</tspan><tspan x="4" y="52.49878720238095">Message</tspan></text></g><g class="technique T0805" transform="translate(0, 343.3212053571429)"><rect class="cell" height="68.66424107142858" width="113.57773109243698" fill="rgb(254, 188, 87)" stroke="#6B7279"/><polygon class="sidebar" transform="translate(0, 68.66424107142858)" points="0,0 12,0 12,0" fill="#6B7279" visibility="hidden"/><text font-size="12" fill="black"><tspan x="4" y="30.58212053571429">Block</tspan><tspan x="4" y="45.08212053571429">Serial COM</tspan></text></g><g class="technique T0809" transform="translate(0, 411.98544642857144)"><rect class="cell" height="68.66424107142858" width="113.57773109243698" fill="rgb(254, 188, 87)" stroke="#6B7279"/><polygon class="sidebar" transform="translate(0, 68.66424107142858)" points="0,0 12,0 12,0" fill="#6B7279" visibility="hidden"/><text font-size="12" fill="black"><tspan x="4" y="30.58212053571429">Data</tspan><tspan x="4" y="45.08212053571429">Destruction</tspan></text></g><g class="technique T0814" transform="translate(0, 480.6496875)"><rect class="cell" height="68.66424107142858" width="113.57773109243698" fill="rgb(254, 188, 87)" stroke="#6B7279"/><polygon class="sidebar" transform="translate(0, 68.66424107142858)" points="0,0 12,0 12,0" fill="#6B7279" visibility="hidden"/><text font-size="12" fill="black"><tspan x="4" y="30.58212053571429">Denial</tspan><tspan x="4" y="45.08212053571429">of Service</tspan></text></g><g class="technique T0816" transform="translate(0, 549.3139285714286)"><rect class="cell" height="68.66424107142858" width="113.57773109243698" fill="rgb(254, 188, 87)" stroke="#6B7279"/><polygon class="sidebar" transform="translate(0, 68.66424107142858)" points="0,0 12,0 12,0" fill="#6B7279" visibility="hidden"/><text font-size="9.5679818802521" fill="black"><tspan x="4" y="29.58212053571429">Device</tspan><tspan x="4" y="44.08212053571429">Restart/Shutdown</tspan></text></g><g class="technique T0835" transform="translate(0, 617.9781696428572)"><rect class="cell" height="68.66424107142858" width="113.57773109243698" fill="rgb(254, 188, 87)" stroke="#6B7279"/><polygon class="sidebar" transform="translate(0, 68.66424107142858)" points="0,0 12,0 12,0" fill="#6B7279" visibility="hidden"/><text font-size="12" fill="black"><tspan x="4" y="30.58212053571429">Manipulate</tspan><tspan x="4" y="45.08212053571429">I/O Image</tspan></text></g><g class="technique T0838" transform="translate(0, 686.6424107142858)"><rect class="cell" height="68.66424107142858" width="113.57773109243698" fill="rgb(254, 188, 87)" stroke="#6B7279"/><polygon class="sidebar" transform="translate(0, 68.66424107142858)" points="0,0 12,0 12,0" fill="#6B7279" visibility="hidden"/><text font-size="12" fill="black"><tspan x="4" y="30.58212053571429">Modify Alarm</tspan><tspan x="4" y="45.08212053571429">Settings</tspan></text></g><g class="technique T0851" transform="translate(0, 755.3066517857143)"><rect class="cell" height="68.66424107142858" width="113.57773109243698" fill="#fc6b6b" stroke="#6B7279"/><polygon class="sidebar" transform="translate(0, 68.66424107142858)" points="0,0 12,0 12,0" fill="#6B7279" visibility="hidden"/><text font-size="12" fill="black"><tspan x="4" y="37.83212053571429">Rootkit</tspan></text></g><g class="technique T0881" transform="translate(0, 823.9708928571429)"><rect class="cell" height="68.66424107142858" width="113.57773109243698" fill="rgb(254, 188, 87)" stroke="#6B7279"/><polygon class="sidebar" transform="translate(0, 68.66424107142858)" points="0,0 12,0 12,0" fill="#6B7279" visibility="hidden"/><text font-size="12" fill="black"><tspan x="4" y="37.83212053571429">Service Stop</tspan></text></g><g class="technique T0857" transform="translate(0, 892.6351339285715)"><rect class="cell" height="68.66424107142858" width="113.57773109243698" fill="rgb(254, 188, 87)" stroke="#6B7279"/><polygon class="sidebar" transform="translate(0, 68.66424107142858)" points="0,0 12,0 12,0" fill="#6B7279" visibility="hidden"/><text font-size="12" fill="black"><tspan x="4" y="30.58212053571429">System</tspan><tspan x="4" y="45.08212053571429">Firmware</tspan></text></g></g><g class="subtechniques"/><g class="tactic-label"><text font-size="12" fill="black" font-weight="bold"><tspan text-anchor="middle" x="56.78886554621849" y="23.16545386904762">Inhibit</tspan><tspan text-anchor="middle" x="56.78886554621849" y="37.83212053571429">Response</tspan><tspan text-anchor="middle" x="56.78886554621849" y="52.49878720238095">Function</tspan></text></g></g><g class="tactic impair-process-control" transform="translate(1261.9747899159663, 0)"><g class="techniques"><g class="technique T0806" transform="translate(0, 68.66424107142858)"><rect class="cell" height="68.66424107142858" width="113.57773109243698" fill="rgb(205, 216, 92)" stroke="#6B7279"/><polygon class="sidebar" transform="translate(0, 68.66424107142858)" points="0,0 12,0 12,0" fill="#6B7279" visibility="hidden"/><text font-size="12" fill="black"><tspan x="4" y="30.58212053571429">Brute</tspan><tspan x="4" y="45.08212053571429">Force I/O</tspan></text></g><g class="technique T0836" transform="translate(0, 137.32848214285715)"><rect class="cell" height="68.66424107142858" width="113.57773109243698" fill="rgb(254, 188, 87)" stroke="#6B7279"/><polygon class="sidebar" transform="translate(0, 68.66424107142858)" points="0,0 12,0 12,0" fill="#6B7279" visibility="hidden"/><text font-size="12" fill="black"><tspan x="4" y="30.58212053571429">Modify</tspan><tspan x="4" y="45.08212053571429">Parameter</tspan></text></g><g class="technique T0839" transform="translate(0, 205.99272321428572)"><rect class="cell" height="68.66424107142858" width="113.57773109243698" fill="rgb(254, 188, 87)" stroke="#6B7279"/><polygon class="sidebar" transform="translate(0, 68.66424107142858)" points="0,0 12,0 12,0" fill="#6B7279" visibility="hidden"/><text font-size="12" fill="black"><tspan x="4" y="30.58212053571429">Module</tspan><tspan x="4" y="45.08212053571429">Firmware</tspan></text></g><g class="technique T0856" transform="translate(0, 274.6569642857143)"><rect class="cell" height="68.66424107142858" width="113.57773109243698" fill="#fc6b6b" stroke="#6B7279"/><polygon class="sidebar" transform="translate(0, 68.66424107142858)" points="0,0 12,0 12,0" fill="#6B7279" visibility="hidden"/><text font-size="12" fill="black"><tspan x="4" y="23.16545386904762">Spoof</tspan><tspan x="4" y="37.83212053571429">Reporting</tspan><tspan x="4" y="52.49878720238095">Message</tspan></text></g><g class="technique T0855" transform="translate(0, 343.3212053571429)"><rect class="cell" height="68.66424107142858" width="113.57773109243698" fill="rgb(205, 216, 92)" stroke="#6B7279"/><polygon class="sidebar" transform="translate(0, 68.66424107142858)" points="0,0 12,0 12,0" fill="#6B7279" visibility="hidden"/><text font-size="12" fill="black"><tspan x="4" y="23.16545386904762">Unauthorized</tspan><tspan x="4" y="37.83212053571429">Command</tspan><tspan x="4" y="52.49878720238095">Message</tspan></text></g></g><g class="subtechniques"/><g class="tactic-label"><text font-size="12" fill="black" font-weight="bold"><tspan text-anchor="middle" x="56.78886554621849" y="23.16545386904762">Impair</tspan><tspan text-anchor="middle" x="56.78886554621849" y="37.83212053571429">Process</tspan><tspan text-anchor="middle" x="56.78886554621849" y="52.49878720238095">Control</tspan></text></g></g><g class="tactic impact-ics" transform="translate(1388.172268907563, 0)"><g class="techniques"><g class="technique T0879" transform="translate(0, 68.66424107142858)"><rect class="cell" height="68.66424107142858" width="113.57773109243698" fill="#fc6b6b" stroke="#6B7279"/><polygon class="sidebar" transform="translate(0, 68.66424107142858)" points="0,0 12,0 12,0" fill="#6B7279" visibility="hidden"/><text font-size="12" fill="black"><tspan x="4" y="30.58212053571429">Damage</tspan><tspan x="4" y="45.08212053571429">to Property</tspan></text></g><g class="technique T0813" transform="translate(0, 137.32848214285715)"><rect class="cell" height="68.66424107142858" width="113.57773109243698" fill="#fc6b6b" stroke="#6B7279"/><polygon class="sidebar" transform="translate(0, 68.66424107142858)" points="0,0 12,0 12,0" fill="#6B7279" visibility="hidden"/><text font-size="12" fill="black"><tspan x="4" y="30.58212053571429">Denial</tspan><tspan x="4" y="45.08212053571429">of Control</tspan></text></g><g class="technique T0815" transform="translate(0, 205.99272321428572)"><rect class="cell" height="68.66424107142858" width="113.57773109243698" fill="#fc6b6b" stroke="#6B7279"/><polygon class="sidebar" transform="translate(0, 68.66424107142858)" points="0,0 12,0 12,0" fill="#6B7279" visibility="hidden"/><text font-size="12" fill="black"><tspan x="4" y="30.58212053571429">Denial</tspan><tspan x="4" y="45.08212053571429">of View</tspan></text></g><g class="technique T0826" transform="translate(0, 274.6569642857143)"><rect class="cell" height="68.66424107142858" width="113.57773109243698" fill="#fc6b6b" stroke="#6B7279"/><polygon class="sidebar" transform="translate(0, 68.66424107142858)" points="0,0 12,0 12,0" fill="#6B7279" visibility="hidden"/><text font-size="12" fill="black"><tspan x="4" y="30.58212053571429">Loss of</tspan><tspan x="4" y="45.08212053571429">Availability</tspan></text></g><g class="technique T0827" transform="translate(0, 343.3212053571429)"><rect class="cell" height="68.66424107142858" width="113.57773109243698" fill="#fc6b6b" stroke="#6B7279"/><polygon class="sidebar" transform="translate(0, 68.66424107142858)" points="0,0 12,0 12,0" fill="#6B7279" visibility="hidden"/><text font-size="12" fill="black"><tspan x="4" y="30.58212053571429">Loss</tspan><tspan x="4" y="45.08212053571429">of Control</tspan></text></g><g class="technique T0828" transform="translate(0, 411.98544642857144)"><rect class="cell" height="68.66424107142858" width="113.57773109243698" fill="#fc6b6b" stroke="#6B7279"/><polygon class="sidebar" transform="translate(0, 68.66424107142858)" points="0,0 12,0 12,0" fill="#6B7279" visibility="hidden"/><text font-size="12" fill="black"><tspan x="4" y="23.16545386904762">Loss of</tspan><tspan x="4" y="37.83212053571429">Productivity</tspan><tspan x="4" y="52.49878720238095">and Revenue</tspan></text></g><g class="technique T0837" transform="translate(0, 480.6496875)"><rect class="cell" height="68.66424107142858" width="113.57773109243698" fill="#fc6b6b" stroke="#6B7279"/><polygon class="sidebar" transform="translate(0, 68.66424107142858)" points="0,0 12,0 12,0" fill="#6B7279" visibility="hidden"/><text font-size="12" fill="black"><tspan x="4" y="30.58212053571429">Loss of</tspan><tspan x="4" y="45.08212053571429">Protection</tspan></text></g><g class="technique T0880" transform="translate(0, 549.3139285714286)"><rect class="cell" height="68.66424107142858" width="113.57773109243698" fill="#fc6b6b" stroke="#6B7279"/><polygon class="sidebar" transform="translate(0, 68.66424107142858)" points="0,0 12,0 12,0" fill="#6B7279" visibility="hidden"/><text font-size="12" fill="black"><tspan x="4" y="30.58212053571429">Loss</tspan><tspan x="4" y="45.08212053571429">of Safety</tspan></text></g><g class="technique T0829" transform="translate(0, 617.9781696428572)"><rect class="cell" height="68.66424107142858" width="113.57773109243698" fill="#fc6b6b" stroke="#6B7279"/><polygon class="sidebar" transform="translate(0, 68.66424107142858)" points="0,0 12,0 12,0" fill="#6B7279" visibility="hidden"/><text font-size="12" fill="black"><tspan x="4" y="37.83212053571429">Loss of View</tspan></text></g><g class="technique T0831" transform="translate(0, 686.6424107142858)"><rect class="cell" height="68.66424107142858" width="113.57773109243698" fill="#fc6b6b" stroke="#6B7279"/><polygon class="sidebar" transform="translate(0, 68.66424107142858)" points="0,0 12,0 12,0" fill="#6B7279" visibility="hidden"/><text font-size="12" fill="black"><tspan x="4" y="30.58212053571429">Manipulation</tspan><tspan x="4" y="45.08212053571429">of Control</tspan></text></g><g class="technique T0832" transform="translate(0, 755.3066517857143)"><rect class="cell" height="68.66424107142858" width="113.57773109243698" fill="#fc6b6b" stroke="#6B7279"/><polygon class="sidebar" transform="translate(0, 68.66424107142858)" points="0,0 12,0 12,0" fill="#6B7279" visibility="hidden"/><text font-size="12" fill="black"><tspan x="4" y="30.58212053571429">Manipulation</tspan><tspan x="4" y="45.08212053571429">of View</tspan></text></g><g class="technique T0882" transform="translate(0, 823.9708928571429)"><rect class="cell" height="68.66424107142858" width="113.57773109243698" fill="#fc6b6b" stroke="#6B7279"/><polygon class="sidebar" transform="translate(0, 68.66424107142858)" points="0,0 12,0 12,0" fill="#6B7279" visibility="hidden"/><text font-size="12" fill="black"><tspan x="4" y="23.16545386904762">Theft of</tspan><tspan x="4" y="37.83212053571429">Operational</tspan><tspan x="4" y="52.49878720238095">Information</tspan></text></g></g><g class="subtechniques"/><g class="tactic-label"><text font-size="12" fill="black" font-weight="bold"><tspan text-anchor="middle" x="56.78886554621849" y="37.83212053571429">Impact</tspan></text></g></g></g></g></g></svg>